<svg width="342" height="360" viewBox="0 0 342 360" fill="none" xmlns="http://www.w3.org/2000/svg">
<path d="M183.06 198.81C183.035 198.81 183.011 198.808 182.99 198.804L153.622 193.353C153.495 193.329 153.304 193.202 153.23 193.09C153.156 192.979 153.108 192.747 153.13 192.614L158.308 161.699C158.331 161.565 158.452 161.365 158.557 161.287C158.663 161.209 158.882 161.158 159.01 161.181L188.379 166.632C188.708 166.693 188.929 167.025 188.871 167.371L183.692 198.286C183.67 198.42 183.548 198.62 183.443 198.699C183.355 198.763 183.187 198.81 183.06 198.81ZM154.153 192.41L182.796 197.726L187.847 167.575L159.204 162.259L154.153 192.41Z" fill="url(#paint0_linear_157_304)"/>
<path d="M182.462 201.537C182.408 201.537 182.354 201.53 182.301 201.514L150.992 192.683C150.663 192.591 150.468 192.234 150.555 191.889L158.945 158.929C158.979 158.798 159.12 158.604 159.232 158.535C159.344 158.468 159.574 158.436 159.7 158.47L191.01 167.302C191.338 167.394 191.534 167.751 191.446 168.096L183.056 201.056C183.022 201.187 182.881 201.382 182.769 201.45C182.674 201.508 182.569 201.537 182.462 201.537ZM151.589 191.79L182.208 200.426L190.412 168.195L159.794 159.559L151.589 191.79Z" fill="url(#paint1_linear_157_304)"/>
<path d="M181.514 204.411C181.438 204.411 181.365 204.402 181.314 204.382L148.206 191.697C148.085 191.651 147.906 191.479 147.852 191.355C147.781 191.195 147.773 191.015 147.831 190.85L159.881 155.998C159.926 155.871 160.088 155.683 160.206 155.625C160.323 155.568 160.565 155.556 160.686 155.603L193.795 168.288C193.916 168.334 194.094 168.506 194.149 168.63C194.203 168.753 194.214 169.008 194.17 169.135L182.119 203.987C182.075 204.115 181.912 204.303 181.795 204.36C181.726 204.393 181.617 204.411 181.514 204.411ZM148.865 190.858L181.322 203.293L193.135 169.127L160.678 156.692L148.865 190.858Z" fill="url(#paint2_linear_157_304)"/>
<path d="M180.278 207.442C180.172 207.442 180.059 207.424 179.991 207.39L145.282 190.353C144.962 190.196 144.823 189.794 144.972 189.458L161.157 152.921C161.212 152.797 161.398 152.619 161.519 152.572C161.679 152.511 161.853 152.519 162.008 152.595L196.717 169.632C196.834 169.69 197.003 169.884 197.047 170.012C197.092 170.14 197.081 170.404 197.026 170.528L180.841 207.064C180.787 207.188 180.601 207.366 180.48 207.413C180.429 207.432 180.356 207.442 180.278 207.442ZM145.997 189.572L180.099 206.312L196.002 170.413L161.899 153.673L145.997 189.572Z" fill="url(#paint3_linear_157_304)"/>
<path d="M178.617 210.61C178.504 210.61 178.392 210.578 178.292 210.518L142.242 188.608C141.93 188.419 141.822 187.998 142.002 187.669L162.816 149.72C162.997 149.391 163.398 149.279 163.709 149.469L199.758 171.377C200.07 171.567 200.177 171.989 199.998 172.317L179.184 210.266C179.097 210.425 178.957 210.539 178.788 210.586C178.731 210.602 178.674 210.61 178.617 210.61ZM143.007 187.888L178.501 209.46L198.993 172.097L163.499 150.525L143.007 187.888Z" fill="url(#paint4_linear_157_304)"/>
<path d="M176.554 213.863C176.417 213.863 176.285 213.819 176.171 213.735L139.108 186.417C138.962 186.309 138.865 186.149 138.834 185.964C138.803 185.778 138.842 185.592 138.944 185.437L164.897 146.421C165.107 146.104 165.523 146.026 165.826 146.248L165.827 146.249L202.891 173.568C203.192 173.791 203.265 174.229 203.055 174.547L177.102 213.563C176.999 213.717 176.846 213.82 176.67 213.852C176.631 213.86 176.592 213.863 176.554 213.863ZM139.918 185.762L176.479 212.71L202.08 174.223L165.519 147.275L139.918 185.762Z" fill="url(#paint5_linear_157_304)"/>
<path d="M174.03 217.18C173.875 217.18 173.72 217.126 173.592 217.013L135.916 183.734C135.777 183.61 135.691 183.437 135.675 183.246C135.659 183.054 135.715 182.867 135.832 182.72L167.445 143.061C167.563 142.914 167.728 142.823 167.91 142.807C168.09 142.79 168.268 142.849 168.408 142.973L206.083 176.251C206.223 176.375 206.309 176.548 206.325 176.739C206.341 176.931 206.285 177.117 206.167 177.265L174.555 216.924C174.42 217.093 174.226 217.18 174.03 217.18ZM136.766 183.145L173.995 216.03L205.234 176.84L168.005 143.956L136.766 183.145Z" fill="url(#paint6_linear_157_304)"/>
<path d="M171 220.521C170.813 220.521 170.636 220.444 170.504 220.304L132.704 180.514C132.572 180.375 132.499 180.189 132.499 179.992C132.499 179.795 132.572 179.61 132.704 179.471L170.505 139.68C170.768 139.402 171.231 139.401 171.495 139.68L209.296 179.471C209.428 179.61 209.501 179.795 209.501 179.992C209.501 180.189 209.428 180.375 209.296 180.514L171.495 220.305C171.364 220.444 171.188 220.521 171 220.521ZM133.587 179.993L171 219.376L208.413 179.993L171 140.609L133.587 179.993Z" fill="url(#paint7_linear_157_304)"/>
<path d="M167.42 223.837C167.399 223.837 167.377 223.835 167.355 223.833C167.164 223.816 166.991 223.721 166.867 223.566L129.518 176.71C129.263 176.389 129.303 175.91 129.607 175.642L174.118 136.326C174.266 136.195 174.457 136.134 174.644 136.151C174.835 136.169 175.009 136.264 175.132 136.419L212.482 183.275C212.737 183.594 212.697 184.073 212.394 184.341L167.881 223.659C167.751 223.775 167.589 223.837 167.42 223.837ZM130.428 176.256L167.45 222.7L211.57 183.729L174.549 137.284L130.428 176.256Z" fill="url(#paint8_linear_157_304)"/>
<path d="M163.247 227.069C163.204 227.069 163.16 227.065 163.116 227.057C162.922 227.021 162.752 226.907 162.639 226.737L126.413 172.275C126.3 172.106 126.256 171.899 126.29 171.694C126.325 171.489 126.433 171.311 126.594 171.192L178.331 133.057C178.493 132.938 178.689 132.892 178.884 132.928C179.079 132.964 179.248 133.078 179.361 133.248L215.588 187.71C215.701 187.88 215.744 188.087 215.71 188.292C215.675 188.497 215.567 188.675 215.405 188.795L163.67 226.929C163.544 227.021 163.397 227.069 163.247 227.069ZM127.345 171.89L163.303 225.946L214.654 188.095L178.697 134.039L127.345 171.89Z" fill="url(#paint9_linear_157_304)"/>
<path d="M158.438 230.153C158.372 230.153 158.305 230.144 158.24 230.125C158.043 230.07 157.879 229.938 157.777 229.752L123.452 167.167C123.242 166.784 123.367 166.293 123.731 166.072L183.184 129.939C183.36 129.832 183.567 129.804 183.762 129.859C183.958 129.914 184.122 130.047 184.224 130.233L218.549 192.817C218.759 193.2 218.634 193.692 218.271 193.912L158.817 230.046C158.7 230.117 158.57 230.153 158.438 230.153ZM124.402 166.849L158.515 229.045L217.599 193.136L183.487 130.94L124.402 166.849Z" fill="url(#paint10_linear_157_304)"/>
<path d="M152.954 233.014C152.863 233.014 152.772 232.997 152.685 232.963C152.488 232.888 152.33 232.736 152.242 232.535L120.706 161.344C120.523 160.931 120.694 160.438 121.085 160.246L188.715 127.049C188.906 126.955 189.119 126.946 189.315 127.022C189.513 127.097 189.67 127.25 189.758 127.45L221.294 198.64C221.477 199.054 221.306 199.546 220.914 199.739L153.286 232.936C153.18 232.987 153.067 233.014 152.954 233.014ZM121.669 161.092L153.045 231.922L220.331 198.893L188.955 128.063L121.669 161.092Z" fill="url(#paint11_linear_157_304)"/>
<path d="M146.761 235.564C146.644 235.564 146.528 235.537 146.419 235.484C146.223 235.387 146.073 235.216 145.999 235.001L118.259 154.77C118.185 154.556 118.194 154.324 118.285 154.117C118.377 153.91 118.539 153.753 118.743 153.675L194.961 124.473C195.164 124.396 195.384 124.405 195.581 124.502C195.778 124.598 195.927 124.769 196.001 124.984L223.742 205.216C223.894 205.658 223.677 206.148 223.257 206.31L147.039 235.512C146.949 235.547 146.855 235.564 146.761 235.564ZM119.23 154.58L146.859 234.489L222.77 205.404L195.141 125.496L119.23 154.58Z" fill="url(#paint12_linear_157_304)"/>
<path d="M139.83 237.708C139.46 237.708 139.12 237.447 139.019 237.053L116.201 147.409C116.081 146.938 116.348 146.453 116.795 146.327L201.953 122.307C202.17 122.246 202.395 122.277 202.59 122.395C202.784 122.513 202.923 122.704 202.981 122.932L225.799 212.575C225.919 213.046 225.652 213.531 225.206 213.657L140.047 237.677C139.974 237.698 139.902 237.708 139.83 237.708ZM117.177 147.281L139.925 236.65L224.823 212.704L202.074 123.335L117.177 147.281Z" fill="url(#paint13_linear_157_304)"/>
<path d="M132.133 239.338C131.719 239.338 131.351 239.025 131.277 238.582L114.637 139.238C114.553 138.742 114.869 138.265 115.342 138.178L209.715 120.661C210.188 120.572 210.639 120.906 210.723 121.403L227.363 220.747C227.403 220.987 227.352 221.231 227.219 221.431C227.086 221.632 226.886 221.765 226.657 221.808L132.285 239.324C132.234 239.334 132.183 239.338 132.133 239.338ZM115.615 139.169L132.219 238.295L226.385 220.816L209.781 121.69L115.615 139.169Z" fill="url(#paint14_linear_157_304)"/>
<path d="M123.654 240.337C123.443 240.337 123.24 240.259 123.076 240.114C122.891 239.951 122.777 239.721 122.756 239.468L113.678 130.239C113.635 129.716 114.003 129.254 114.499 129.208L218.264 119.652C218.504 119.631 218.738 119.707 218.924 119.871C219.109 120.034 219.222 120.263 219.243 120.517L228.321 229.746C228.365 230.269 227.996 230.731 227.5 230.777L123.735 240.333C123.708 240.336 123.681 240.337 123.654 240.337ZM218.279 120.68L114.584 130.231L123.727 239.379L227.416 229.754L218.279 120.68Z" fill="url(#paint15_linear_157_304)"/>
<path d="M227.609 240.572L114.39 240.572C113.872 240.572 113.451 240.129 113.451 239.583L113.451 120.402C113.451 119.856 113.872 119.413 114.39 119.413H227.609C228.127 119.413 228.549 119.856 228.549 120.402L228.549 239.583C228.548 240.129 228.127 240.572 227.609 240.572ZM114.39 120.438L114.425 239.583L227.609 239.547L227.574 120.438L114.39 120.438Z" fill="url(#paint16_linear_157_304)"/>
<path d="M226.936 251.194C226.907 251.194 226.878 251.193 226.849 251.19L104.255 239.9C103.717 239.85 103.318 239.35 103.365 238.784L114.09 109.731C114.137 109.165 114.616 108.745 115.151 108.795L237.746 120.085C238.283 120.135 238.683 120.636 238.636 121.201L227.91 250.254C227.865 250.79 227.437 251.194 226.936 251.194ZM115.066 109.817L104.335 238.873L226.934 250.169L237.665 121.112C237.665 121.109 237.663 121.108 237.661 121.107L115.066 109.817Z" fill="url(#paint17_linear_157_304)"/>
<path d="M225.255 262.63C225.195 262.63 225.135 262.624 225.075 262.613L93.3422 238.161C93.0734 238.112 92.8393 237.954 92.6824 237.719C92.5264 237.484 92.4662 237.198 92.5138 236.915L115.742 98.2446C115.839 97.6607 116.37 97.2676 116.925 97.3722L248.658 121.824C248.927 121.873 249.161 122.031 249.318 122.266C249.474 122.501 249.534 122.787 249.487 123.07L226.259 261.741C226.211 262.023 226.063 262.27 225.839 262.435C225.665 262.563 225.462 262.63 225.255 262.63ZM116.756 98.3824L93.4735 237.094L225.244 261.603L248.527 122.891C248.53 122.868 248.51 122.838 248.489 122.834L116.756 98.3824Z" fill="url(#paint18_linear_157_304)"/>
<path d="M222.407 274.844C222.315 274.844 222.221 274.831 222.129 274.805L81.6867 235.191C81.4111 235.114 81.1808 234.928 81.0381 234.668C80.8953 234.408 80.858 234.105 80.9315 233.815L118.563 85.9752C118.637 85.6854 118.813 85.443 119.06 85.2927C119.308 85.1424 119.597 85.1032 119.87 85.1801L260.314 124.794C260.589 124.872 260.82 125.058 260.962 125.318C261.105 125.578 261.142 125.881 261.069 126.171L223.438 274.01C223.364 274.3 223.187 274.543 222.94 274.693C222.775 274.793 222.592 274.844 222.407 274.844ZM119.601 86.1687C119.561 86.1687 119.515 86.2012 119.505 86.24L81.8733 234.08C81.8615 234.125 81.8965 234.189 81.9391 234.201L222.382 273.814C222.426 273.825 222.485 273.789 222.496 273.745L260.127 125.905C260.139 125.86 260.104 125.796 260.061 125.784L119.618 86.1711C119.613 86.1695 119.607 86.1687 119.601 86.1687Z" fill="url(#paint19_linear_157_304)"/>
<path d="M218.226 287.785C218.1 287.785 217.971 287.762 217.846 287.714L69.3368 230.814C68.7574 230.592 68.4574 229.916 68.6683 229.305L122.721 72.974C122.823 72.6787 123.029 72.4426 123.3 72.3096C123.57 72.1766 123.874 72.1629 124.155 72.2703L272.663 129.171C273.243 129.393 273.543 130.07 273.332 130.68L219.279 287.011C219.114 287.488 218.684 287.785 218.226 287.785ZM123.784 73.2285C123.725 73.2285 123.656 73.2701 123.637 73.325L69.5839 229.656C69.5568 229.734 69.5953 229.822 69.6699 229.851L218.179 286.75C218.255 286.78 218.337 286.738 218.363 286.66L272.416 130.329C272.443 130.25 272.405 130.163 272.33 130.134L123.821 73.2349C123.81 73.2305 123.797 73.2285 123.784 73.2285Z" fill="url(#paint20_linear_157_304)"/>
<path d="M212.543 301.383C212.377 301.383 212.209 301.345 212.049 301.267L56.361 224.845C55.7751 224.557 55.5205 223.821 55.793 223.204L128.392 59.3157C128.665 58.6985 129.364 58.4296 129.951 58.7178L285.639 135.14C285.923 135.279 286.138 135.527 286.246 135.837C286.353 136.147 286.339 136.482 286.207 136.782L213.608 300.669C213.41 301.118 212.985 301.383 212.543 301.383ZM129.456 59.6282C129.38 59.6282 129.309 59.6731 129.275 59.7492L56.6762 223.637C56.6305 223.741 56.6735 223.866 56.7729 223.915L212.461 300.337C212.559 300.386 212.679 300.341 212.725 300.236L285.323 136.348C285.363 136.258 285.312 136.111 285.227 136.069L129.539 59.647C129.512 59.6346 129.484 59.6282 129.456 59.6282Z" fill="url(#paint21_linear_157_304)"/>
<path d="M205.17 315.54C204.956 315.54 204.746 315.481 204.555 315.366L42.8512 217.089C42.2622 216.731 42.0601 215.935 42.4004 215.315L135.76 45.0943C135.924 44.7941 136.191 44.5794 136.509 44.4896C136.826 44.3994 137.158 44.4455 137.444 44.619L299.148 142.896C299.434 143.07 299.638 143.349 299.723 143.684C299.808 144.02 299.764 144.369 299.6 144.669L206.24 314.891C206.075 315.191 205.809 315.406 205.492 315.495C205.385 315.525 205.277 315.54 205.17 315.54ZM136.847 45.4798C136.752 45.4798 136.647 45.5287 136.604 45.6068L43.244 215.828C43.1728 215.959 43.2151 216.125 43.3384 216.2L205.043 314.478C205.102 314.514 205.173 314.524 205.239 314.505C205.305 314.486 205.361 314.441 205.396 314.379L298.756 144.157C298.791 144.094 298.799 144.02 298.782 143.951C298.764 143.88 298.721 143.822 298.661 143.785L136.957 45.5074C136.926 45.4886 136.887 45.4798 136.847 45.4798Z" fill="url(#paint22_linear_157_304)"/>
<path d="M195.918 330.135C195.654 330.135 195.397 330.05 195.176 329.887L28.9238 207.345C28.6398 207.135 28.4506 206.822 28.3901 206.463C28.3299 206.103 28.4061 205.741 28.6052 205.442L145.016 30.4329C145.215 30.134 145.513 29.9344 145.854 29.8711C146.194 29.8078 146.54 29.8879 146.824 30.0975L313.076 152.64C313.36 152.849 313.549 153.162 313.61 153.522C313.67 153.881 313.594 154.244 313.394 154.543L196.984 329.552C196.785 329.851 196.487 330.05 196.146 330.114C196.07 330.128 195.994 330.135 195.918 330.135ZM146.08 30.8765C146.062 30.8765 146.042 30.8785 146.023 30.8817C145.938 30.8974 145.864 30.9471 145.815 31.0216L29.4034 206.03C29.3536 206.105 29.3349 206.195 29.3498 206.284C29.3646 206.374 29.4122 206.452 29.483 206.504L195.735 329.047C195.805 329.098 195.891 329.118 195.977 329.103C196.061 329.087 196.136 329.038 196.185 328.963L312.596 153.954C312.646 153.879 312.665 153.789 312.65 153.7C312.635 153.61 312.587 153.532 312.517 153.48L146.264 30.9382C146.21 30.8978 146.146 30.8765 146.08 30.8765Z" fill="url(#paint23_linear_157_304)"/>
<path d="M184.593 345.016C184.272 345.016 183.965 344.898 183.716 344.678L14.7222 195.408C14.1443 194.897 14.0689 193.987 14.5539 193.379L156.356 15.4843C156.842 14.8759 157.706 14.7954 158.284 15.3067L327.278 164.578C327.855 165.088 327.931 165.998 327.446 166.607L185.644 344.501C185.409 344.796 185.079 344.976 184.715 345.01C184.674 345.014 184.633 345.016 184.593 345.016ZM157.404 15.9956C157.292 15.9956 157.18 16.0461 157.103 16.1434L15.3004 194.038C15.1611 194.213 15.1824 194.475 15.3492 194.622L184.343 343.892C184.423 343.963 184.52 343.996 184.63 343.988C184.735 343.978 184.829 343.926 184.897 343.841L326.699 165.947C326.839 165.772 326.817 165.51 326.651 165.363L157.657 16.0926C157.584 16.0276 157.494 15.9956 157.404 15.9956Z" fill="url(#paint24_linear_157_304)"/>
<path d="M171 360C170.614 360 170.251 359.842 169.978 359.554L0.42255 181.068C-0.14085 180.475 -0.14085 179.51 0.42255 178.917L169.978 0.430983C170.524 -0.143658 171.476 -0.143663 172.022 0.430979L341.577 178.917C342.141 179.51 342.141 180.475 341.577 181.068L172.022 359.554C171.749 359.842 171.386 360 171 360ZM171 1.01123C170.874 1.01123 170.756 1.06253 170.667 1.1563L1.11195 179.642C1.02288 179.736 0.97415 179.86 0.97415 179.992C0.97415 180.125 1.02326 180.249 1.11195 180.343L170.668 358.829C170.845 359.016 171.155 359.016 171.333 358.829L340.888 180.343C340.977 180.249 341.026 180.125 341.026 179.993C341.026 179.86 340.977 179.736 340.888 179.642L171.333 1.15629C171.244 1.06252 171.126 1.01123 171 1.01123Z" fill="url(#paint25_linear_157_304)"/>
<defs>
<linearGradient id="paint0_linear_157_304" x1="171" y1="0" x2="171" y2="360" gradientUnits="userSpaceOnUse">
<stop stop-color="#ECF1FF"/>
<stop offset="1" stop-color="#5B8FBC"/>
</linearGradient>
<linearGradient id="paint1_linear_157_304" x1="171" y1="0" x2="171" y2="360" gradientUnits="userSpaceOnUse">
<stop stop-color="#ECF1FF"/>
<stop offset="1" stop-color="#5B8FBC"/>
</linearGradient>
<linearGradient id="paint2_linear_157_304" x1="171" y1="0" x2="171" y2="360" gradientUnits="userSpaceOnUse">
<stop stop-color="#ECF1FF"/>
<stop offset="1" stop-color="#5B8FBC"/>
</linearGradient>
<linearGradient id="paint3_linear_157_304" x1="171" y1="0" x2="171" y2="360" gradientUnits="userSpaceOnUse">
<stop stop-color="#ECF1FF"/>
<stop offset="1" stop-color="#5B8FBC"/>
</linearGradient>
<linearGradient id="paint4_linear_157_304" x1="171" y1="0" x2="171" y2="360" gradientUnits="userSpaceOnUse">
<stop stop-color="#ECF1FF"/>
<stop offset="1" stop-color="#5B8FBC"/>
</linearGradient>
<linearGradient id="paint5_linear_157_304" x1="171" y1="0" x2="171" y2="360" gradientUnits="userSpaceOnUse">
<stop stop-color="#ECF1FF"/>
<stop offset="1" stop-color="#5B8FBC"/>
</linearGradient>
<linearGradient id="paint6_linear_157_304" x1="171" y1="0" x2="171" y2="360" gradientUnits="userSpaceOnUse">
<stop stop-color="#ECF1FF"/>
<stop offset="1" stop-color="#5B8FBC"/>
</linearGradient>
<linearGradient id="paint7_linear_157_304" x1="171" y1="0" x2="171" y2="360" gradientUnits="userSpaceOnUse">
<stop stop-color="#ECF1FF"/>
<stop offset="1" stop-color="#5B8FBC"/>
</linearGradient>
<linearGradient id="paint8_linear_157_304" x1="171" y1="0" x2="171" y2="360" gradientUnits="userSpaceOnUse">
<stop stop-color="#ECF1FF"/>
<stop offset="1" stop-color="#5B8FBC"/>
</linearGradient>
<linearGradient id="paint9_linear_157_304" x1="171" y1="0" x2="171" y2="360" gradientUnits="userSpaceOnUse">
<stop stop-color="#ECF1FF"/>
<stop offset="1" stop-color="#5B8FBC"/>
</linearGradient>
<linearGradient id="paint10_linear_157_304" x1="171" y1="0" x2="171" y2="360" gradientUnits="userSpaceOnUse">
<stop stop-color="#ECF1FF"/>
<stop offset="1" stop-color="#5B8FBC"/>
</linearGradient>
<linearGradient id="paint11_linear_157_304" x1="171" y1="0" x2="171" y2="360" gradientUnits="userSpaceOnUse">
<stop stop-color="#ECF1FF"/>
<stop offset="1" stop-color="#5B8FBC"/>
</linearGradient>
<linearGradient id="paint12_linear_157_304" x1="171" y1="0" x2="171" y2="360" gradientUnits="userSpaceOnUse">
<stop stop-color="#ECF1FF"/>
<stop offset="1" stop-color="#5B8FBC"/>
</linearGradient>
<linearGradient id="paint13_linear_157_304" x1="171" y1="0" x2="171" y2="360" gradientUnits="userSpaceOnUse">
<stop stop-color="#ECF1FF"/>
<stop offset="1" stop-color="#5B8FBC"/>
</linearGradient>
<linearGradient id="paint14_linear_157_304" x1="171" y1="0" x2="171" y2="360" gradientUnits="userSpaceOnUse">
<stop stop-color="#ECF1FF"/>
<stop offset="1" stop-color="#5B8FBC"/>
</linearGradient>
<linearGradient id="paint15_linear_157_304" x1="171" y1="0" x2="171" y2="360" gradientUnits="userSpaceOnUse">
<stop stop-color="#ECF1FF"/>
<stop offset="1" stop-color="#5B8FBC"/>
</linearGradient>
<linearGradient id="paint16_linear_157_304" x1="171" y1="0" x2="171" y2="360" gradientUnits="userSpaceOnUse">
<stop stop-color="#ECF1FF"/>
<stop offset="1" stop-color="#5B8FBC"/>
</linearGradient>
<linearGradient id="paint17_linear_157_304" x1="171" y1="0" x2="171" y2="360" gradientUnits="userSpaceOnUse">
<stop stop-color="#ECF1FF"/>
<stop offset="1" stop-color="#5B8FBC"/>
</linearGradient>
<linearGradient id="paint18_linear_157_304" x1="171" y1="0" x2="171" y2="360" gradientUnits="userSpaceOnUse">
<stop stop-color="#ECF1FF"/>
<stop offset="1" stop-color="#5B8FBC"/>
</linearGradient>
<linearGradient id="paint19_linear_157_304" x1="171" y1="0" x2="171" y2="360" gradientUnits="userSpaceOnUse">
<stop stop-color="#ECF1FF"/>
<stop offset="1" stop-color="#5B8FBC"/>
</linearGradient>
<linearGradient id="paint20_linear_157_304" x1="171" y1="0" x2="171" y2="360" gradientUnits="userSpaceOnUse">
<stop stop-color="#ECF1FF"/>
<stop offset="1" stop-color="#5B8FBC"/>
</linearGradient>
<linearGradient id="paint21_linear_157_304" x1="171" y1="0" x2="171" y2="360" gradientUnits="userSpaceOnUse">
<stop stop-color="#ECF1FF"/>
<stop offset="1" stop-color="#5B8FBC"/>
</linearGradient>
<linearGradient id="paint22_linear_157_304" x1="171" y1="0" x2="171" y2="360" gradientUnits="userSpaceOnUse">
<stop stop-color="#ECF1FF"/>
<stop offset="1" stop-color="#5B8FBC"/>
</linearGradient>
<linearGradient id="paint23_linear_157_304" x1="171" y1="0" x2="171" y2="360" gradientUnits="userSpaceOnUse">
<stop stop-color="#ECF1FF"/>
<stop offset="1" stop-color="#5B8FBC"/>
</linearGradient>
<linearGradient id="paint24_linear_157_304" x1="171" y1="0" x2="171" y2="360" gradientUnits="userSpaceOnUse">
<stop stop-color="#ECF1FF"/>
<stop offset="1" stop-color="#5B8FBC"/>
</linearGradient>
<linearGradient id="paint25_linear_157_304" x1="171" y1="0" x2="171" y2="360" gradientUnits="userSpaceOnUse">
<stop stop-color="#ECF1FF"/>
<stop offset="1" stop-color="#5B8FBC"/>
</linearGradient>
</defs>
</svg>
