<svg width="352" height="304" viewBox="0 0 352 304" fill="none" xmlns="http://www.w3.org/2000/svg">
<path d="M150.909 134.269L204.24 141.222L198.022 197.99L150.909 134.269ZM203.284 141.972L152.82 135.394L197.401 195.689L203.284 141.972Z" fill="url(#paint0_linear_157_443)"/>
<path d="M150.014 132.647L206.377 141.81L197.671 200.6L150.014 132.647ZM205.393 142.529L151.907 133.833L197.131 198.318L205.393 142.529Z" fill="url(#paint1_linear_157_443)"/>
<path d="M149.122 130.927L208.627 142.5L197.203 203.304L149.122 130.927ZM207.615 143.187L150.994 132.175L196.744 201.044L207.615 143.187Z" fill="url(#paint2_linear_157_443)"/>
<path d="M148.238 129.105L210.993 143.298L196.608 206.103L148.238 129.105ZM209.953 143.952L150.084 130.413L196.229 203.868L209.953 143.952Z" fill="url(#paint3_linear_157_443)"/>
<path d="M147.366 127.179L213.481 144.214L195.874 208.996L147.366 127.179ZM212.412 144.835L149.185 128.543L195.575 206.788L212.412 144.835Z" fill="url(#paint4_linear_157_443)"/>
<path d="M146.51 125.143L216.09 145.258L194.99 211.982L146.51 125.143ZM214.994 145.844L148.298 126.564L194.768 209.804L214.994 145.844Z" fill="url(#paint5_linear_157_443)"/>
<path d="M145.675 122.995L218.824 146.438L193.94 215.059L145.675 122.995ZM217.701 146.989L147.427 124.468L193.795 212.913L217.701 146.989Z" fill="url(#paint6_linear_157_443)"/>
<path d="M144.866 120.73L221.687 147.766L192.712 218.225L144.866 120.73ZM220.537 148.281L146.581 122.254L192.643 216.113L220.537 148.281Z" fill="url(#paint7_linear_157_443)"/>
<path d="M144.089 118.344L224.683 149.251L191.292 221.478L144.089 118.344ZM223.505 149.729L145.763 119.916L191.296 219.401L223.505 149.729Z" fill="url(#paint8_linear_157_443)"/>
<path d="M143.352 115.834L227.811 150.906L189.664 224.814L143.352 115.834ZM226.607 151.345L144.982 117.451L189.74 222.773L226.607 151.345Z" fill="url(#paint9_linear_157_443)"/>
<path d="M142.659 113.195L231.073 152.74L187.81 228.229L142.659 113.195ZM229.843 153.141L144.243 114.855L187.957 226.227L229.843 153.141Z" fill="url(#paint10_linear_157_443)"/>
<path d="M142.021 110.425L234.476 154.769L185.716 231.718L185.416 230.884L142.021 110.425ZM233.22 155.129L143.555 112.124L185.932 229.755L233.22 155.129Z" fill="url(#paint11_linear_157_443)"/>
<path d="M141.446 107.519L238.019 157.003L183.365 235.276L141.446 107.519ZM236.738 157.322L142.929 109.254L183.648 233.354L236.738 157.322Z" fill="url(#paint12_linear_157_443)"/>
<path d="M140.94 104.474L241.701 159.458L241.392 159.86L180.733 238.896L140.94 104.474ZM240.395 159.734L142.369 106.243L181.081 237.016L240.395 159.734Z" fill="url(#paint13_linear_157_443)"/>
<path d="M140.512 101.288L245.523 162.146L177.8 242.57L140.512 101.288ZM244.193 162.378L141.884 103.086L178.213 240.733L244.193 162.378Z" fill="url(#paint14_linear_157_443)"/>
<path d="M140.175 97.9556L249.487 165.082L174.55 246.291L174.364 245.491L140.175 97.9556ZM248.133 165.27L141.489 99.7813L175.025 244.496L248.133 165.27Z" fill="url(#paint15_linear_157_443)"/>
<path d="M139.94 94.4756L253.593 168.283L170.958 250.047L139.94 94.4756ZM252.216 168.424L141.194 96.3251L171.494 248.296L252.216 168.424Z" fill="url(#paint16_linear_157_443)"/>
<path d="M139.819 90.8458L257.841 171.763L167.003 253.83L139.819 90.8458ZM256.442 171.856L141.011 92.7155L167.599 252.122L256.442 171.856Z" fill="url(#paint17_linear_157_443)"/>
<path d="M139.82 87.063L262.224 175.54L162.656 257.625L139.82 87.063ZM260.804 175.584L140.949 88.95L163.309 255.961L260.804 175.584Z" fill="url(#paint18_linear_157_443)"/>
<path d="M139.963 83.1267L266.745 179.629L157.898 261.42L139.963 83.1267ZM265.307 179.625L141.027 85.0272L158.607 259.801L265.307 179.625Z" fill="url(#paint19_linear_157_443)"/>
<path d="M140.258 79.0338L271.399 184.05L152.697 265.199L140.258 79.0338ZM269.942 183.995L141.255 80.9454L153.462 263.625L269.942 183.995Z" fill="url(#paint20_linear_157_443)"/>
<path d="M140.72 74.7851L276.181 188.821L147.029 268.947L147.005 268.196L140.72 74.7851ZM274.707 188.714L141.651 76.7034L147.849 267.417L274.707 188.714Z" fill="url(#paint21_linear_157_443)"/>
<path d="M141.371 70.3794L281.092 193.961L140.869 272.644L141.371 70.3794ZM279.601 193.802L142.234 72.3016L141.74 271.159L279.601 193.802Z" fill="url(#paint22_linear_157_443)"/>
<path d="M142.222 65.8171L286.119 199.489L134.18 276.271L134.208 275.534L142.222 65.8171ZM284.615 199.276L143.017 67.7402L135.104 274.831L284.615 199.276Z" fill="url(#paint23_linear_157_443)"/>
<path d="M143.296 61.0982L291.259 205.426L126.937 279.805L143.296 61.0982ZM289.743 205.159L144.023 63.0197L127.912 278.411L289.743 205.159Z" fill="url(#paint24_linear_157_443)"/>
<path d="M144.611 56.2252L296.504 211.791L119.107 283.222L119.188 282.499L144.611 56.2252ZM294.977 211.47L145.269 58.1415L120.132 281.874L294.977 211.47Z" fill="url(#paint25_linear_157_443)"/>
<path d="M146.187 51.2002L301.842 218.607L110.655 286.497L146.187 51.2002ZM300.307 218.231L146.778 53.1086L111.73 285.194L300.307 218.231Z" fill="url(#paint26_linear_157_443)"/>
<path d="M148.048 46.0258L307.264 225.897L101.548 289.601L101.684 288.892L148.048 46.0258ZM305.722 225.465L148.569 47.9247L102.671 288.345L305.722 225.465Z" fill="url(#paint27_linear_157_443)"/>
<path d="M150.215 40.7066L312.757 233.681L91.7511 292.504L91.9149 291.8L150.215 40.7066ZM311.212 233.194L150.669 42.5925L92.9235 291.293L311.212 233.194Z" fill="url(#paint28_linear_157_443)"/>
<path d="M152.717 35.2478L153.248 35.9118L318.309 241.983L81.23 295.17L152.717 35.2478ZM316.763 241.44L153.102 37.1187L82.4503 294.007L316.763 241.44Z" fill="url(#paint29_linear_157_443)"/>
<path d="M155.575 29.6554L323.904 250.826L69.9451 297.565L70.1659 296.875L155.575 29.6554ZM322.357 250.228L155.895 31.5085L71.2133 296.449L322.357 250.228Z" fill="url(#paint30_linear_157_443)"/>
<path d="M158.821 23.9373L329.524 260.234L57.86 299.65L158.821 23.9373ZM327.98 259.581L159.075 25.7706L59.176 298.582L327.98 259.581Z" fill="url(#paint31_linear_157_443)"/>
<path d="M162.48 18.1016L335.146 270.231L334.424 270.309L44.9325 301.383L45.2125 300.707L162.48 18.1016ZM333.609 269.523L162.669 19.9128L46.2948 300.363L333.609 269.523Z" fill="url(#paint32_linear_157_443)"/>
<path d="M166.585 12.1588L340.753 280.841L31.124 302.718L166.585 12.1588ZM339.224 280.079L166.709 13.9467L32.5341 301.748L339.224 280.079Z" fill="url(#paint33_linear_157_443)"/>
<path d="M171.17 6.12035L346.323 292.09L16.3975 303.608L171.17 6.12035ZM344.805 291.274L171.232 7.88365L17.8539 302.688L344.805 291.274Z" fill="url(#paint34_linear_157_443)"/>
<path d="M176.265 1.67631e-05L351.825 304L0.7052 304L176.265 1.67631e-05ZM350.321 303.132L176.265 1.73604L2.20908 303.132L350.321 303.132Z" fill="url(#paint35_linear_157_443)"/>
<defs>
<linearGradient id="paint0_linear_157_443" x1="177.574" y1="197.99" x2="177.574" y2="134.269" gradientUnits="userSpaceOnUse">
<stop stop-color="#ECF1FF"/>
<stop offset="1" stop-color="#5B8FBC"/>
</linearGradient>
<linearGradient id="paint1_linear_157_443" x1="178.196" y1="200.6" x2="178.196" y2="132.647" gradientUnits="userSpaceOnUse">
<stop stop-color="#ECF1FF"/>
<stop offset="1" stop-color="#5B8FBC"/>
</linearGradient>
<linearGradient id="paint2_linear_157_443" x1="178.875" y1="203.304" x2="178.875" y2="130.927" gradientUnits="userSpaceOnUse">
<stop stop-color="#ECF1FF"/>
<stop offset="1" stop-color="#5B8FBC"/>
</linearGradient>
<linearGradient id="paint3_linear_157_443" x1="179.616" y1="206.103" x2="179.616" y2="129.105" gradientUnits="userSpaceOnUse">
<stop stop-color="#ECF1FF"/>
<stop offset="1" stop-color="#5B8FBC"/>
</linearGradient>
<linearGradient id="paint4_linear_157_443" x1="180.423" y1="208.996" x2="180.423" y2="127.179" gradientUnits="userSpaceOnUse">
<stop stop-color="#ECF1FF"/>
<stop offset="1" stop-color="#5B8FBC"/>
</linearGradient>
<linearGradient id="paint5_linear_157_443" x1="181.3" y1="211.982" x2="181.3" y2="125.143" gradientUnits="userSpaceOnUse">
<stop stop-color="#ECF1FF"/>
<stop offset="1" stop-color="#5B8FBC"/>
</linearGradient>
<linearGradient id="paint6_linear_157_443" x1="182.249" y1="215.059" x2="182.249" y2="122.995" gradientUnits="userSpaceOnUse">
<stop stop-color="#ECF1FF"/>
<stop offset="1" stop-color="#5B8FBC"/>
</linearGradient>
<linearGradient id="paint7_linear_157_443" x1="183.277" y1="218.225" x2="183.277" y2="120.73" gradientUnits="userSpaceOnUse">
<stop stop-color="#ECF1FF"/>
<stop offset="1" stop-color="#5B8FBC"/>
</linearGradient>
<linearGradient id="paint8_linear_157_443" x1="184.386" y1="221.478" x2="184.386" y2="118.344" gradientUnits="userSpaceOnUse">
<stop stop-color="#ECF1FF"/>
<stop offset="1" stop-color="#5B8FBC"/>
</linearGradient>
<linearGradient id="paint9_linear_157_443" x1="185.581" y1="224.814" x2="185.581" y2="115.834" gradientUnits="userSpaceOnUse">
<stop stop-color="#ECF1FF"/>
<stop offset="1" stop-color="#5B8FBC"/>
</linearGradient>
<linearGradient id="paint10_linear_157_443" x1="186.866" y1="228.229" x2="186.866" y2="113.195" gradientUnits="userSpaceOnUse">
<stop stop-color="#ECF1FF"/>
<stop offset="1" stop-color="#5B8FBC"/>
</linearGradient>
<linearGradient id="paint11_linear_157_443" x1="188.248" y1="231.718" x2="188.248" y2="110.425" gradientUnits="userSpaceOnUse">
<stop stop-color="#ECF1FF"/>
<stop offset="1" stop-color="#5B8FBC"/>
</linearGradient>
<linearGradient id="paint12_linear_157_443" x1="189.733" y1="235.276" x2="189.733" y2="107.519" gradientUnits="userSpaceOnUse">
<stop stop-color="#ECF1FF"/>
<stop offset="1" stop-color="#5B8FBC"/>
</linearGradient>
<linearGradient id="paint13_linear_157_443" x1="191.321" y1="238.896" x2="191.321" y2="104.474" gradientUnits="userSpaceOnUse">
<stop stop-color="#ECF1FF"/>
<stop offset="1" stop-color="#5B8FBC"/>
</linearGradient>
<linearGradient id="paint14_linear_157_443" x1="193.018" y1="242.57" x2="193.018" y2="101.288" gradientUnits="userSpaceOnUse">
<stop stop-color="#ECF1FF"/>
<stop offset="1" stop-color="#5B8FBC"/>
</linearGradient>
<linearGradient id="paint15_linear_157_443" x1="194.831" y1="246.291" x2="194.831" y2="97.9556" gradientUnits="userSpaceOnUse">
<stop stop-color="#ECF1FF"/>
<stop offset="1" stop-color="#5B8FBC"/>
</linearGradient>
<linearGradient id="paint16_linear_157_443" x1="196.766" y1="250.047" x2="196.766" y2="94.4756" gradientUnits="userSpaceOnUse">
<stop stop-color="#ECF1FF"/>
<stop offset="1" stop-color="#5B8FBC"/>
</linearGradient>
<linearGradient id="paint17_linear_157_443" x1="198.83" y1="253.83" x2="198.83" y2="90.8458" gradientUnits="userSpaceOnUse">
<stop stop-color="#ECF1FF"/>
<stop offset="1" stop-color="#5B8FBC"/>
</linearGradient>
<linearGradient id="paint18_linear_157_443" x1="201.022" y1="257.625" x2="201.022" y2="87.063" gradientUnits="userSpaceOnUse">
<stop stop-color="#ECF1FF"/>
<stop offset="1" stop-color="#5B8FBC"/>
</linearGradient>
<linearGradient id="paint19_linear_157_443" x1="203.354" y1="261.42" x2="203.354" y2="83.1267" gradientUnits="userSpaceOnUse">
<stop stop-color="#ECF1FF"/>
<stop offset="1" stop-color="#5B8FBC"/>
</linearGradient>
<linearGradient id="paint20_linear_157_443" x1="205.829" y1="265.199" x2="205.829" y2="79.0338" gradientUnits="userSpaceOnUse">
<stop stop-color="#ECF1FF"/>
<stop offset="1" stop-color="#5B8FBC"/>
</linearGradient>
<linearGradient id="paint21_linear_157_443" x1="208.451" y1="268.947" x2="208.451" y2="74.7851" gradientUnits="userSpaceOnUse">
<stop stop-color="#ECF1FF"/>
<stop offset="1" stop-color="#5B8FBC"/>
</linearGradient>
<linearGradient id="paint22_linear_157_443" x1="210.98" y1="272.644" x2="210.98" y2="70.3794" gradientUnits="userSpaceOnUse">
<stop stop-color="#ECF1FF"/>
<stop offset="1" stop-color="#5B8FBC"/>
</linearGradient>
<linearGradient id="paint23_linear_157_443" x1="210.149" y1="276.271" x2="210.149" y2="65.8171" gradientUnits="userSpaceOnUse">
<stop stop-color="#ECF1FF"/>
<stop offset="1" stop-color="#5B8FBC"/>
</linearGradient>
<linearGradient id="paint24_linear_157_443" x1="209.098" y1="279.805" x2="209.098" y2="61.0982" gradientUnits="userSpaceOnUse">
<stop stop-color="#ECF1FF"/>
<stop offset="1" stop-color="#5B8FBC"/>
</linearGradient>
<linearGradient id="paint25_linear_157_443" x1="207.805" y1="283.222" x2="207.805" y2="56.2252" gradientUnits="userSpaceOnUse">
<stop stop-color="#ECF1FF"/>
<stop offset="1" stop-color="#5B8FBC"/>
</linearGradient>
<linearGradient id="paint26_linear_157_443" x1="206.248" y1="286.497" x2="206.248" y2="51.2002" gradientUnits="userSpaceOnUse">
<stop stop-color="#ECF1FF"/>
<stop offset="1" stop-color="#5B8FBC"/>
</linearGradient>
<linearGradient id="paint27_linear_157_443" x1="204.406" y1="289.601" x2="204.406" y2="46.0258" gradientUnits="userSpaceOnUse">
<stop stop-color="#ECF1FF"/>
<stop offset="1" stop-color="#5B8FBC"/>
</linearGradient>
<linearGradient id="paint28_linear_157_443" x1="202.254" y1="292.504" x2="202.254" y2="40.7066" gradientUnits="userSpaceOnUse">
<stop stop-color="#ECF1FF"/>
<stop offset="1" stop-color="#5B8FBC"/>
</linearGradient>
<linearGradient id="paint29_linear_157_443" x1="199.77" y1="295.17" x2="199.77" y2="35.2478" gradientUnits="userSpaceOnUse">
<stop stop-color="#ECF1FF"/>
<stop offset="1" stop-color="#5B8FBC"/>
</linearGradient>
<linearGradient id="paint30_linear_157_443" x1="196.924" y1="297.565" x2="196.925" y2="29.6554" gradientUnits="userSpaceOnUse">
<stop stop-color="#ECF1FF"/>
<stop offset="1" stop-color="#5B8FBC"/>
</linearGradient>
<linearGradient id="paint31_linear_157_443" x1="193.692" y1="299.65" x2="193.692" y2="23.9373" gradientUnits="userSpaceOnUse">
<stop stop-color="#ECF1FF"/>
<stop offset="1" stop-color="#5B8FBC"/>
</linearGradient>
<linearGradient id="paint32_linear_157_443" x1="190.039" y1="301.383" x2="190.039" y2="18.1016" gradientUnits="userSpaceOnUse">
<stop stop-color="#ECF1FF"/>
<stop offset="1" stop-color="#5B8FBC"/>
</linearGradient>
<linearGradient id="paint33_linear_157_443" x1="185.939" y1="302.718" x2="185.939" y2="12.1588" gradientUnits="userSpaceOnUse">
<stop stop-color="#ECF1FF"/>
<stop offset="1" stop-color="#5B8FBC"/>
</linearGradient>
<linearGradient id="paint34_linear_157_443" x1="181.36" y1="303.608" x2="181.36" y2="6.12035" gradientUnits="userSpaceOnUse">
<stop stop-color="#ECF1FF"/>
<stop offset="1" stop-color="#5B8FBC"/>
</linearGradient>
<linearGradient id="paint35_linear_157_443" x1="176.265" y1="304" x2="176.265" y2="1.67631e-05" gradientUnits="userSpaceOnUse">
<stop stop-color="#ECF1FF"/>
<stop offset="1" stop-color="#5B8FBC"/>
</linearGradient>
</defs>
</svg>
