<svg width="327" height="334" viewBox="0 0 327 334" fill="none" xmlns="http://www.w3.org/2000/svg">
<path d="M86.1721 255.213C80.3979 255.213 75.6338 253.816 72.0919 251.005C65.4432 245.727 63.4193 235.829 66.2378 222.379L66.2974 222.094L147.641 165.011C153.433 160.946 159.419 155.105 164.066 148.983L209.496 89.1297C218.502 77.2639 231.519 67.5379 239.13 66.9871C241.099 66.843 242.652 67.3102 243.732 68.3724C252.889 77.3727 251.088 96.9522 238.791 122.091C215.06 170.605 159.377 226.892 114.663 247.565C103.667 252.649 93.9937 255.212 86.1721 255.213ZM67.6231 222.965C65.013 235.686 66.8738 244.98 73.0106 249.851C80.89 256.105 95.4619 254.82 114.042 246.229C158.494 225.677 213.861 169.699 237.465 121.446C249.465 96.9119 251.372 77.9503 242.697 69.4231C241.932 68.6713 240.77 68.346 239.236 68.4575C231.999 68.981 219.452 78.4528 210.672 90.0201L165.242 149.874C160.507 156.111 154.401 162.068 148.49 166.216L67.6231 222.965Z" fill="url(#paint0_linear_157_625)"/>
<path d="M82.1654 256.096C75.2873 256.096 69.7474 254.349 65.8645 250.85C59.0007 244.668 57.5683 233.518 61.722 218.607L61.7986 218.333L147.805 164.223C153.931 160.369 160.406 154.608 165.569 148.419L216.052 87.9045C226.051 75.9184 239.786 66.5947 247.513 66.7289C249.51 66.758 251.022 67.4095 252.008 68.6655C260.318 79.243 256.811 100.23 242.391 126.246C214.52 176.525 154.138 232.202 107.788 250.359C98.0276 254.182 89.3635 256.096 82.1654 256.096ZM63.0679 219.276C59.1665 233.475 60.473 244.01 66.8518 249.756C74.3632 256.522 88.7092 256.25 107.25 248.987C153.326 230.937 213.37 175.555 241.099 125.532C255.22 100.06 258.773 79.6641 250.848 69.5747C250.15 68.6865 249.02 68.2243 247.491 68.2019C240.283 68.1263 226.931 77.1637 217.185 88.8473L166.703 149.361C161.445 155.665 154.843 161.536 148.591 165.47L63.0679 219.276Z" fill="url(#paint1_linear_157_625)"/>
<path d="M78.4529 256.77C70.3096 256.77 63.959 254.572 59.6668 250.193C52.6157 242.997 51.8848 230.518 57.5524 214.104L57.6438 213.838L148.038 163.385C154.476 159.792 161.43 154.166 167.116 147.95L222.689 87.1993C233.629 75.2396 248.177 66.4703 255.812 67.2328C257.856 67.4372 259.341 68.2874 260.225 69.7591C267.556 81.96 262.232 104.311 245.618 131.08C213.466 182.883 148.454 237.457 100.694 252.734C92.2737 255.427 84.8165 256.77 78.4529 256.77ZM58.8561 214.849C53.4812 230.568 54.1247 242.43 60.7214 249.162C67.8474 256.434 81.8814 257.204 100.244 251.331C147.718 236.145 212.37 181.853 244.363 130.304C260.677 104.02 265.997 82.2281 258.959 70.5167C258.328 69.466 257.219 68.8544 255.665 68.6986C248.473 67.9769 234.44 76.5381 223.778 88.1927L168.206 148.944C162.418 155.271 155.329 161.004 148.759 164.671L58.8561 214.849Z" fill="url(#paint2_linear_157_625)"/>
<path d="M75.3364 257.097C65.5828 257.097 58.1804 254.375 53.527 248.986C46.332 240.656 46.4221 226.772 53.7874 208.837L53.894 208.578L148.344 162.499C155.07 159.217 162.488 153.783 168.695 147.59L229.361 87.0642C241.369 75.0834 256.249 67.1218 263.962 68.5402C266.046 68.9237 267.549 70.02 268.308 71.7105C274.529 85.5768 267.276 109.235 248.41 136.618C211.862 189.667 142.331 242.61 93.4149 254.636C86.7277 256.279 80.6787 257.097 75.3364 257.097ZM55.0467 209.655C48.01 226.918 47.8697 240.18 54.6443 248.024C61.461 255.917 74.7466 257.708 93.0613 253.205C141.677 241.253 210.821 188.578 247.194 135.783C265.762 108.833 272.967 85.699 266.961 72.3128C266.402 71.067 265.303 70.2853 263.694 69.9891C256.532 68.6736 241.906 76.629 230.404 88.1063L169.739 148.632C163.42 154.936 155.858 160.472 148.992 163.823L55.0467 209.655Z" fill="url(#paint3_linear_157_625)"/>
<path d="M72.9327 257.193C61.1838 257.193 52.5018 253.811 47.4823 247.184C40.2093 237.582 41.2526 222.229 50.4976 202.785L50.6186 202.53L148.731 161.568C155.716 158.652 163.578 153.47 170.304 147.351L236.022 87.5497C248.827 75.8969 264.249 68.6467 271.905 70.693C274.082 71.2742 275.563 72.6175 276.19 74.5774C281.164 90.1418 271.879 115.035 250.715 142.876C209.674 196.86 135.783 247.61 85.9978 256.007C81.3018 256.799 76.9384 257.193 72.9327 257.193ZM51.7103 203.671C42.9561 222.2 41.8693 237.331 48.6592 246.295C55.0367 254.715 67.8602 257.572 85.7513 254.555C135.219 246.212 208.694 195.714 249.538 141.986C270.409 114.533 279.61 90.1271 274.783 75.0257C274.31 73.5469 273.215 72.5678 271.524 72.1163C264.444 70.2236 249.278 77.4796 237.015 88.6384L171.297 148.44C164.453 154.668 156.435 159.949 149.3 162.927L51.7103 203.671Z" fill="url(#paint4_linear_157_625)"/>
<path d="M71.4068 257.112C57.1728 257.112 46.9298 252.888 41.5589 244.73C34.4069 233.866 36.6039 216.532 47.7437 195.922L47.8799 195.67L149.195 160.595C156.406 158.099 164.689 153.232 171.922 147.243L242.609 88.7059C256.112 77.523 272.005 71.0841 279.562 73.7308C281.853 74.5322 283.313 76.152 283.783 78.4157C287.371 95.7038 275.955 121.747 252.46 149.868C206.864 204.443 128.816 252.408 78.4789 256.791C76.0238 257.005 73.6642 257.112 71.4068 257.112ZM48.9058 196.874C38.1541 216.873 35.9805 233.575 42.7922 243.921C48.6974 252.892 60.9961 256.835 78.3503 255.324C128.351 250.97 205.947 203.24 251.327 148.925C274.531 121.151 285.835 95.5606 282.338 78.7146C281.974 76.9601 280.876 75.7511 279.075 75.121C271.961 72.6336 256.688 78.9598 243.551 89.8398L172.863 148.378C165.499 154.475 157.05 159.435 149.679 161.987L48.9058 196.874Z" fill="url(#paint5_linear_157_625)"/>
<path d="M70.9446 256.93C70.9352 256.93 70.9284 256.93 70.9195 256.93C53.6155 256.925 41.4718 251.611 35.8024 241.562C28.7956 229.142 32.2748 210.204 45.5999 188.235L45.7527 187.984L149.75 159.585C157.148 157.565 165.821 153.08 173.546 147.281L249.074 90.5813C263.396 79.8301 279.289 74.4078 286.873 77.6904C289.3 78.741 290.732 80.6731 291.015 83.2774C293.076 102.302 279.437 129.393 253.594 157.603C203.415 212.377 121.486 256.93 70.9446 256.93ZM46.7105 189.249C33.7986 210.636 30.3804 228.95 37.0887 240.839C42.4806 250.397 54.1793 255.452 70.9195 255.457C70.9262 255.457 70.9378 255.457 70.9446 255.457C121.127 255.457 202.565 211.122 252.504 156.609C278.062 128.711 291.564 102.041 289.547 83.4362C289.322 81.3596 288.225 79.8816 286.286 79.0421C279.272 76.0061 263.659 81.4754 249.962 91.7585L174.434 148.459C166.565 154.366 157.71 158.939 150.14 161.006L46.7105 189.249Z" fill="url(#paint6_linear_157_625)"/>
<path d="M71.8174 256.75C68.9029 256.751 66.0902 256.624 63.3693 256.365C46.7654 254.783 35.3128 248.295 30.2511 237.603C23.5594 223.468 28.4884 202.908 44.1315 179.711L44.3013 179.459L150.391 158.543C157.932 157.056 166.959 153.023 175.158 147.475L255.35 93.2235C270.147 83.2138 286.297 78.7495 293.754 82.6075C296.338 83.9445 297.734 86.2292 297.791 89.2147C298.184 109.98 282.24 137.999 254.046 166.086C202.222 217.715 122.868 256.745 71.8174 256.75ZM45.1856 180.786C29.9795 203.43 25.1486 223.377 31.5858 236.973C36.413 247.17 47.4515 253.368 63.5096 254.898C113.47 259.661 198.491 219.35 253.004 165.043C280.915 137.238 296.701 109.61 296.315 89.2424C296.269 86.7962 295.178 85.0036 293.075 83.9154C286.184 80.3496 270.321 84.8743 256.177 94.4428L175.986 148.695C167.63 154.348 158.405 158.465 150.677 159.989L45.1856 180.786Z" fill="url(#paint7_linear_157_625)"/>
<path d="M74.1114 256.702C67.6048 256.702 61.5047 256.161 55.8918 255.037C40.0412 251.864 29.3447 244.161 24.9584 232.76C18.7996 216.754 25.3541 194.587 43.4124 170.345L43.6015 170.09L151.126 157.475C158.762 156.579 168.101 153.066 176.749 147.837L261.371 96.6775C276.759 87.3743 292.695 84.0157 300.134 88.5118C302.893 90.1812 304.238 92.8651 304.023 96.273C302.604 118.769 284.284 147.577 253.759 175.313C201.108 223.151 125.292 256.702 74.1114 256.702ZM44.4064 171.479C26.8026 195.202 20.3866 216.768 26.3356 232.232C30.531 243.138 40.852 250.524 56.1817 253.593C105.54 263.472 193.726 227.866 252.765 174.223C283.01 146.743 301.155 118.298 302.552 96.1804C302.732 93.3144 301.661 91.1581 299.369 89.7714C292.497 85.6158 276.838 89.0483 262.136 97.9371L177.513 149.098C168.691 154.432 159.136 158.019 151.298 158.938L44.4064 171.479Z" fill="url(#paint8_linear_157_625)"/>
<path d="M78.0694 256.942C67.1439 256.942 57.1823 255.636 48.5536 252.891C33.4896 248.099 23.6114 239.119 19.9871 226.92C14.6336 208.905 22.988 185.187 43.5112 160.136L43.7223 159.877L151.957 156.387C159.633 156.139 169.235 153.221 178.303 148.38L267.069 100.986C282.679 92.6516 298.658 90.3664 305.928 95.429C308.883 97.4864 310.159 100.622 309.619 104.496C306.244 128.696 285.487 158.139 252.667 185.276C200.14 228.707 128.825 256.942 78.0694 256.942ZM44.4412 161.328C24.3908 185.894 16.2099 209.029 21.4011 226.501C24.8807 238.211 34.4245 246.851 49.0014 251.488C97.2974 266.849 188.237 236.638 251.725 184.142C284.265 157.237 304.833 128.133 308.157 104.293C308.623 100.957 307.588 98.3818 305.084 96.6376C298.36 91.9554 282.665 94.33 267.765 102.286L178.999 149.679C169.739 154.623 159.9 157.605 152.005 157.86L44.4412 161.328Z" fill="url(#paint9_linear_157_625)"/>
<path d="M83.8882 257.664C67.6092 257.664 53.0919 255.161 41.426 249.872C27.1691 243.409 18.1783 233.062 15.4243 219.95C11.1985 199.824 21.5244 174.66 44.4991 149.093L44.7371 148.829L152.885 155.288C160.544 155.748 170.356 153.495 179.806 149.114L272.369 106.19C288.069 98.9107 303.976 97.7554 311.056 103.379C314.22 105.892 315.402 109.537 314.475 113.92C309.005 139.785 285.763 169.688 250.709 195.961C199.363 234.445 133.463 257.664 83.8882 257.664ZM45.3605 150.342C22.8721 175.46 12.7563 200.062 16.8688 219.648C19.5211 232.282 28.2246 242.27 42.0364 248.531C88.784 269.724 182.002 245.615 249.824 194.784C284.596 168.722 307.634 139.137 313.032 113.617C313.847 109.762 312.873 106.705 310.138 104.533C303.477 99.2418 288.202 100.474 272.992 107.527L180.426 150.45C170.763 154.931 160.689 157.23 152.797 156.759L45.3605 150.342Z" fill="url(#paint10_linear_157_625)"/>
<path d="M91.6534 259.09C69.0148 259.092 49.1728 254.854 34.5875 245.927C21.149 237.703 13.1258 225.866 11.3851 211.697C8.64944 189.418 21.101 162.972 46.4466 137.23L46.7137 136.959L153.91 154.186C161.491 155.405 171.453 153.897 181.24 150.05L277.199 112.327C293.101 106.075 308.469 106.096 315.437 112.377C318.819 115.426 319.875 119.644 318.493 124.578C310.79 152.05 285.033 182.218 247.826 207.347C198.796 240.459 139.103 259.087 91.6534 259.09ZM47.2322 138.534C22.3864 163.863 10.1795 189.77 12.8502 211.517C14.5344 225.225 22.3174 236.69 35.3579 244.671C80.0717 272.035 175.011 254.744 247 206.126C283.922 181.19 309.462 151.322 317.071 124.18C318.293 119.822 317.386 116.119 314.448 113.471C307.885 107.555 293.134 107.646 277.738 113.697L181.779 151.42C171.753 155.361 161.509 156.899 153.676 155.64L47.2322 138.534Z" fill="url(#paint11_linear_157_625)"/>
<path d="M101.246 261.465C71.3044 261.466 45.3019 254.811 28.1189 241.009C15.5163 230.887 8.56689 217.397 8.02326 202C7.16052 177.603 21.8633 150.104 49.4228 124.57L49.7235 124.292L155.033 153.092C162.471 155.126 172.513 154.434 182.589 151.197L281.476 119.427C297.449 114.294 312.174 115.474 318.991 122.432C322.591 126.107 323.483 130.969 321.567 136.49C311.501 165.495 283.214 195.715 243.96 219.402C198.369 246.912 145.51 261.462 101.246 261.465ZM50.126 125.929C23.0783 151.089 8.65339 178.073 9.49775 201.948C10.0261 216.905 16.785 230.015 29.043 239.861C71.1843 273.711 167.252 263.968 243.198 218.141C282.161 194.63 310.218 164.694 320.173 136.008C321.893 131.05 321.12 126.712 317.936 123.462C311.607 117.001 297.137 115.943 281.928 120.829L183.041 152.6C172.7 155.923 162.349 156.62 154.644 154.513L50.126 125.929Z" fill="url(#paint12_linear_157_625)"/>
<path d="M112.275 265.026C74.2648 265.026 41.3187 255.082 22.1046 235.072C10.3764 222.86 4.64424 207.517 5.52803 190.704C6.91423 164.321 23.9475 136.066 53.4897 111.143L53.8299 110.857L156.253 152.014C163.473 154.915 173.528 155.117 183.835 152.567L285.119 127.519C300.795 123.643 315.127 126.008 321.637 133.547C325.392 137.896 326.086 143.624 323.591 149.675C311.036 180.117 280.224 210.157 239.055 232.091C197.932 254.001 152.297 265.025 112.275 265.026ZM54.1037 112.554C25.0827 137.143 8.36093 164.909 7.00073 190.781C6.13889 207.178 11.7299 222.141 23.1695 234.053C62.1888 274.684 158.722 273.22 238.36 230.791C279.233 209.015 309.8 179.245 322.227 149.113C324.532 143.522 323.942 138.472 320.519 134.508C314.37 127.387 300.617 125.203 285.475 128.948L184.191 153.997C173.585 156.619 163.202 156.394 155.702 153.38L54.1037 112.554Z" fill="url(#paint13_linear_157_625)"/>
<path d="M124.08 269.984C77.5257 269.985 37.0539 255.645 16.6364 228.081C-11.321 190.338 5.58898 137.656 58.7163 96.9889L59.0986 96.6958L157.565 150.963C164.497 154.783 174.482 155.95 184.962 154.167L288.048 136.624C303.543 133.986 317.053 137.473 323.302 145.723C327.237 150.917 327.647 157.456 324.459 164.138C309.301 195.904 275.988 225.511 233.062 245.367C197.246 261.934 158.955 269.983 124.08 269.984ZM59.2313 98.4516C7.09439 138.551 -9.55256 190.249 17.8228 227.205C34.783 250.102 66.528 264.485 107.212 267.705C147.991 270.933 192.462 262.523 232.441 244.03C275.061 224.316 308.115 194.965 323.127 163.504C326.109 157.255 325.763 151.414 322.125 146.612C316.3 138.92 303.018 135.571 288.296 138.076L185.211 155.62C174.405 157.459 164.07 156.231 156.852 152.253L59.2313 98.4516Z" fill="url(#paint14_linear_157_625)"/>
<path d="M135.838 276.495C80.6153 276.495 32.3425 256.396 11.8028 219.999C-12.7244 176.537 8.71619 121.142 65.1555 82.1565L65.5867 81.8585L158.965 149.951C165.53 154.738 175.363 156.946 185.949 156.006L290.174 146.76C305.151 145.432 318.084 150.107 323.916 158.964C327.978 165.133 328.03 172.56 324.062 179.877C306.193 212.832 270.424 241.735 225.928 259.176C195.998 270.908 164.952 276.495 135.838 276.495ZM65.5652 83.6667C10.1064 122.178 -10.9824 176.623 13.0881 219.276C27.9885 245.68 58.3572 264.26 98.5987 271.593C138.932 278.943 183.956 274.046 225.389 257.805C269.566 240.49 305.058 211.83 322.766 179.175C326.462 172.358 326.433 165.468 322.684 159.773C317.15 151.371 304.744 146.947 290.305 148.228L186.081 157.474C175.145 158.444 164.945 156.135 158.095 151.141L65.5652 83.6667Z" fill="url(#paint15_linear_157_625)"/>
<path d="M147.179 284.59C127.194 284.59 107.617 281.868 89.2641 276.402C49.3843 264.527 20.4179 241.23 7.69924 210.801C-12.919 161.471 13.27 103.563 72.8681 66.7043L73.3512 66.405L160.449 148.986C166.566 154.787 176.147 158.037 186.779 158.09L291.414 157.936C291.439 157.936 291.466 157.936 291.491 157.936C305.844 157.936 318.07 163.809 323.413 173.274C327.524 180.555 327.128 188.938 322.298 196.878C301.622 230.867 263.467 258.779 217.615 273.456C194.46 280.868 170.541 284.589 147.179 284.59ZM73.1608 68.257C14.5455 104.733 -11.2123 161.73 9.06124 210.234C21.6052 240.247 50.2389 263.245 89.6858 274.991C129.209 286.759 174.481 285.717 217.165 272.054C262.682 257.484 300.542 229.805 321.037 196.114C325.577 188.649 325.964 180.795 322.127 173.998C317.046 164.996 305.311 159.41 291.492 159.41C291.466 159.41 291.442 159.41 291.416 159.41L186.781 159.564C186.756 159.564 186.73 159.564 186.705 159.564C175.745 159.564 165.809 156.1 159.432 150.055L73.1608 68.257Z" fill="url(#paint16_linear_157_625)"/>
<path d="M156.44 294.447C129.644 294.447 103.505 289.314 79.9309 279.181C41.2428 262.552 14.4259 234.596 4.41777 200.464C-11.8016 145.147 19.3357 84.9621 81.9002 50.7018L82.4389 50.4065L162.006 148.078C167.595 154.939 176.86 159.44 187.426 160.426L291.677 170.156C305.618 171.457 316.851 178.378 321.728 188.668C325.711 197.076 324.737 206.716 319.056 215.118C295.494 249.963 255.047 276.575 208.084 288.133C190.932 292.354 173.552 294.447 156.44 294.447ZM82.0714 52.2898C20.4924 86.2593 -10.1393 145.572 5.834 200.05C15.7162 233.753 42.2387 261.376 80.514 277.828C118.85 294.306 164.032 297.457 207.731 286.702C254.343 275.232 294.474 248.84 317.832 214.294C323.295 206.217 324.205 197.34 320.393 189.298C315.743 179.482 304.956 172.875 291.54 171.623L187.289 161.893C176.331 160.869 166.698 156.173 160.861 149.008L82.0714 52.2898Z" fill="url(#paint17_linear_157_625)"/>
<path d="M163.786 305.951C130.469 305.951 98.1686 297.535 70.3859 281.306C33.3063 259.646 9.03858 226.854 2.05246 188.972C-9.26885 127.585 26.9964 65.3986 92.2939 34.2276L92.8887 33.9434L163.631 147.237C168.603 155.199 177.439 160.951 187.873 163.017L290.877 183.414C304.118 186.036 314.553 194.171 318.793 205.175C322.552 214.936 320.891 225.647 314.234 234.561C287.722 270.061 245.101 295.052 197.301 303.125C186.103 305.016 174.888 305.951 163.786 305.951ZM92.3356 35.842C28.021 66.8139 -7.66036 128.167 3.50319 188.705C10.41 226.16 34.4271 258.594 71.1303 280.034C107.873 301.497 152.592 309.182 197.056 301.672C244.485 293.661 286.763 268.879 313.051 233.68C319.399 225.18 320.99 214.983 317.415 205.703C313.359 195.174 303.332 187.382 290.591 184.859L187.587 164.462C176.754 162.318 167.567 156.323 162.379 148.016L92.3356 35.842Z" fill="url(#paint18_linear_157_625)"/>
<path d="M168.984 319.05C129.451 319.05 91.5023 306.405 60.6918 282.703C25.6563 255.752 4.35235 217.97 0.701533 176.318C-5.21301 108.817 36.3344 44.942 104.088 17.3717L104.738 17.1077L105.035 17.7422L165.321 146.471C169.583 155.574 177.885 162.643 188.098 165.867H188.098L288.931 197.696C301.456 201.649 311.029 211.048 314.538 222.838C317.875 234.049 315.397 245.829 307.737 255.155C278.227 291.088 233.582 314.118 185.249 318.34C179.807 318.814 174.381 319.05 168.984 319.05ZM103.997 19.0014C37.2312 46.4692 -3.66726 109.552 2.17154 176.189C5.78561 217.426 26.8879 254.839 61.593 281.536C96.3153 308.247 140.193 320.797 185.121 316.871C233.06 312.684 277.336 289.848 306.595 254.22C313.94 245.277 316.319 233.991 313.124 223.256C309.754 211.936 300.543 202.905 288.486 199.099L187.653 167.271C177.047 163.923 168.421 156.569 163.984 147.094L103.997 19.0014Z" fill="url(#paint19_linear_157_625)"/>
<path d="M171.909 333.674C126.419 333.674 83.4497 315.784 50.9145 283.301C18.3794 250.818 0.461884 207.916 0.461884 162.499C0.461884 88.8854 47.421 23.676 117.313 0.234467L118.012 0L167.065 145.79C170.523 156.066 178.182 164.517 188.078 168.975L285.749 212.977C297.736 218.377 306.164 228.853 308.873 241.719C311.551 254.43 308.121 267.231 299.466 276.839C266.931 312.958 220.438 333.674 171.909 333.674ZM117.084 1.86681C48.1784 25.3052 1.93727 89.7633 1.93727 162.498C1.93727 207.522 19.7015 250.054 51.9579 282.259C84.2143 314.464 126.814 332.2 171.909 332.2C220.02 332.2 266.113 311.663 298.37 275.853C306.706 266.599 310.008 254.268 307.43 242.022C304.819 229.622 296.695 219.524 285.142 214.319L187.472 170.318C177.202 165.691 169.254 156.922 165.667 146.259L117.084 1.86681Z" fill="url(#paint20_linear_157_625)"/>
<defs>
<linearGradient id="paint0_linear_157_625" x1="157.254" y1="66.9616" x2="157.254" y2="255.213" gradientUnits="userSpaceOnUse">
<stop stop-color="#ECF1FF"/>
<stop offset="1" stop-color="#5B8FBC"/>
</linearGradient>
<linearGradient id="paint1_linear_157_625" x1="157.914" y1="66.7275" x2="157.914" y2="256.096" gradientUnits="userSpaceOnUse">
<stop stop-color="#ECF1FF"/>
<stop offset="1" stop-color="#5B8FBC"/>
</linearGradient>
<linearGradient id="paint2_linear_157_625" x1="158.612" y1="67.1866" x2="158.612" y2="256.77" gradientUnits="userSpaceOnUse">
<stop stop-color="#ECF1FF"/>
<stop offset="1" stop-color="#5B8FBC"/>
</linearGradient>
<linearGradient id="paint3_linear_157_625" x1="159.341" y1="68.377" x2="159.341" y2="257.097" gradientUnits="userSpaceOnUse">
<stop stop-color="#ECF1FF"/>
<stop offset="1" stop-color="#5B8FBC"/>
</linearGradient>
<linearGradient id="paint4_linear_157_625" x1="160.103" y1="70.3483" x2="160.103" y2="257.193" gradientUnits="userSpaceOnUse">
<stop stop-color="#ECF1FF"/>
<stop offset="1" stop-color="#5B8FBC"/>
</linearGradient>
<linearGradient id="paint5_linear_157_625" x1="160.932" y1="73.1384" x2="160.932" y2="257.112" gradientUnits="userSpaceOnUse">
<stop stop-color="#ECF1FF"/>
<stop offset="1" stop-color="#5B8FBC"/>
</linearGradient>
<linearGradient id="paint6_linear_157_625" x1="161.743" y1="76.738" x2="161.743" y2="256.93" gradientUnits="userSpaceOnUse">
<stop stop-color="#ECF1FF"/>
<stop offset="1" stop-color="#5B8FBC"/>
</linearGradient>
<linearGradient id="paint7_linear_157_625" x1="162.568" y1="81.2294" x2="162.568" y2="256.75" gradientUnits="userSpaceOnUse">
<stop stop-color="#ECF1FF"/>
<stop offset="1" stop-color="#5B8FBC"/>
</linearGradient>
<linearGradient id="paint8_linear_157_625" x1="163.374" y1="86.5343" x2="163.374" y2="256.702" gradientUnits="userSpaceOnUse">
<stop stop-color="#ECF1FF"/>
<stop offset="1" stop-color="#5B8FBC"/>
</linearGradient>
<linearGradient id="paint9_linear_157_625" x1="164.074" y1="92.7573" x2="164.074" y2="256.942" gradientUnits="userSpaceOnUse">
<stop stop-color="#ECF1FF"/>
<stop offset="1" stop-color="#5B8FBC"/>
</linearGradient>
<linearGradient id="paint10_linear_157_625" x1="164.64" y1="99.832" x2="164.64" y2="257.664" gradientUnits="userSpaceOnUse">
<stop stop-color="#ECF1FF"/>
<stop offset="1" stop-color="#5B8FBC"/>
</linearGradient>
<linearGradient id="paint11_linear_157_625" x1="165.048" y1="107.652" x2="165.048" y2="259.09" gradientUnits="userSpaceOnUse">
<stop stop-color="#ECF1FF"/>
<stop offset="1" stop-color="#5B8FBC"/>
</linearGradient>
<linearGradient id="paint12_linear_157_625" x1="165.269" y1="116.26" x2="165.269" y2="261.465" gradientUnits="userSpaceOnUse">
<stop stop-color="#ECF1FF"/>
<stop offset="1" stop-color="#5B8FBC"/>
</linearGradient>
<linearGradient id="paint13_linear_157_625" x1="165.251" y1="110.857" x2="165.251" y2="265.026" gradientUnits="userSpaceOnUse">
<stop stop-color="#ECF1FF"/>
<stop offset="1" stop-color="#5B8FBC"/>
</linearGradient>
<linearGradient id="paint14_linear_157_625" x1="164.94" y1="96.6958" x2="164.94" y2="269.984" gradientUnits="userSpaceOnUse">
<stop stop-color="#ECF1FF"/>
<stop offset="1" stop-color="#5B8FBC"/>
</linearGradient>
<linearGradient id="paint15_linear_157_625" x1="164.385" y1="81.8585" x2="164.385" y2="276.495" gradientUnits="userSpaceOnUse">
<stop stop-color="#ECF1FF"/>
<stop offset="1" stop-color="#5B8FBC"/>
</linearGradient>
<linearGradient id="paint16_linear_157_625" x1="163.485" y1="66.405" x2="163.485" y2="284.59" gradientUnits="userSpaceOnUse">
<stop stop-color="#ECF1FF"/>
<stop offset="1" stop-color="#5B8FBC"/>
</linearGradient>
<linearGradient id="paint17_linear_157_625" x1="162.156" y1="50.4065" x2="162.156" y2="294.447" gradientUnits="userSpaceOnUse">
<stop stop-color="#ECF1FF"/>
<stop offset="1" stop-color="#5B8FBC"/>
</linearGradient>
<linearGradient id="paint18_linear_157_625" x1="160.383" y1="33.9434" x2="160.383" y2="305.951" gradientUnits="userSpaceOnUse">
<stop stop-color="#ECF1FF"/>
<stop offset="1" stop-color="#5B8FBC"/>
</linearGradient>
<linearGradient id="paint19_linear_157_625" x1="158.067" y1="17.1077" x2="158.067" y2="319.05" gradientUnits="userSpaceOnUse">
<stop stop-color="#ECF1FF"/>
<stop offset="1" stop-color="#5B8FBC"/>
</linearGradient>
<linearGradient id="paint20_linear_157_625" x1="155.113" y1="0" x2="155.113" y2="333.674" gradientUnits="userSpaceOnUse">
<stop stop-color="#ECF1FF"/>
<stop offset="1" stop-color="#5B8FBC"/>
</linearGradient>
</defs>
</svg>
