<svg width="160" height="160" viewBox="0 0 160 160" fill="none" xmlns="http://www.w3.org/2000/svg">
<g clip-path="url(#clip0_328_166)">
<path d="M7.99998 125.333H21.3334V149.333C21.3334 156.335 33.4052 159.999 45.3333 159.999C57.2614 159.999 69.3333 156.335 69.3333 149.333V125.333H138.667C150.443 125.319 159.987 115.776 160 103.999V21.1222C160.042 10.6619 152.461 1.72907 142.133 0.0687586C141.385 -0.0521171 140.619 -0.00858961 139.889 0.196317C139.16 0.401223 138.483 0.762594 137.907 1.25532C137.311 1.75911 136.831 2.38674 136.502 3.09456C136.173 3.80238 136.001 4.57341 136 5.35406V18.4528H7.99998C3.58187 18.4528 0 22.0347 0 26.4528V117.333C0 121.751 3.58187 125.333 7.99998 125.333ZM53.3333 90.0527C53.3336 86.9529 53.7424 83.8668 54.5493 80.8739C61.2186 82.1327 63.9999 84.4633 63.9999 85.3327C63.9999 86.4955 60.3118 88.9167 53.3333 90.0527ZM48.0158 90.5861C47.1465 90.6289 46.2587 90.658 45.3224 90.658C44.3865 90.658 43.5277 90.6286 42.6718 90.5886C42.4473 83.4171 44.1569 76.3173 47.6212 70.0339C48.9455 67.7691 50.585 65.704 52.4905 63.9005C57.8026 58.9602 64.7471 56.1477 71.9999 55.9993C72.7071 55.9993 73.3853 56.2802 73.8854 56.7803C74.3855 57.2804 74.6664 57.9586 74.6664 58.6658C74.6664 59.3731 74.3855 60.0513 73.8854 60.5514C73.3853 61.0514 72.7071 61.3324 71.9999 61.3324C65.6932 61.5245 59.7093 64.1654 55.3171 68.6952C50.469 73.8392 48.0399 81.2124 48.0265 90.5939L48.0158 90.5861ZM47.9999 60.9461C47.0495 61.9028 46.159 62.9171 45.3333 63.9833C44.5077 62.9171 43.6172 61.9028 42.6668 60.9461V37.3327C42.6668 36.6255 42.9477 35.9473 43.4478 35.4472C43.9479 34.9471 44.6261 34.6662 45.3333 34.6662C46.0406 34.6662 46.7188 34.9471 47.2189 35.4472C47.719 35.9473 47.9999 36.6255 47.9999 37.3327V60.9461ZM38.168 63.9114C39.7063 65.3968 41.0665 67.0559 42.2215 68.8555C41.1642 70.8613 40.2861 72.9565 39.5974 75.1167C37.7173 71.1138 34.7677 67.7081 31.0742 65.2757C27.3807 62.8433 23.0869 61.4788 18.6668 61.3327C17.9596 61.3327 17.2814 61.0518 16.7813 60.5517C16.2812 60.0516 16.0003 59.3734 16.0003 58.6661C16.0003 57.9589 16.2812 57.2807 16.7813 56.7806C17.2814 56.2805 17.9596 55.9996 18.6668 55.9996C25.918 56.1539 32.8591 58.97 38.168 63.9114ZM36.0665 80.8792C36.8874 83.8681 37.3053 86.9531 37.3093 90.0527C30.3493 88.9139 26.6665 86.4955 26.6665 85.3327C26.6665 84.4633 29.4371 82.1327 36.0665 80.8792ZM63.9999 149.333C63.9999 150.882 57.4586 154.666 45.3333 154.666C33.2081 154.666 26.6668 150.882 26.6668 149.333V92.2661C32.5243 94.9133 38.9083 96.1901 45.3333 95.9995C51.7583 96.1901 58.1424 94.9133 63.9999 92.2661V149.333ZM154.666 21.1222V89.8955C151.238 85.9888 146.492 83.4809 141.333 82.8502L141.279 21.3862C141.279 21.2928 141.333 21.2128 141.333 21.1197C141.333 21.0262 141.288 20.9437 141.279 20.8531V5.33562C149.019 6.58531 154.698 13.2822 154.666 21.1222ZM5.33343 26.4556C5.33343 25.7484 5.61437 25.0701 6.11444 24.57C6.61452 24.07 7.29277 23.789 7.99998 23.789H136V82.8502C136.002 85.5286 137.995 87.7877 140.653 88.122C149.042 89.1667 155.171 96.5573 154.645 104.994C154.119 113.432 147.12 120.004 138.667 119.999H69.3333V85.3327C69.3333 80.978 64.6614 77.5355 56.6614 75.8339C57.3649 74.5767 58.2153 73.4075 59.1949 72.3511C62.5987 68.8864 67.1974 66.8528 72.0508 66.6658C76.4692 66.6518 80.0395 63.0586 80.0255 58.6405C80.0114 54.2221 76.4183 50.6518 72.0002 50.6658C65.3523 50.7851 58.8766 52.7991 53.3336 56.4711V37.3324C53.3336 32.9143 49.7518 29.3325 45.3337 29.3325C40.9152 29.3325 37.3337 32.9143 37.3337 37.3324V56.4711C31.7908 52.7989 25.315 50.7849 18.6672 50.6658C14.249 50.648 10.6528 54.2155 10.6353 58.634C10.6175 63.0521 14.185 66.6483 18.6034 66.6658C21.7391 66.744 24.8018 67.6289 27.4959 69.2352C30.1901 70.8415 32.4249 73.115 33.9846 75.8364C25.9953 77.5405 21.334 80.9805 21.334 85.3324V119.999H7.99998C7.29277 119.999 6.61452 119.718 6.11444 119.218C5.61437 118.718 5.33343 118.04 5.33343 117.332V26.4556Z" fill="#025195"/>
<path d="M45.3334 143.999C42.6456 144.022 39.9633 143.754 37.3334 143.199V133.333C37.3334 132.626 37.0524 131.947 36.5524 131.447C36.0523 130.947 35.374 130.666 34.6668 130.666C33.9596 130.666 33.2813 130.947 32.7813 131.447C32.2812 131.947 32.0002 132.626 32.0002 133.333V145.242C32.0007 145.809 32.182 146.361 32.5176 146.818C32.8533 147.275 33.3259 147.613 33.8668 147.784C37.5888 148.876 41.4549 149.398 45.3334 149.333C46.0356 149.325 46.7065 149.041 47.2004 148.542C47.6944 148.042 47.9714 147.368 47.9714 146.666C47.9714 145.964 47.6944 145.29 47.2004 144.791C46.7065 144.291 46.0356 144.007 45.3334 143.999ZM122.666 95.9995C121.018 96.0063 119.411 96.5224 118.067 97.4771C116.723 98.4318 115.707 99.7785 115.157 101.333H98.6665V90.6664H101.333C102.04 90.6664 102.719 90.3854 103.219 89.8853C103.719 89.3853 104 88.707 104 87.9998C104 87.2926 103.719 86.6143 103.219 86.1142C102.719 85.6142 102.04 85.3332 101.333 85.3332H90.6665C89.9593 85.3332 89.281 85.6142 88.7809 86.1142C88.2809 86.6143 87.9999 87.2926 87.9999 87.9998C87.9999 88.707 88.2809 89.3853 88.7809 89.8853C89.281 90.3854 89.9593 90.6664 90.6665 90.6664H93.3331V104C93.3331 104.35 93.402 104.697 93.536 105.02C93.67 105.344 93.8665 105.638 94.1141 105.885C94.3617 106.133 94.6557 106.329 94.9792 106.463C95.3027 106.597 95.6494 106.666 95.9996 106.666H115.157C116.52 110.492 120.536 112.686 124.491 111.765C128.447 110.844 131.081 107.102 130.614 103.068C130.147 99.0335 126.728 95.9923 122.666 95.9995ZM122.666 106.666C121.194 106.666 120 105.473 120 104C120 102.527 121.194 101.333 122.666 101.333C124.139 101.333 125.333 102.527 125.333 104C125.333 105.473 124.139 106.666 122.666 106.666ZM114.667 50.6663C114.673 52.3151 115.189 53.9214 116.144 55.2656C117.099 56.6098 118.445 57.6262 120 58.1757V72.4904C116.326 73.7892 114.123 77.5454 114.782 81.3857C115.441 85.226 118.77 88.0329 122.666 88.0329C126.563 88.0329 129.892 85.226 130.551 81.3857C131.21 77.5454 129.007 73.7892 125.333 72.4904V58.1757C129.159 56.8129 131.352 52.7963 130.432 48.8413C129.511 44.886 125.769 42.2517 121.735 42.7185C117.701 43.1854 114.659 46.6051 114.667 50.6663ZM122.666 82.6664C121.194 82.6664 120 81.4726 120 79.9998C120 78.527 121.194 77.3332 122.666 77.3332C123.374 77.3332 124.052 77.6142 124.552 78.1142C125.052 78.6143 125.333 79.2926 125.333 79.9998C125.333 80.707 125.052 81.3853 124.552 81.8853C124.052 82.3854 123.374 82.6664 122.666 82.6664ZM122.666 47.9995C124.139 47.9995 125.333 49.1932 125.333 50.666C125.333 52.1388 124.139 53.3326 122.666 53.3326C121.194 53.3326 120 52.1392 120 50.6663C120 49.1935 121.194 47.9995 122.666 47.9995Z" fill="#025195"/>
<path d="M85.3333 79.9994H106.667C107.374 79.9994 108.052 79.7185 108.552 79.2184C109.052 78.7183 109.333 78.0401 109.333 77.3329C109.333 76.6256 109.052 75.9474 108.552 75.4473C108.052 74.9472 107.374 74.6663 106.667 74.6663H98.6667V58.1757C99.6525 57.8427 100.562 57.3168 101.343 56.6288C102.123 55.9408 102.759 55.1044 103.213 54.1683C103.667 53.2322 103.931 52.215 103.988 51.1761C104.045 50.1372 103.895 49.0973 103.547 48.1169L116.437 36.6504C116.703 36.4188 116.921 36.1368 117.077 35.8208C117.233 35.5048 117.326 35.1609 117.348 34.809C117.371 34.4572 117.324 34.1043 117.21 33.7707C117.096 33.4371 116.917 33.1294 116.683 32.8654C116.449 32.6014 116.165 32.3863 115.848 32.2325C115.531 32.0786 115.186 31.9891 114.834 31.9691C114.482 31.9491 114.13 31.9991 113.797 32.116C113.464 32.2329 113.158 32.4145 112.896 32.6504L100.248 43.8932C99.2983 43.3056 98.2357 42.924 97.1292 42.7731C96.0226 42.6221 94.8967 42.7053 93.8244 43.017C92.752 43.3288 91.757 43.8623 90.9039 44.583C90.0507 45.3037 89.3584 46.1954 88.8718 47.2006C88.3851 48.2058 88.115 49.302 88.0788 50.4182C88.0427 51.5344 88.2413 52.6457 88.6619 53.6803C89.0824 54.7149 89.7156 55.6496 90.5203 56.424C91.325 57.1984 92.2833 57.7951 93.3333 58.1757V74.6663H85.3333C84.6261 74.6663 83.9478 74.9472 83.4477 75.4473C82.9477 75.9474 82.6667 76.6256 82.6667 77.3329C82.6667 77.6831 82.7356 78.0298 82.8696 78.3534C83.0036 78.6769 83.2 78.9709 83.4476 79.2185C83.6953 79.4661 83.9892 79.6625 84.3128 79.7965C84.6363 79.9305 84.9831 79.9995 85.3333 79.9994ZM95.9998 47.9994C97.4727 47.9994 98.6664 49.1932 98.6664 50.666C98.6664 52.1388 97.4727 53.3326 95.9998 53.3326C95.2926 53.3326 94.6144 53.0516 94.1143 52.5515C93.6142 52.0515 93.3333 51.3732 93.3333 50.666C93.3333 49.9588 93.6142 49.2805 94.1143 48.7805C94.6144 48.2804 95.2926 47.9994 95.9998 47.9994Z" fill="#025195"/>
</g>
<defs>
<clipPath id="clip0_328_166">
<rect width="160" height="160" fill="white"/>
</clipPath>
</defs>
</svg>
