<svg width="160" height="160" viewBox="0 0 160 160" fill="none" xmlns="http://www.w3.org/2000/svg">
<path d="M40.81 16.2425C39.7775 13.97 37.4975 12.5 35 12.5C32.5025 12.5 30.2225 13.97 29.19 16.2425L20 39.525V42.5C20 50.7725 26.7275 57.5 35 57.5C43.2725 57.5 50 50.7725 50 42.3775C50.0009 40.4923 49.6463 38.6239 48.955 36.87L40.81 16.2425ZM35 52.5C29.485 52.5 25 48.015 25 42.5V40.475L33.7625 18.265C34.235 17.32 35.87 17.4525 36.21 18.1925L44.3025 38.7025C44.765 39.88 45 41.115 45 42.5C45 48.015 40.515 52.5 35 52.5Z" fill="#025195"/>
<path d="M157.5 82.5V77.5C157.5 74.7425 155.258 72.5 152.5 72.5V40C152.5 30.3525 144.648 22.5 135 22.5H122.5C122.5 19.7425 120.257 17.5 117.5 17.5H112.5C109.743 17.5 107.5 19.7425 107.5 22.5H92.5C92.5 19.7425 90.2575 17.5 87.5 17.5H82.5C79.7425 17.5 77.5 19.7425 77.5 22.5H64.9925C60.085 10.7675 48.4925 2.5 35 2.5C17.08 2.5 2.5 17.08 2.5 35C2.5 52.92 17.08 67.5 35 67.5C48.4925 67.5 60.085 59.2325 64.9925 47.5H77.5C77.5 50.2575 79.7425 52.5 82.5 52.5H87.5C90.2575 52.5 92.5 50.2575 92.5 47.5H107.5C107.5 50.2575 109.743 52.5 112.5 52.5H117.5C120.257 52.5 122.5 50.2575 122.5 47.5H127.5V72.5C124.743 72.5 122.5 74.7425 122.5 77.5V82.5C122.5 85.2575 124.743 87.5 127.5 87.5V92.5H117.5C117.5 89.7425 115.257 87.5 112.5 87.5H107.5C104.743 87.5 102.5 89.7425 102.5 92.5H90V82.5H92.5C96.635 82.5 100 79.135 100 75C100 70.865 96.635 67.5 92.5 67.5H90C90 61.985 85.515 57.5 80 57.5C74.485 57.5 70 61.985 70 67.5H67.5C63.365 67.5 60 70.865 60 75C60 79.135 63.365 82.5 67.5 82.5H70V92.5H57.5C57.5 89.7425 55.2575 87.5 52.5 87.5H47.5C44.7425 87.5 42.5 89.7425 42.5 92.5H30C20.3525 92.5 12.5 100.353 12.5 110V127.5C9.7425 127.5 7.5 129.743 7.5 132.5V137.5C7.5 140.258 9.7425 142.5 12.5 142.5V157.5H37.5V142.5C40.2575 142.5 42.5 140.258 42.5 137.5V132.5C42.5 129.743 40.2575 127.5 37.5 127.5V117.5H42.5C42.5 120.257 44.7425 122.5 47.5 122.5H52.5C55.2575 122.5 57.5 120.257 57.5 117.5H102.5C102.5 120.257 104.743 122.5 107.5 122.5H112.5C115.257 122.5 117.5 120.257 117.5 117.5H127.5V127.5C124.743 127.5 122.5 129.743 122.5 132.5V137.5C122.5 140.258 124.743 142.5 127.5 142.5V157.5H152.5V142.5C155.258 142.5 157.5 140.258 157.5 137.5V132.5C157.5 129.743 155.258 127.5 152.5 127.5V87.5C155.258 87.5 157.5 85.2575 157.5 82.5ZM35 62.5C19.8375 62.5 7.5 50.1625 7.5 35C7.5 19.8375 19.8375 7.5 35 7.5C50.1625 7.5 62.5 19.8375 62.5 35C62.5 50.1625 50.1625 62.5 35 62.5ZM66.5925 42.5C67.165 40.0875 67.5 37.585 67.5 35C67.5 32.415 67.165 29.9125 66.5925 27.5H77.5V42.5H66.5925ZM82.5 47.5V22.5H87.5L87.505 47.5H82.5ZM92.5 42.5V27.5H107.5V42.5H92.5ZM32.5 152.5H17.5V142.5H32.5V152.5ZM37.505 137.5H12.5V132.5H37.5L37.505 137.5ZM37.5 112.5C34.7425 112.5 32.5 114.743 32.5 117.5V127.5H17.5V110C17.5 103.107 23.1075 97.5 30 97.5H42.5V112.5H37.5ZM80 62.5C82.7575 62.5 85 64.7425 85 67.5H75C75 64.7425 77.2425 62.5 80 62.5ZM65 75C65 74.337 65.2634 73.7011 65.7322 73.2322C66.2011 72.7634 66.837 72.5 67.5 72.5H92.5C93.163 72.5 93.7989 72.7634 94.2678 73.2322C94.7366 73.7011 95 74.337 95 75C95 75.663 94.7366 76.2989 94.2678 76.7678C93.7989 77.2366 93.163 77.5 92.5 77.5H67.5C66.837 77.5 66.2011 77.2366 65.7322 76.7678C65.2634 76.2989 65 75.663 65 75ZM75 82.5H85V92.5H75V82.5ZM47.5 117.5V92.5H52.5L52.505 117.5H47.5ZM57.5 112.5V97.5H102.5V112.5H57.5ZM112.5 47.5V22.5H117.5L117.505 47.5H112.5ZM127.5 42.5H122.5V27.5H135C141.893 27.5 147.5 33.1075 147.5 40V72.5H132.5V47.5C132.5 44.7425 130.257 42.5 127.5 42.5ZM127.5 77.5H152.5L152.505 82.5H127.5V77.5ZM107.5 117.5V92.5H112.5L112.505 117.5H107.5ZM117.5 112.5V97.5H127.5V112.5H117.5ZM147.5 152.5H132.5V142.5H147.5V152.5ZM152.505 137.5H127.5V132.5H152.5L152.505 137.5ZM147.5 127.5H132.5V87.5H147.5V127.5Z" fill="#025195"/>
<path d="M137.5 97.5H142.5V102.5H137.5V97.5ZM137.5 117.5H142.5V122.5H137.5V117.5ZM137.5 107.5H142.5V112.5H137.5V107.5ZM82.5 102.5H87.5V107.5H82.5V102.5ZM62.5 102.5H67.5V107.5H62.5V102.5ZM72.5 102.5H77.5V107.5H72.5V102.5ZM137.5 62.5H142.5V67.5H137.5V62.5ZM137.5 42.5H142.5V47.5H137.5V42.5ZM137.5 52.5H142.5V57.5H137.5V52.5Z" fill="#025195"/>
</svg>
