<svg width="260" height="260" viewBox="0 0 260 260" fill="none" xmlns="http://www.w3.org/2000/svg">
<g clip-path="url(#clip0_328_46)">
<path d="M1.06673e-07 228.291C0.0126215 239.672 9.23442 248.894 20.6157 248.907H239.384C250.766 248.894 259.987 239.672 260 228.291V135.736C260 135.027 259.8 134.332 259.423 133.732L234.757 94.2138V53.527C234.745 42.602 225.891 33.7474 214.963 33.7348H156.431C154.194 33.7396 151.999 33.1281 150.086 31.9675C148.174 30.8069 146.618 29.1419 145.589 27.1553L137.331 11.2877C135.665 8.07109 133.146 5.37512 130.05 3.49533C126.954 1.61554 123.4 0.624518 119.777 0.63089H82.9015C71.9739 0.643511 63.1194 9.49739 63.1068 20.4231V25.8736H57.6588C46.7312 25.8862 37.8767 34.7401 37.8641 45.6658V82.8199C32.699 85.2383 28.3588 89.1217 25.3834 93.9873L0.574272 133.729H0.576796C0.19974 134.331 -0.000168584 135.026 1.06673e-07 135.736V228.291ZM252.427 228.291C252.42 235.492 246.585 241.327 239.384 241.334H20.6157C13.4152 241.327 7.58039 235.492 7.57281 228.291V139.523H73.2039C79.2432 139.528 84.1365 144.423 84.1415 150.46C84.1542 160.678 92.4338 168.961 102.655 168.971H157.345C167.566 168.961 175.846 160.679 175.858 150.46C175.863 144.423 180.757 139.528 186.796 139.523H252.427V228.291ZM249.388 131.95H234.757V108.514L249.388 131.95ZM70.6796 20.4231C70.6872 13.6789 76.1548 8.21128 82.9015 8.20371H119.777C122.014 8.19894 124.21 8.81042 126.122 9.97104C128.035 11.1317 129.59 12.7966 130.619 14.7832L138.877 30.6508C140.543 33.8684 143.062 36.565 146.16 38.4449C149.257 40.3247 152.813 41.3152 156.436 41.3076H214.968C221.712 41.3177 227.177 46.7828 227.184 53.527V131.95H209.515V78.7697C209.502 67.8447 200.648 58.9902 189.72 58.9775H131.188C128.951 58.9823 126.756 58.3708 124.844 57.2102C122.931 56.0496 121.375 54.3846 120.347 52.398L112.088 36.5305C110.423 33.3138 107.904 30.6178 104.807 28.738C101.711 26.8583 98.1569 25.8672 94.5346 25.8736H70.6796V20.4231ZM57.6588 33.4464H94.5346C96.7717 33.4417 98.9669 34.0531 100.879 35.2138C102.792 36.3744 104.348 38.0393 105.376 40.0259L113.634 55.8935C115.3 59.1111 117.82 61.8077 120.917 63.6876C124.015 65.5674 127.57 66.5579 131.193 66.5504H189.725C196.469 66.5604 201.934 72.0255 201.942 78.7697V131.95H186.796C176.578 131.962 168.298 140.242 168.286 150.46C168.278 156.5 163.385 161.393 157.345 161.398H102.655C96.6152 161.393 91.7219 156.5 91.7144 150.46C91.7017 140.242 83.4221 131.962 73.2039 131.95H45.4369V45.6658C45.4445 38.9216 50.912 33.454 57.6588 33.4464ZM31.8292 97.9586C33.3763 95.4245 35.431 93.2379 37.8641 91.5362V131.949H10.612L31.8292 97.9586Z" fill="url(#paint0_linear_328_46)"/>
<path d="M172.072 182.435H87.928C85.8379 182.435 84.1416 184.128 84.1416 186.222V203.048C84.1416 205.141 85.8379 206.835 87.928 206.835H172.072C174.162 206.835 175.858 205.141 175.858 203.048V186.222C175.858 184.128 174.162 182.435 172.072 182.435ZM168.286 199.262H91.7144V190.008H168.286V199.262ZM155.243 99.7779H163.311C165.402 99.7779 167.097 98.0841 167.097 95.9915C167.097 93.9008 165.402 92.2051 163.311 92.2051H155.243C153.153 92.2051 151.456 93.9008 151.456 95.9915C151.456 98.0841 153.153 99.7779 155.243 99.7779ZM84.0677 99.7779H136.678C138.769 99.7779 140.464 98.0841 140.464 95.9915C140.464 93.9008 138.769 92.2051 136.678 92.2051H84.0677C81.977 92.2051 80.2813 93.9008 80.2813 95.9915C80.2813 98.0841 81.977 99.7779 84.0677 99.7779ZM163.311 111.137H108.566C106.476 111.137 104.779 112.833 104.779 114.924C104.779 117.016 106.476 118.71 108.566 118.71H163.311C165.402 118.71 167.097 117.016 167.097 114.924C167.097 112.833 165.402 111.137 163.311 111.137ZM84.0677 118.71H92.5032C94.5939 118.71 96.2896 117.016 96.2896 114.924C96.2896 112.833 94.5939 111.137 92.5032 111.137H84.0677C81.977 111.137 80.2813 112.833 80.2813 114.924C80.2813 117.016 81.977 118.71 84.0677 118.71Z" fill="url(#paint1_linear_328_46)"/>
</g>
<defs>
<linearGradient id="paint0_linear_328_46" x1="130" y1="0.630859" x2="130" y2="248.907" gradientUnits="userSpaceOnUse">
<stop stop-color="#ECF1FF"/>
<stop offset="1" stop-color="#5B8FBC"/>
</linearGradient>
<linearGradient id="paint1_linear_328_46" x1="128.07" y1="92.2051" x2="128.07" y2="206.835" gradientUnits="userSpaceOnUse">
<stop stop-color="#ECF1FF"/>
<stop offset="1" stop-color="#5B8FBC"/>
</linearGradient>
<clipPath id="clip0_328_46">
<rect width="260" height="260" fill="white"/>
</clipPath>
</defs>
</svg>
