<svg width="72" height="72" viewBox="0 0 72 72" fill="none" xmlns="http://www.w3.org/2000/svg">
<path d="M67.0748 33.2711C66.4896 32.2639 65.6478 31.4289 64.6347 30.8508C63.6216 30.2726 62.4732 29.972 61.306 29.9793H59.0788V29.1192C59.2534 27.6166 59.0851 26.0941 58.5864 24.6656C58.0878 23.237 57.2717 21.9394 56.1992 20.8698C55.1268 19.8003 53.8257 18.9864 52.3933 18.489C50.9609 17.9917 49.4343 17.8239 47.9277 17.998H31.0108L25.7148 12.7192C25.5082 12.5122 25.2626 12.348 24.9921 12.236C24.7217 12.124 24.4316 12.0665 24.1388 12.0667H15.218C13.7113 11.8926 12.1847 12.0604 10.7524 12.5577C9.31998 13.0551 8.0189 13.8689 6.94643 14.9385C5.87396 16.0081 5.05788 17.3057 4.55923 18.7343C4.06058 20.1628 3.89228 21.6853 4.0669 23.1879V54.3629C4.07398 56.1271 4.7823 57.8166 6.03652 59.0608C7.29075 60.305 8.98851 61.0024 10.7575 61H48.7692C50.7547 61.0001 52.7043 60.4726 54.4175 59.4718C56.1308 58.471 57.5457 57.0331 58.5168 55.3059L67.1402 39.8845C67.7147 38.8742 68.0112 37.7304 67.9997 36.5691C67.9882 35.4077 67.6691 34.27 67.0748 33.2711ZM15.218 16.5152H23.214L28.51 21.7941C28.7166 22.0011 28.9622 22.1653 29.2327 22.2772C29.5032 22.3892 29.7932 22.4467 30.086 22.4465H47.9277C52.6171 22.4465 54.6183 24.4424 54.6183 29.1192V29.9852L23.3092 29.9674C21.3224 29.9665 19.3714 30.4942 17.6574 31.4962C15.9434 32.4982 14.5285 33.9381 13.5587 35.6674L8.52732 44.6533V23.1879C8.52732 18.5111 10.5286 16.5152 15.218 16.5152ZM63.2507 37.7196L54.6273 53.141C54.0455 54.1782 53.1966 55.0416 52.1684 55.6422C51.1401 56.2428 49.9698 56.5588 48.7782 56.5574H10.7575C10.3679 56.5618 9.98413 56.4627 9.64553 56.2705C9.30693 56.0782 9.02569 55.7995 8.83063 55.4631C8.63331 55.1339 8.52739 54.7581 8.52373 54.3746C8.52007 53.991 8.61881 53.6134 8.80981 53.2804L17.4333 37.8382C18.0156 36.8009 18.8649 35.9373 19.8937 35.3367C20.9225 34.7361 22.0933 34.4203 23.2854 34.4218L61.2852 34.4426C61.6716 34.4399 62.0519 34.5383 62.3882 34.728C62.7245 34.9177 63.0051 35.1921 63.2019 35.5237C63.3987 35.8553 63.5048 36.2326 63.5098 36.6179C63.5147 37.0032 63.4182 37.3831 63.2299 37.7196H63.2507Z" fill="#C7D3FB"/>
</svg>
