<svg width="24" height="24" viewBox="0 0 24 24" fill="none" xmlns="http://www.w3.org/2000/svg">
<path fill-rule="evenodd" clip-rule="evenodd" d="M21.75 19.0989C21.7507 21.0439 20.1216 22.5988 18.1793 22.4951C14.2216 22.2836 9.90261 20.3454 6.4049 16.8479C2.90475 13.3499 0.96578 9.02926 0.754882 5.07021C0.651423 3.12893 2.20552 1.5 4.15024 1.5H6.35029C6.88439 1.5 7.20184 1.95205 7.32299 2.47263L8.27954 6.62797C8.33961 6.88891 8.33167 7.1609 8.25651 7.4179C8.18134 7.6749 8.04145 7.9083 7.85023 8.09576L6.84349 9.08276C6.49437 9.42495 6.27599 9.8785 6.2262 10.3648C6.17642 10.8511 6.29837 11.3395 6.57092 11.7453C7.20029 12.6824 7.94529 13.5916 8.80037 14.4481C9.6272 15.2771 10.5325 16.0239 11.5036 16.6781C11.9094 16.9505 12.3977 17.0724 12.884 17.0226C13.3702 16.9728 13.8237 16.7545 14.1659 16.4056L15.1534 15.3984C15.3408 15.2072 15.5743 15.0674 15.8313 14.9922C16.0883 14.917 16.3603 14.9091 16.6213 14.9692L20.7766 15.9256C21.2973 16.0468 21.7493 16.364 21.7493 16.8983L21.75 19.0989Z" fill="#025195"/>
</svg>
