<svg width="80" height="80" viewBox="0 0 80 80" fill="none" xmlns="http://www.w3.org/2000/svg">
<path d="M70 29.3359C70.0011 28.64 69.8637 27.9508 69.5957 27.3085L69.595 27.307L63.735 13.2449C62.9136 11.2737 61.0028 10 58.8673 10H21.1327C18.9972 10 17.0865 11.2737 16.265 13.2449L10.4043 27.3084C10.1363 27.9507 9.9989 28.6399 10 29.3359V36.6016C10 37.9512 10.5102 39.1834 11.3471 40.1172C10.5102 41.0509 10 42.2832 10 43.6328V50.6641C10 52.0137 10.5102 53.2459 11.3471 54.1797C10.5102 55.1134 10 56.3457 10 57.6953V64.7266C10 67.6343 12.3657 70 15.2734 70H64.7266C67.6343 70 70 67.6343 70 64.7266V57.6953C70 56.3457 69.4898 55.1134 68.6529 54.1797C69.4899 53.2459 70 52.0137 70 50.6641V43.6328C70 42.2832 69.4898 41.0509 68.6529 40.1172C69.4899 39.1834 70 37.9512 70 36.6016V29.3359ZM19.5101 14.5973C19.6431 14.2766 19.8683 14.0026 20.1572 13.8101C20.446 13.6175 20.7855 13.515 21.1327 13.5156H58.8673C59.2145 13.515 59.554 13.6175 59.8428 13.8101C60.1317 14.0026 60.3569 14.2766 60.4899 14.5973L64.4344 24.0625H15.5656L19.5101 14.5973ZM66.4844 64.7266C66.4844 65.6958 65.6958 66.4844 64.7266 66.4844H15.2734C14.3042 66.4844 13.5156 65.6958 13.5156 64.7266V57.6953C13.5156 56.7261 14.3042 55.9375 15.2734 55.9375H64.7266C65.6958 55.9375 66.4844 56.7261 66.4844 57.6953V64.7266ZM66.4844 50.6641C66.4844 51.6333 65.6958 52.4219 64.7266 52.4219H15.2734C14.3042 52.4219 13.5156 51.6333 13.5156 50.6641V43.6328C13.5156 42.6636 14.3042 41.875 15.2734 41.875H64.7266C65.6958 41.875 66.4844 42.6636 66.4844 43.6328V50.6641ZM66.4844 36.6016C66.4844 37.5708 65.6958 38.3594 64.7266 38.3594H15.2734C14.3042 38.3594 13.5156 37.5708 13.5156 36.6016V29.3359C13.5156 28.3584 14.305 27.5781 15.2734 27.5781H64.7266C65.6981 27.5781 66.4844 28.3614 66.4844 29.3359V36.6016Z" fill="#C7D3FB"/>
<path d="M61.2109 59.4531H29.3359C28.3652 59.4531 27.5781 60.2402 27.5781 61.2109C27.5781 62.1817 28.3652 62.9688 29.3359 62.9688H61.2109C62.1817 62.9688 62.9688 62.1817 62.9688 61.2109C62.9688 60.2402 62.1817 59.4531 61.2109 59.4531ZM61.2109 31.0938H29.3359C28.3652 31.0938 27.5781 31.8808 27.5781 32.8516C27.5781 33.8223 28.3652 34.6094 29.3359 34.6094H61.2109C62.1817 34.6094 62.9688 33.8223 62.9688 32.8516C62.9688 31.8808 62.1817 31.0938 61.2109 31.0938ZM18.7891 31.0938C17.8183 31.0938 17.0312 31.8808 17.0312 32.8516C17.0312 33.8223 17.8183 34.8438 18.7891 34.8438C19.7598 34.8438 20.5469 33.8223 20.5469 32.8516C20.5469 31.8808 19.7598 31.0938 18.7891 31.0938ZM61.2109 45.3906H29.3359C28.3652 45.3906 27.5781 46.1777 27.5781 47.1484C27.5781 48.1192 28.3652 48.9062 29.3359 48.9062H61.2109C62.1817 48.9062 62.9688 48.1192 62.9688 47.1484C62.9688 46.1777 62.1817 45.3906 61.2109 45.3906Z" fill="#C7D3FB"/>
<path d="M18.7891 48.9062C19.7599 48.9062 20.5469 48.1193 20.5469 47.1484C20.5469 46.1776 19.7599 45.3906 18.7891 45.3906C17.8182 45.3906 17.0312 46.1776 17.0312 47.1484C17.0312 48.1193 17.8182 48.9062 18.7891 48.9062Z" fill="#C7D3FB"/>
<path d="M18.7891 62.9688C19.7599 62.9688 20.5469 62.1818 20.5469 61.2109C20.5469 60.2401 19.7599 59.4531 18.7891 59.4531C17.8182 59.4531 17.0312 60.2401 17.0312 61.2109C17.0312 62.1818 17.8182 62.9688 18.7891 62.9688Z" fill="#C7D3FB"/>
</svg>
