<svg width="72" height="72" viewBox="0 0 72 72" fill="none" xmlns="http://www.w3.org/2000/svg">
<path fill-rule="evenodd" clip-rule="evenodd" d="M34.4796 48.4612L34.4686 48.4403C32.7086 45.0712 31.8885 41.2148 31.8885 36.9742C31.8885 33.8072 32.3447 30.8599 33.3169 28.1763L33.3215 28.1636L33.3262 28.151C34.3303 25.4498 35.8013 23.0889 37.7574 21.1217C39.7096 19.1241 42.0556 17.6089 44.7449 16.5613L44.7524 16.5584L44.7598 16.5556C47.5147 15.4983 50.5365 15 53.7798 15C55.7645 15 57.7515 15.2578 59.7349 15.7623C61.7536 16.2332 63.6005 16.9376 65.2273 17.9185C66.523 18.6576 67.6671 19.7339 68.3112 21.2426C68.8444 22.4914 69.0305 23.84 68.7853 25.2132C68.5857 26.5185 68.033 27.712 67.1288 28.7015C66.2075 29.7487 65.0163 30.4184 63.6711 30.6885C62.036 31.0168 60.504 30.5812 59.2419 29.9224L59.155 29.877L59.071 29.8264C58.3121 29.3694 57.5331 29.0491 56.7265 28.8528C55.843 28.6378 54.9483 28.5305 54.0371 28.5305C52.1665 28.5305 50.8238 28.9077 49.8511 29.4808L49.8416 29.4864L49.8321 29.4919C48.8996 30.0327 48.1744 30.8182 47.6462 31.9709C47.1036 33.155 46.7571 34.7818 46.7571 36.9742C46.7571 39.1217 47.1002 40.762 47.6561 41.9994C48.1876 43.1822 48.9155 43.9976 49.842 44.565C50.8213 45.1108 52.1708 45.4695 54.0371 45.4695C54.8643 45.4695 55.7247 45.3659 56.6236 45.1472L56.6342 45.1446L56.6447 45.1421C57.5247 44.9343 58.3674 44.6097 59.1792 44.1629L59.2327 44.1334L59.2873 44.106C60.5302 43.4822 62.0345 43.0521 63.6313 43.3456C64.9912 43.5584 66.234 44.186 67.194 45.2562C68.1069 46.2046 68.676 47.3692 68.8837 48.6573C69.1297 49.969 68.9786 51.2661 68.4956 52.4781C67.9283 53.9016 66.9162 54.9677 65.7322 55.7331C64.1027 56.8313 62.1985 57.6254 60.0918 58.1737C57.9899 58.7207 55.8839 59 53.7798 59C49.4479 59 45.5399 58.1403 42.1858 56.2699C38.8766 54.4245 36.2931 51.8125 34.4908 48.482L34.4796 48.4612ZM63.9666 53.0352C64.7212 52.5532 65.2356 51.9679 65.51 51.2793C65.7844 50.5908 65.853 49.9022 65.7158 49.2136C65.6129 48.525 65.3214 47.9398 64.8412 47.4577C64.3953 46.9413 63.8122 46.6315 63.092 46.5282C62.406 46.3905 61.6171 46.5454 60.7253 46.993C59.6621 47.5782 58.5474 48.0086 57.3812 48.284C56.2493 48.5595 55.1346 48.6972 54.0371 48.6972C51.739 48.6972 49.8011 48.2496 48.2234 47.3545C46.6799 46.4249 45.5138 45.0822 44.7249 43.3263C43.936 41.5704 43.5416 39.4531 43.5416 36.9742C43.5416 34.4609 43.936 32.3435 44.7249 30.6221C45.5138 28.9006 46.6799 27.5923 48.2234 26.6972C49.8011 25.7676 51.739 25.3028 54.0371 25.3028C55.2032 25.3028 56.3522 25.4405 57.4841 25.716C58.616 25.9914 59.6964 26.439 60.7253 27.0587C61.5828 27.5063 62.3545 27.6612 63.0405 27.5235C63.7265 27.3858 64.2924 27.0587 64.7383 26.5423C65.2185 26.0258 65.51 25.4061 65.6129 24.6831C65.7501 23.9601 65.6644 23.2371 65.3557 22.5141C65.047 21.7911 64.4639 21.1886 63.6065 20.7066C62.3031 19.9147 60.7596 19.3122 58.9761 18.8991C57.2269 18.4515 55.4948 18.2277 53.7798 18.2277C50.8644 18.2277 48.2405 18.6753 45.9082 19.5704C43.6102 20.4656 41.6552 21.7394 40.0431 23.392C38.4311 25.0102 37.1963 26.9726 36.3388 29.2793C35.5157 31.5516 35.1041 34.1166 35.1041 36.9742C35.1041 40.7958 35.8415 44.1182 37.3164 46.9413C38.8255 49.73 40.9692 51.8991 43.7474 53.4484C46.5256 54.9977 49.8697 55.7723 53.7798 55.7723C55.5977 55.7723 57.4327 55.5313 59.2848 55.0493C61.1369 54.5673 62.6975 53.8959 63.9666 53.0352Z" fill="#C7D3FB"/>
<path fill-rule="evenodd" clip-rule="evenodd" d="M21.9019 48.6458H26.5837C27.647 48.6458 28.4702 48.9212 29.0533 49.4721C29.6363 50.0229 29.9279 50.832 29.9279 51.8993C29.9279 52.9666 29.6363 53.7929 29.0533 54.3782C28.4702 54.929 27.647 55.2045 26.5837 55.2045H8.73117C7.6336 55.2045 6.79328 54.9118 6.2102 54.3265C5.62712 53.7412 5.33558 52.9322 5.33558 51.8993C5.33558 50.832 5.62712 50.0229 6.2102 49.4721C6.79328 48.9212 7.6336 48.6458 8.73117 48.6458H13.9274V27.6528L10.1717 29.9509C9.38284 30.4329 8.64542 30.6223 7.95944 30.519C7.30776 30.4157 6.74183 30.1231 6.26165 29.6411C5.78146 29.1591 5.45562 28.591 5.28413 27.9369C5.14693 27.2483 5.21553 26.5769 5.48992 25.9228C5.76431 25.2342 6.2788 24.6489 7.03337 24.1669L14.1847 19.8289C14.905 19.3813 15.6252 19.0198 16.3455 18.7444C17.1001 18.4689 17.8375 18.3312 18.5578 18.3312C19.5868 18.3312 20.3928 18.6066 20.9759 19.1575C21.5933 19.6739 21.9019 20.483 21.9019 21.5847V48.6458ZM25.1175 24.5858L29.1358 22.127H25.1175V21.5847C25.1175 19.9218 24.6428 18.0704 23.1098 16.7421C21.7862 15.5305 20.1359 15.1035 18.5578 15.1035C17.4223 15.1035 16.3133 15.3217 15.2466 15.711L15.2237 15.7194L15.2008 15.7281C14.2774 16.0812 13.3797 16.5342 12.5075 17.075L5.33843 21.4238L5.30704 21.4438C4.11381 22.206 3.09104 23.2711 2.51541 24.6965C2.00321 25.9316 1.86808 27.25 2.13105 28.5699L2.14995 28.6647L2.17448 28.7583C2.49204 29.9696 3.10845 31.0406 3.98793 31.9234C4.93357 32.8726 6.11424 33.4942 7.45794 33.7072L7.47019 33.7092L7.48245 33.711C8.64948 33.8867 9.74139 33.6832 10.7119 33.2849V45.4181H8.73117C7.12228 45.4181 5.37759 45.8262 4.00639 47.1217C2.58561 48.4639 2.12005 50.2469 2.12005 51.8993C2.12005 53.564 2.60892 55.2763 3.93648 56.6089C5.3016 57.9791 7.07262 58.4322 8.73117 58.4322H26.5837C28.1908 58.4322 29.9034 58.0075 31.2571 56.7286L31.2925 56.6951L31.327 56.6605C32.6738 55.3085 33.1434 53.5636 33.1434 51.8993C33.1434 50.2469 32.6778 48.4639 31.2571 47.1217C29.9034 45.8428 28.1908 45.4181 26.5837 45.4181H25.1175V24.5858Z" fill="#C7D3FB"/>
</svg>
