<svg width="24" height="24" viewBox="0 0 24 24" fill="none" xmlns="http://www.w3.org/2000/svg">
<path d="M22.315 5.57171L15.9462 12L22.315 18.4283C22.4301 18.1838 22.5 17.9136 22.5 17.625V6.375C22.5 6.08637 22.4301 5.81617 22.315 5.57171ZM20.6543 4.5H3.3457C3.06159 4.5 2.7956 4.57096 2.55496 4.68792L10.695 12.9155C11.4148 13.6467 12.5852 13.6467 13.305 12.9155L21.445 4.68792C21.2044 4.57096 20.9384 4.5 20.6543 4.5ZM1.68498 5.57171C1.56985 5.81617 1.5 6.08637 1.5 6.375V17.625C1.5 17.9136 1.56985 18.1839 1.68498 18.4283L8.05385 12L1.68498 5.57171Z" fill="#025195"/>
<path d="M15.0763 12.8838L14.175 13.7993C12.9758 15.0176 11.0244 15.0176 9.82511 13.7993L8.92392 12.8838L2.55505 19.3121C2.79569 19.429 3.06168 19.5 3.34579 19.5H20.6544C20.9385 19.5 21.2045 19.429 21.4451 19.3121L15.0763 12.8838Z" fill="#025195"/>
</svg>
