<svg width="80" height="80" viewBox="0 0 80 80" fill="none" xmlns="http://www.w3.org/2000/svg">
<path d="M26.6675 17.1512C25.3008 17.1512 24.1675 16.0442 24.1675 14.7093V4.94186C24.1675 3.60698 25.3008 2.5 26.6675 2.5C28.0341 2.5 29.1675 3.60698 29.1675 4.94186V14.7093C29.1675 16.0442 28.0341 17.1512 26.6675 17.1512ZM53.3341 17.1512C51.9675 17.1512 50.8341 16.0442 50.8341 14.7093V4.94186C50.8341 3.60698 51.9675 2.5 53.3341 2.5C54.7008 2.5 55.8341 3.60698 55.8341 4.94186V14.7093C55.8341 16.0442 54.7008 17.1512 53.3341 17.1512ZM28.3341 45.6395C27.9008 45.6395 27.4675 45.5419 27.0675 45.3791C26.6341 45.2163 26.3008 44.9884 25.9675 44.6953C25.3675 44.0767 25.0008 43.2628 25.0008 42.3837C25.0008 41.9605 25.1008 41.5372 25.2675 41.1465C25.4341 40.7558 25.6675 40.3977 25.9675 40.0721C26.3008 39.7791 26.6341 39.5512 27.0675 39.3884C28.2675 38.9 29.7675 39.1605 30.7008 40.0721C31.3008 40.6907 31.6675 41.5372 31.6675 42.3837C31.6675 42.5791 31.6341 42.807 31.6008 43.0349C31.5675 43.2302 31.5008 43.4256 31.4008 43.6209C31.3341 43.8163 31.2341 44.0116 31.1008 44.207C31.0008 44.3698 30.8341 44.5326 30.7008 44.6953C30.0675 45.2814 29.2008 45.6395 28.3341 45.6395ZM40.0008 45.6395C39.5675 45.6395 39.1341 45.5419 38.7341 45.3791C38.3008 45.2163 37.9675 44.9884 37.6341 44.6953C37.0341 44.0767 36.6675 43.2628 36.6675 42.3837C36.6675 41.9605 36.7675 41.5372 36.9341 41.1465C37.1008 40.7558 37.3341 40.3977 37.6341 40.0721C37.9675 39.7791 38.3008 39.5512 38.7341 39.3884C39.9341 38.8674 41.4342 39.1605 42.3675 40.0721C42.9675 40.6907 43.3341 41.5372 43.3341 42.3837C43.3341 42.5791 43.3008 42.807 43.2675 43.0349C43.2341 43.2302 43.1675 43.4256 43.0675 43.6209C43.0008 43.8163 42.9008 44.0116 42.7675 44.207C42.6675 44.3698 42.5008 44.5326 42.3675 44.6953C41.7341 45.2814 40.8675 45.6395 40.0008 45.6395ZM51.6675 45.6395C51.2341 45.6395 50.8008 45.5419 50.4008 45.3791C49.9675 45.2163 49.6341 44.9884 49.3008 44.6953L48.9008 44.207C48.7746 44.0255 48.6737 43.8284 48.6008 43.6209C48.5045 43.4364 48.4371 43.2389 48.4008 43.0349C48.3675 42.807 48.3341 42.5791 48.3341 42.3837C48.3341 41.5372 48.7008 40.6907 49.3008 40.0721C49.6341 39.7791 49.9675 39.5512 50.4008 39.3884C51.6341 38.8674 53.1008 39.1605 54.0341 40.0721C54.6341 40.6907 55.0008 41.5372 55.0008 42.3837C55.0008 42.5791 54.9675 42.807 54.9341 43.0349C54.9008 43.2302 54.8341 43.4256 54.7341 43.6209C54.6675 43.8163 54.5675 44.0116 54.4342 44.207C54.3341 44.3698 54.1675 44.5326 54.0341 44.6953C53.4008 45.2814 52.5341 45.6395 51.6675 45.6395ZM28.3341 57.0349C27.9008 57.0349 27.4675 56.9372 27.0675 56.7744C26.6675 56.6116 26.3008 56.3837 25.9675 56.0907C25.3675 55.4721 25.0008 54.6256 25.0008 53.7791C25.0008 53.3558 25.1008 52.9326 25.2675 52.5419C25.4341 52.1186 25.6675 51.7605 25.9675 51.4674C27.2008 50.2628 29.4675 50.2628 30.7008 51.4674C31.3008 52.086 31.6675 52.9326 31.6675 53.7791C31.6675 54.6256 31.3008 55.4721 30.7008 56.0907C30.0675 56.6767 29.2008 57.0349 28.3341 57.0349ZM40.0008 57.0349C39.1341 57.0349 38.2675 56.6767 37.6341 56.0907C37.0341 55.4721 36.6675 54.6256 36.6675 53.7791C36.6675 53.3558 36.7675 52.9326 36.9341 52.5419C37.1008 52.1186 37.3341 51.7605 37.6341 51.4674C38.8675 50.2628 41.1341 50.2628 42.3675 51.4674C42.6675 51.7605 42.9008 52.1186 43.0675 52.5419C43.2341 52.9326 43.3341 53.3558 43.3341 53.7791C43.3341 54.6256 42.9675 55.4721 42.3675 56.0907C41.7341 56.6767 40.8675 57.0349 40.0008 57.0349ZM51.6675 57.0349C50.8008 57.0349 49.9342 56.6767 49.3008 56.0907C48.9924 55.7849 48.7538 55.4187 48.6008 55.0163C48.4341 54.6256 48.3341 54.2023 48.3341 53.7791C48.3341 53.3558 48.4341 52.9326 48.6008 52.5419C48.7675 52.1186 49.0008 51.7605 49.3008 51.4674C50.0675 50.7186 51.2341 50.3605 52.3008 50.5884C52.5341 50.6209 52.7341 50.686 52.9342 50.7837C53.1342 50.8488 53.3341 50.9465 53.5341 51.0767C53.7008 51.1744 53.8675 51.3372 54.0341 51.4674C54.6341 52.086 55.0008 52.9326 55.0008 53.7791C55.0008 54.6256 54.6341 55.4721 54.0341 56.0907C53.4008 56.6767 52.5341 57.0349 51.6675 57.0349ZM68.3341 30.4674H11.6675C10.3008 30.4674 9.16748 29.3605 9.16748 28.0256C9.16748 26.6907 10.3008 25.5837 11.6675 25.5837H68.3341C69.7008 25.5837 70.8341 26.6907 70.8341 28.0256C70.8341 29.3605 69.7008 30.4674 68.3341 30.4674Z" fill="#C7D3FB"/>
<path d="M53.3333 72.5001H26.6667C14.5 72.5001 7.5 65.6629 7.5 53.7791V26.1047C7.5 14.221 14.5 7.38379 26.6667 7.38379H53.3333C65.5 7.38379 72.5 14.221 72.5 26.1047V53.7791C72.5 65.6629 65.5 72.5001 53.3333 72.5001ZM26.6667 12.2675C17.1333 12.2675 12.5 16.7931 12.5 26.1047V53.7791C12.5 63.0908 17.1333 67.6163 26.6667 67.6163H53.3333C62.8667 67.6163 67.5 63.0908 67.5 53.7791V26.1047C67.5 16.7931 62.8667 12.2675 53.3333 12.2675H26.6667Z" fill="#C7D3FB"/>
</svg>
