<svg width="260" height="260" viewBox="0 0 260 260" fill="none" xmlns="http://www.w3.org/2000/svg">
<path d="M258.321 62.4133L199.194 19.1496C198.713 18.7952 198.16 18.5514 197.573 18.4355C196.987 18.3196 196.382 18.3345 195.802 18.4792L124.773 36.4957C124.027 36.6859 123.351 37.084 122.823 37.6437C122.294 38.2034 121.936 38.9016 121.789 39.657C121.642 40.4125 121.713 41.1941 121.993 41.9109C122.273 42.6277 122.751 43.2502 123.371 43.7059L142.18 57.4365L138.117 78.0321C135.903 89.5283 154.366 107.728 179.248 112.561C183.612 113.404 188.046 113.826 192.491 113.821C199.305 113.863 206.081 112.807 212.558 110.693C222.511 107.382 229.153 101.857 230.311 95.9469L234.373 75.4119L256.939 69.7045C257.685 69.5143 258.361 69.1162 258.889 68.5565C259.418 67.9968 259.776 67.2986 259.923 66.5432C260.07 65.7877 259.999 65.0061 259.719 64.2893C259.439 63.5725 258.961 62.95 258.341 62.4943L258.321 62.4133ZM222.39 94.3834C221.923 96.7598 217.515 100.477 210.02 102.975C200.556 105.938 190.5 106.483 180.772 104.56C157.921 100.111 145.166 84.6543 146.242 79.5766L149.513 62.7386L182.498 86.9497C183.193 87.4616 184.032 87.739 184.895 87.7419C185.239 87.7442 185.581 87.6964 185.911 87.5998L225.64 77.5459L222.39 94.3834ZM185.829 79.2717L135.152 42.2235L195.944 26.8272L246.56 63.8551L185.829 79.2717ZM99.3228 114.593C98.7117 114.946 98.2031 115.452 97.8469 116.061C97.4908 116.67 97.2993 117.361 97.2915 118.067V190.538C97.2994 191.243 97.4908 191.934 97.847 192.543C98.2032 193.153 98.7118 193.658 99.3228 194.011C99.9336 194.389 100.636 194.592 101.354 194.6C102.01 194.606 102.659 194.453 103.243 194.153L172.505 157.897C173.16 157.552 173.708 157.035 174.091 156.402C174.474 155.768 174.676 155.042 174.676 154.302C174.676 153.562 174.474 152.836 174.091 152.202C173.708 151.569 173.16 151.052 172.505 150.707L103.304 114.451C102.684 114.131 101.992 113.976 101.295 114.001C100.597 114.026 99.9183 114.23 99.3228 114.593ZM105.417 124.749L161.862 154.302L105.478 183.835L105.417 124.749Z" fill="url(#paint0_linear_328_31)"/>
<path d="M247.8 217.268H226.94C227.301 216.132 227.486 214.947 227.488 213.754V119.773C227.488 118.696 227.06 117.662 226.298 116.9C225.537 116.139 224.503 115.711 223.426 115.711C222.348 115.711 221.315 116.139 220.553 116.9C219.791 117.662 219.363 118.696 219.363 119.773V213.754C219.355 214.223 219.255 214.687 219.068 215.117C218.881 215.548 218.611 215.937 218.274 216.264C217.936 216.59 217.538 216.847 217.101 217.019C216.664 217.191 216.198 217.276 215.728 217.268H36.1339C35.6646 217.276 35.1982 217.191 34.7614 217.019C34.3247 216.847 33.9261 216.591 33.5885 216.264C33.2509 215.938 32.9808 215.549 32.7937 215.118C32.6066 214.688 32.5061 214.224 32.4981 213.755V90.7882C32.506 90.3188 32.6063 89.8556 32.7933 89.425C32.9803 88.9944 33.2503 88.6048 33.5878 88.2785C33.9253 87.9522 34.3238 87.6956 34.7605 87.5234C35.1972 87.3511 35.6636 87.2665 36.133 87.2745H125.931C127.008 87.2745 128.041 86.8465 128.803 86.0846C129.565 85.3227 129.993 84.2894 129.993 83.212C129.993 82.1345 129.565 81.1012 128.803 80.3394C128.041 79.5775 127.008 79.1495 125.931 79.1495H36.1339C29.6771 79.1272 24.4181 84.3313 24.3735 90.7877V213.753C24.376 214.946 24.5607 216.131 24.9218 217.267H4.0625C2.98506 217.267 1.95175 217.695 1.18988 218.457C0.428012 219.219 0 220.252 0 221.33L0 222.345C0 231.485 7.19034 241.641 16.838 241.641H235.024C244.672 241.641 251.862 231.485 251.862 222.345V221.33C251.862 220.253 251.434 219.22 250.672 218.458C249.91 217.696 248.877 217.268 247.8 217.268ZM235.024 233.517H16.838C13.3243 233.517 9.74951 229.78 8.55113 225.393H243.311C242.112 229.78 238.538 233.517 235.024 233.517Z" fill="url(#paint1_linear_328_31)"/>
<defs>
<linearGradient id="paint0_linear_328_31" x1="178.645" y1="18.3584" x2="178.645" y2="194.6" gradientUnits="userSpaceOnUse">
<stop stop-color="#ECF1FF"/>
<stop offset="1" stop-color="#5B8FBC"/>
</linearGradient>
<linearGradient id="paint1_linear_328_31" x1="125.931" y1="79.1494" x2="125.931" y2="241.641" gradientUnits="userSpaceOnUse">
<stop stop-color="#ECF1FF"/>
<stop offset="1" stop-color="#5B8FBC"/>
</linearGradient>
</defs>
</svg>
