<svg width="72" height="72" viewBox="0 0 72 72" fill="none" xmlns="http://www.w3.org/2000/svg">
<path d="M69.7486 31.1834C69.407 31.5056 69.0045 31.7565 68.5648 31.9212C68.1251 32.086 67.657 32.1614 67.1878 32.1429C66.7186 32.1245 66.2578 32.0127 65.8324 31.814C65.4069 31.6152 65.0254 31.3336 64.7101 30.9856C64.465 30.7431 64.1397 30.5987 63.7956 30.5795C62.7187 30.5795 61.6382 30.5583 60.5613 30.5547H56.7939C55.8194 30.5547 55.7523 30.6254 55.7347 31.6143V34.4398C55.7347 35.4853 55.7347 36.5319 55.7347 37.5797C55.7347 40.1897 53.9692 41.9628 51.3458 41.9945C49.3544 42.0193 47.363 41.9945 45.3716 41.9945H44.4854C44.448 42.48 44.448 42.9677 44.4854 43.4532C44.5843 44.0925 45.0821 44.2408 45.6647 44.2408C48.5953 44.2408 51.5247 44.2408 54.453 44.2408C54.6889 44.2413 54.9246 44.2543 55.1591 44.2797C57.3447 44.5057 58.9124 45.7843 59.3714 47.8434C59.4342 48.1372 59.4685 48.4365 59.4738 48.7369C59.495 49.2526 59.4738 49.7965 59.5268 50.2945C59.5552 50.6383 59.6953 50.9633 59.9258 51.2198C61.4334 52.6326 61.5323 54.8506 60.1129 56.2952C59.7874 56.6203 59.4006 56.8774 58.9749 57.0517C58.5492 57.2259 58.0931 57.3138 57.6332 57.3102C57.1733 57.3065 56.7186 57.2115 56.2957 57.0306C55.8728 56.8497 55.4901 56.5865 55.1697 56.2563C55.0102 56.0879 54.8671 55.9046 54.7425 55.7089C53.8245 54.2785 54.0858 52.4383 55.4487 51.1916C55.6443 50.9882 55.7683 50.7266 55.8017 50.4464C55.8353 50.0138 55.8353 49.5792 55.8017 49.1466C55.7841 48.2742 55.4487 47.9458 54.5907 47.9458H45.9401C43.5639 47.9458 42.3775 47.2853 41.0746 45.1838C41.0464 45.4629 41.0146 45.6465 41.0146 45.8302C41.0146 49.6905 41.0146 53.5474 41.0146 57.4042C41.0146 57.6761 41.0146 57.9516 41.0146 58.2271C41.0146 60.0425 42.5152 61.261 44.1923 60.8654C44.708 60.746 45.1738 60.469 45.5249 60.0728C45.8761 59.6766 46.0952 59.1809 46.152 58.6545C46.2137 58.156 46.2137 57.6519 46.152 57.1534C46.0657 56.8606 45.898 56.5985 45.6682 56.3976C45.4985 56.2288 45.3437 56.0457 45.2057 55.8502C44.8798 55.4116 44.6685 54.8987 44.5908 54.3578C44.5131 53.817 44.5715 53.2653 44.7608 52.7527C44.9606 52.1664 45.3146 51.6448 45.7856 51.2427C46.2567 50.8406 46.8273 50.5728 47.4375 50.4677C48.0478 50.3625 48.6751 50.4238 49.2535 50.645C49.8319 50.8662 50.34 51.2393 50.7244 51.7249C50.8361 51.8683 50.9375 52.0194 51.028 52.177C51.4152 52.8456 51.5609 53.627 51.4407 54.3902C51.3205 55.1535 50.9417 55.8522 50.3678 56.3693C50.192 56.5081 50.0539 56.6889 49.9663 56.895C49.8787 57.1012 49.8443 57.3261 49.8664 57.549C49.9167 58.2987 49.8584 59.0517 49.6934 59.7847C49.4968 60.6585 49.1084 61.4776 48.5565 62.1828C47.7573 63.2248 46.6514 63.9897 45.3947 64.3699C44.138 64.7501 42.7938 64.7263 41.5513 64.302C40.9061 64.0881 40.3012 63.7682 39.7611 63.3554C38.9979 62.7798 38.3778 62.0357 37.9491 61.1812C37.5204 60.3266 37.2947 59.3846 37.2895 58.4284C37.2895 58.2624 37.2895 58.1 37.2895 57.934C37.2895 53.0564 37.2895 48.1754 37.2895 43.2943V42.4855H35.3582V43.4426C35.3582 48.2884 35.3582 53.1341 35.3582 57.9764V58.4426C35.3423 60.089 34.6821 61.6636 33.5191 62.8288C32.3562 63.994 30.783 64.6569 29.1371 64.6754C27.4912 64.6938 25.9036 64.0664 24.7148 62.9277C23.526 61.7889 22.8306 60.2295 22.7778 58.5838C22.7672 58.4239 22.7672 58.2634 22.7778 58.1035C22.8236 57.75 22.7833 57.3907 22.6604 57.0562C22.5374 56.7216 22.3354 56.4218 22.0716 56.1822C20.8817 55.0131 20.8958 53.0458 21.9127 51.7602C22.0192 51.6242 22.1373 51.4978 22.2658 51.3823C22.928 50.7687 23.8032 50.4373 24.7056 50.4584C25.608 50.4795 26.4667 50.8514 27.0995 51.4953C27.6664 52.0702 28.0125 52.8265 28.0771 53.6314C28.1416 54.4363 27.9205 55.2381 27.4526 55.8961C27.3335 56.065 27.2 56.2234 27.0536 56.3693C26.3475 57.0757 26.2486 58.6792 26.8383 59.6928C27.1158 60.1728 27.5401 60.5509 28.0486 60.7715C28.5571 60.9921 29.123 61.0436 29.6629 60.9184C30.2287 60.7957 30.7358 60.4841 31.101 60.0347C31.4661 59.5854 31.6675 59.0251 31.672 58.4461C31.672 58.0929 31.672 57.7715 31.672 57.436C31.672 56.5636 31.672 55.6877 31.672 54.8153V45.311C31.5307 45.4134 31.4637 45.4381 31.4354 45.484C30.3762 47.2818 28.7979 48.0164 26.7394 47.9811C24.2078 47.9387 21.6797 47.9599 19.1481 47.9811H18.2901C17.252 47.9811 16.9448 48.2919 16.9413 49.3303C16.9537 49.5585 16.9537 49.7872 16.9413 50.0155C16.9061 50.2919 16.9428 50.5727 17.048 50.8308C17.1531 51.0888 17.3232 51.3153 17.5415 51.4883C18.1025 52.0321 18.4567 52.7545 18.543 53.5312C18.6293 54.3078 18.4425 55.0903 18.0147 55.7442C17.8632 55.98 17.6843 56.197 17.4815 56.3905C16.8087 57.0097 15.9175 57.3362 15.0041 57.2981C14.0906 57.26 13.2297 56.8605 12.6107 56.1874C11.9917 55.5144 11.6654 54.623 11.7035 53.7093C11.7415 52.7955 12.1409 51.9344 12.8137 51.3152C12.9649 51.1997 13.0843 51.0477 13.1608 50.8736C13.2374 50.6994 13.2686 50.5087 13.2516 50.3192C13.2215 49.7757 13.2215 49.231 13.2516 48.6875C13.2516 48.5921 13.2516 48.4968 13.2798 48.4049C13.3974 47.3195 13.8957 46.311 14.6863 45.5583C15.4768 44.8056 16.5085 44.3576 17.598 44.2938C17.7216 44.2938 17.8487 44.2938 17.9758 44.2938C20.8005 44.2726 23.6252 44.2514 26.4216 44.2938C28.1553 44.3256 28.4942 44.0713 28.24 42.0334H27.4597C25.4683 42.0334 23.4769 42.0334 21.4855 42.0334C18.8444 42.0334 17.0649 40.2286 17.0543 37.5867V34.461C17.0543 33.4909 17.0543 32.5196 17.0543 31.5472C17.0543 30.6784 16.9554 30.5759 16.1257 30.5759C14.8334 30.5759 13.5376 30.5759 12.2418 30.5759C11.1331 30.5759 10.0244 30.5759 8.9157 30.5971C8.61663 30.6138 8.33401 30.7394 8.12126 30.9503C7.81967 31.3112 7.44779 31.6069 7.02827 31.8193C6.60875 32.0318 6.15038 32.1565 5.68109 32.1861C5.2118 32.2156 4.74141 32.1492 4.2986 31.991C3.85578 31.8328 3.44981 31.586 3.10542 31.2657C2.76102 30.9455 2.48542 30.5585 2.29541 30.1282C2.10539 29.698 2.00494 29.2335 2.00018 28.7632C1.99541 28.2929 2.08644 27.8265 2.2677 27.3925C2.44896 26.9585 2.71666 26.5659 3.0545 26.2388C4.46684 24.8472 6.67008 24.9532 8.07889 26.4401C8.32865 26.6814 8.65717 26.8244 9.00397 26.8427C10.5893 26.8639 12.1817 26.8639 13.7635 26.8427H16.274C16.8736 26.8083 17.4737 26.9019 18.0345 27.1171C18.5952 27.3324 19.1038 27.6645 19.5265 28.0913C19.9492 28.5181 20.2764 29.03 20.4863 29.5929C20.6962 30.1559 20.784 30.757 20.744 31.3565C20.744 33.3661 20.744 35.3722 20.744 37.3819C20.744 38.2119 20.8605 38.3214 21.7044 38.3249C23.0767 38.3249 24.4502 38.3249 25.8249 38.3249C26.0191 38.3249 26.2098 38.2896 26.5099 38.2578C26.0721 37.9682 25.7084 37.7739 25.3977 37.5161C24.8202 37.0632 24.3575 36.4805 24.0471 35.8153C23.7367 35.1502 23.5873 34.4212 23.6111 33.6875C23.6111 30.2286 23.6111 26.7721 23.6111 23.3179V19.8602C23.6111 18.624 23.3604 18.3697 22.1387 18.3662C21.9092 18.3662 21.6797 18.3662 21.4537 18.3662C21.2185 18.3399 20.9808 18.347 20.7475 18.3874C20.2968 18.4757 19.886 18.7059 19.5753 19.0443C18.2336 20.3935 15.9809 20.2169 14.731 18.8006C14.1263 18.117 13.8142 17.2232 13.8617 16.3116C13.9093 15.4 14.3127 14.5436 14.9852 13.9266C15.3206 13.6223 15.7127 13.3874 16.1392 13.2352C16.5656 13.0831 17.0179 13.0167 17.4701 13.0401C17.9222 13.0634 18.3653 13.1758 18.7739 13.371C19.1824 13.5662 19.5484 13.8402 19.8507 14.1774C19.978 14.3487 20.1481 14.4836 20.3439 14.5685C20.5397 14.6534 20.7544 14.6854 20.9665 14.6612C21.4008 14.6294 21.835 14.6612 22.2729 14.6612C23.3613 14.6307 24.4327 14.9366 25.3412 15.5371C26.5734 16.3919 27.2867 17.8364 27.2902 19.6765V33.0165C27.2902 33.292 27.2902 33.5639 27.2902 33.8394C27.2841 33.9724 27.3059 34.1052 27.3542 34.2293C27.4026 34.3534 27.4763 34.466 27.5708 34.5598C27.6653 34.6536 27.7783 34.7266 27.9027 34.7741C28.0271 34.8216 28.16 34.8424 28.293 34.8354C29.7547 34.8601 31.2165 34.8354 32.7454 34.8354V32.0099C32.2276 31.9305 31.7166 31.8124 31.2165 31.6567C30.249 31.2611 29.5817 30.477 29.5676 29.4175C29.5182 26.2388 29.437 23.0283 29.5676 19.839C29.5676 19.5882 29.5888 19.3339 29.6029 19.0832C29.7618 15.9045 32.6959 13.2237 35.8772 13.0507C39.3763 12.8564 42.434 15.1027 43.1084 18.3838C43.2045 18.8681 43.26 19.3596 43.2743 19.8531C43.2743 19.9767 43.2743 20.0968 43.2743 20.2063C43.292 22.9894 43.2743 25.7761 43.2743 28.5592C43.2743 30.7172 42.3951 31.6743 40.2307 31.8969C40.1496 31.9137 40.0695 31.9349 39.9906 31.9604V34.8071C41.5548 34.8071 43.1048 34.8495 44.6478 34.7683C44.9303 34.7683 45.2375 34.2844 45.4352 33.963C45.5517 33.7794 45.474 33.4721 45.474 33.2213C45.474 29.089 45.474 24.9555 45.474 20.8208C45.474 20.4359 45.474 20.0509 45.474 19.6624C45.474 17.7975 46.1802 16.353 47.4231 15.4983C48.3285 14.9091 49.3903 14.6064 50.4702 14.6294C50.6538 14.6294 50.8233 14.6294 51.021 14.6294C51.4304 14.6957 51.8497 14.6619 52.2432 14.5309C52.6367 14.3999 52.9927 14.1756 53.2807 13.8771C54.5942 12.5492 56.8292 12.7893 58.0685 14.1915C58.6606 14.8697 58.9665 15.7512 58.9217 16.6505C58.8769 17.5498 58.485 18.3966 57.8285 19.0125C57.499 19.3239 57.1108 19.5663 56.6864 19.7256C56.2621 19.8848 55.8102 19.9577 55.3574 19.9399C54.9045 19.9222 54.4597 19.8141 54.0492 19.6221C53.6386 19.4301 53.2705 19.158 52.9665 18.8218C52.8526 18.6729 52.7063 18.5519 52.5387 18.468C52.371 18.3842 52.1865 18.3397 51.999 18.3379H51.8507C51.4412 18.3732 51.028 18.3379 50.6149 18.3379C49.4604 18.3379 49.2026 18.6028 49.2026 19.733V23.325C49.2026 26.7933 49.2026 30.2628 49.2026 33.7334C49.2311 34.5971 49.0178 35.4516 48.5867 36.2005C48.1556 36.9493 47.5239 37.5628 46.7628 37.9717L46.2861 38.2472C46.4977 38.2833 46.711 38.3081 46.9252 38.3214C48.3376 38.3214 49.7499 38.3214 51.1799 38.3214C51.8331 38.3214 52.0767 38.0706 52.0697 37.4278C52.0485 35.4182 52.052 33.4085 52.0697 31.4024C52.0276 30.794 52.1167 30.1837 52.3309 29.6128C52.5452 29.0419 52.8796 28.5237 53.3115 28.0933C53.7434 27.6629 54.2628 27.3304 54.8344 27.1183C55.4059 26.9062 56.0164 26.8194 56.6244 26.8639H59.0572C60.6284 26.8639 62.1961 26.8639 63.7638 26.8427C64.1311 26.8264 64.48 26.6771 64.7454 26.4224C65.0463 26.0507 65.4208 25.7454 65.8455 25.5256C66.2701 25.3058 66.7357 25.1763 67.2128 25.1453C67.6899 25.1144 68.1683 25.1825 68.6178 25.3455C69.0673 25.5085 69.4782 25.7629 69.8246 26.0925C70.171 26.4222 70.4455 26.82 70.6307 27.2609C70.8158 27.7019 70.9078 28.1764 70.9006 28.6546C70.8935 29.1328 70.7874 29.6044 70.5892 30.0396C70.3909 30.4748 70.1047 30.8643 69.7486 31.1834Z" stroke="#C7D3FB" stroke-width="1.57" stroke-miterlimit="10"/>
<path d="M43.2705 19.8604C44.0293 20.1413 44.7699 20.4692 45.4879 20.8422" stroke="#C7D3FB" stroke-width="1.57" stroke-miterlimit="10"/>
<path d="M12.242 30.5723C10.3346 36.5293 10.6968 42.9814 13.2589 48.6873" stroke="#C7D3FB" stroke-width="1.57" stroke-miterlimit="10"/>
<path d="M25.3583 15.5233C28.8034 13.8669 32.5768 13.0068 36.3992 13.0068C40.2216 13.0068 43.9951 13.8669 47.4402 15.5233" stroke="#C7D3FB" stroke-width="1.57" stroke-miterlimit="10"/>
<path d="M19.2152 47.9736C19.9872 49.3357 20.9189 50.6008 21.9905 51.7422" stroke="#C7D3FB" stroke-width="1.57" stroke-miterlimit="10"/>
<path d="M27.52 55.8789C28.8681 56.5577 30.2898 57.0792 31.757 57.4329" stroke="#C7D3FB" stroke-width="1.57" stroke-miterlimit="10"/>
<path d="M19.5221 28.1215C20.6217 26.3136 22.0046 24.6942 23.6179 23.3252" stroke="#C7D3FB" stroke-width="1.57" stroke-miterlimit="10"/>
<path d="M13.7631 26.874C15.4504 23.5712 17.8403 20.6779 20.7647 18.3975" stroke="#C7D3FB" stroke-width="1.57" stroke-miterlimit="10"/>
<path d="M17.0548 34.4609C16.4058 37.7325 16.5953 41.1152 17.6056 44.2937" stroke="#C7D3FB" stroke-width="1.57" stroke-miterlimit="10"/>
<path d="M18.0116 55.7373C19.5025 57.3001 21.1847 58.6684 23.0183 59.8096" stroke="#C7D3FB" stroke-width="1.57" stroke-miterlimit="10"/>
<path d="M50.802 51.7528C51.8781 50.6097 52.8123 49.3408 53.5843 47.9736" stroke="#C7D3FB" stroke-width="1.57" stroke-miterlimit="10"/>
<path d="M49.7709 59.8135C51.6101 58.6756 53.2962 57.3071 54.7882 55.7412" stroke="#C7D3FB" stroke-width="1.57" stroke-miterlimit="10"/>
<path d="M41.0596 57.4329C42.5268 57.0792 43.9485 56.5577 45.2966 55.8789" stroke="#C7D3FB" stroke-width="1.57" stroke-miterlimit="10"/>
<path d="M32.9675 63.3809C35.2476 63.687 37.5584 63.687 39.8385 63.3809" stroke="#C7D3FB" stroke-width="1.57" stroke-miterlimit="10"/>
<path d="M55.191 44.3114C56.2075 41.1281 56.3995 37.7387 55.7489 34.4609" stroke="#C7D3FB" stroke-width="1.57" stroke-miterlimit="10"/>
<path d="M51.9988 18.3525C54.9416 20.642 57.3442 23.5517 59.0358 26.875" stroke="#C7D3FB" stroke-width="1.57" stroke-miterlimit="10"/>
<path d="M53.2765 28.118C52.1783 26.3121 50.7979 24.694 49.1877 23.3252" stroke="#C7D3FB" stroke-width="1.57" stroke-miterlimit="10"/>
<path d="M27.308 20.8462C28.039 20.4673 28.7924 20.1335 29.5642 19.8467" stroke="#C7D3FB" stroke-width="1.57" stroke-miterlimit="10"/>
<path d="M60.5616 30.5693C62.4778 36.5573 62.1002 43.0441 59.5023 48.7692" stroke="#C7D3FB" stroke-width="1.57" stroke-miterlimit="10"/>
<path d="M37.3706 57.958C37.0493 57.9755 36.7279 57.9825 36.3996 57.9825C36.0712 57.9825 35.7534 57.9825 35.4321 57.958" stroke="#C7D3FB" stroke-width="1.57" stroke-miterlimit="10"/>
</svg>
