<svg width="80" height="80" viewBox="0 0 80 80" fill="none" xmlns="http://www.w3.org/2000/svg">
<path d="M49.9591 55.4125C49.2141 54.9649 48.4652 54.524 47.7124 54.0897C47.89 52.5766 47.8903 51.048 47.7132 49.5348C48.4714 49.0973 49.2264 48.653 49.9588 48.2126C51.192 47.4716 51.7061 45.9081 51.1543 44.5755L51.1541 44.5754L49.5448 40.6901C48.9929 39.3579 47.5245 38.6154 46.1278 38.9633C45.2848 39.1734 44.4437 39.3911 43.6047 39.6163C42.6599 38.4211 41.5787 37.3404 40.3832 36.396C40.6085 35.5567 40.8262 34.7153 41.0364 33.8721C41.3844 32.4761 40.642 31.0072 39.3098 30.4552L35.4245 28.8459C34.0923 28.2938 32.5284 28.8075 31.7871 30.041C31.3396 30.7859 30.8987 31.5349 30.4645 32.2877C28.9514 32.11 27.4228 32.1097 25.9096 32.2867C25.4756 31.5342 25.0349 30.7856 24.5875 30.041C23.846 28.8078 22.2825 28.294 20.9502 28.8459L17.0649 30.4552C15.733 31.007 14.9903 32.4761 15.3383 33.8721C15.5483 34.7151 15.766 35.5562 15.9912 36.3952C14.796 37.3399 13.7153 38.4211 12.7711 39.6167C11.9317 39.3914 11.0902 39.1736 10.2469 38.9633C8.85044 38.6151 7.38181 39.3582 6.82988 40.6902L5.22084 44.5754C4.66919 45.9077 5.18311 47.4713 6.41604 48.2123C7.1509 48.6539 7.90627 49.0986 8.66273 49.5351C8.4852 51.0482 8.48493 52.5768 8.66191 54.09C7.90931 54.5242 7.16056 54.9649 6.41576 55.4123C5.18284 56.1535 4.66891 57.717 5.22071 59.0495L6.83016 62.9347C7.38195 64.2668 8.85017 65.0096 10.2472 64.6615C11.0901 64.4514 11.9311 64.2338 12.77 64.0085C13.7149 65.2036 14.796 66.2843 15.9915 67.2286C15.7663 68.068 15.5485 68.9094 15.3383 69.7526C14.9903 71.1486 15.7327 72.6177 17.0649 73.1695L20.9503 74.7789C21.303 74.9249 21.681 75 22.0628 74.9997C23.0693 74.9997 24.0471 74.4831 24.5881 73.584C25.0356 72.839 25.4764 72.0902 25.9107 71.3374C27.4238 71.5148 28.9524 71.515 30.4656 71.3383C30.9002 72.0919 31.3447 72.8468 31.7877 73.5841C32.529 74.8173 34.0925 75.331 35.4251 74.7792L39.3103 73.1699C40.6423 72.6181 41.3849 71.149 41.037 69.753C40.8267 68.9101 40.6091 68.069 40.384 67.2299C41.5791 66.2851 42.6599 65.204 43.6043 64.0085C44.4436 64.2337 45.2849 64.4514 46.1281 64.6616C47.5241 65.0098 48.9931 64.2673 49.5451 62.9349L51.1544 59.0495C51.7059 57.7171 51.192 56.1535 49.9591 55.4125ZM46.715 61.5786C45.9064 61.376 45.0996 61.1663 44.2947 60.9494C43.1495 60.6414 41.9411 61.044 41.2159 61.9758C40.3824 63.0463 39.4195 64.0094 38.3492 64.8432C37.4186 65.5681 37.0165 66.7761 37.3248 67.9206C37.5439 68.7346 37.7552 69.5475 37.9538 70.3399L34.3825 71.8191C33.9542 71.1044 33.5322 70.3859 33.1166 69.6637C32.525 68.6364 31.3864 68.0671 30.216 68.2121C28.8697 68.379 27.5079 68.3788 26.1617 68.2114C24.988 68.0656 23.8504 68.6349 23.2589 69.6625C22.843 70.3849 22.4208 71.1038 21.9925 71.819L18.4211 70.3397C18.6239 69.5312 18.8337 68.7245 19.0505 67.9196C19.3588 66.7746 18.9558 65.566 18.0241 64.8407C16.9536 64.0073 15.9905 63.0446 15.1567 61.9744C14.4321 61.0435 13.2241 60.6415 12.0792 60.9497C11.2746 61.1664 10.4682 61.3761 9.65995 61.5788L8.18066 58.0075C8.88613 57.5845 9.6106 57.1592 10.336 56.7415C11.3635 56.1499 11.9333 55.0116 11.7878 53.841C11.6208 52.4947 11.6209 51.1329 11.7882 49.7867C11.9343 48.615 11.3648 47.4754 10.3368 46.8837C9.61436 46.4678 8.89556 46.0456 8.18052 45.617L9.65982 42.0458C10.4555 42.2453 11.2687 42.4566 12.08 42.675C13.2246 42.9834 14.4332 42.5804 15.1589 41.6486C15.9923 40.5782 16.955 39.6151 18.0252 38.7814C18.956 38.0566 19.3581 36.8484 19.0498 35.7036C18.8324 34.8964 18.621 34.0835 18.4207 33.2845L21.9921 31.8053C22.4203 32.5201 22.8423 33.2385 23.258 33.9607C23.8497 34.9881 24.9892 35.5588 26.1586 35.4124C27.505 35.245 28.8669 35.2453 30.2132 35.413C31.3856 35.5591 32.5245 34.9889 33.1159 33.9615C33.5317 33.2391 33.9538 32.5203 34.3822 31.8053L37.9535 33.2845C37.7508 34.0931 37.541 34.8999 37.3242 35.7048C37.0159 36.8497 37.4188 38.0583 38.3506 38.7836C39.421 39.617 40.3841 40.5797 41.218 41.6499C41.9426 42.5805 43.1502 42.9826 44.2956 42.6744C45.1049 42.4565 45.9178 42.2451 46.7147 42.0454L48.1939 45.6166C47.4894 46.0389 46.765 46.4643 46.0385 46.8826C45.0111 47.4742 44.4411 48.6127 44.5867 49.7832C44.7539 51.1296 44.7537 52.4916 44.586 53.8379C44.4403 55.0097 45.01 56.149 46.0376 56.7406C46.76 57.1564 47.4788 57.5786 48.1939 58.007L46.715 61.5786Z" fill="#C7D3FB"/>
<path d="M38.0542 47.726L38.054 47.7259C35.8009 42.286 29.5425 39.6934 24.1018 41.9466C18.662 44.2 16.0693 50.459 18.3227 55.8989C19.4141 58.5343 21.4668 60.5866 24.1019 61.6783C25.4195 62.2239 26.8039 62.4968 28.1883 62.4968C29.5727 62.4968 30.9571 62.2239 32.2749 61.6783C37.7147 59.4249 40.3073 53.166 38.0542 47.726ZM31.0758 58.7834C29.2139 59.5546 27.1633 59.5545 25.3009 58.7834C23.4391 58.0122 21.9889 56.5618 21.2176 54.6999C19.6252 50.8562 21.4572 46.4336 25.3011 44.8415C26.2131 44.4625 27.1909 44.2673 28.1786 44.267C31.1409 44.267 33.957 46.0225 35.1594 48.925C36.7515 52.7687 34.9195 57.1912 31.0758 58.7834ZM72.8888 18.7998C72.3375 18.7174 71.7855 18.6393 71.233 18.5656C70.9507 17.627 70.5744 16.7192 70.11 15.856C70.4487 15.413 70.784 14.9673 71.1158 14.519C71.8397 13.54 71.735 12.1515 70.8724 11.2893L68.7112 9.12835C67.8486 8.26566 66.4601 8.16107 65.4814 8.88526C65.0331 9.21701 64.5875 9.55221 64.1444 9.89083C63.2812 9.42632 62.3734 9.05003 61.4348 8.76769C61.3611 8.2152 61.283 7.66329 61.2007 7.11203C61.0207 5.90808 59.9649 5 58.7451 5H55.6886C54.4688 5 53.4131 5.90808 53.233 7.11189C53.1507 7.66316 53.0727 8.21507 52.999 8.76755C52.0603 9.04987 51.1525 9.42616 50.2894 9.89069C49.8465 9.55191 49.4008 9.21671 48.9525 8.88513C47.9735 8.16093 46.585 8.26552 45.7227 9.12808L43.5617 11.2889C42.699 12.1513 42.5942 13.54 43.3184 14.5192C43.65 14.9674 43.9851 15.413 44.3238 15.856C43.8594 16.7192 43.4832 17.627 43.2008 18.5656C42.6483 18.6394 42.0964 18.7174 41.5451 18.7998C40.341 18.98 39.433 20.0356 39.433 21.2555V24.3119C39.433 25.5317 40.3408 26.5874 41.5448 26.7676C42.0857 26.8486 42.6412 26.9272 43.2006 27.0018C43.4831 27.9404 43.8593 28.8482 44.3236 29.7114C43.9849 30.1545 43.6496 30.6002 43.3178 31.0484C42.594 32.0272 42.6986 33.416 43.5612 34.278L45.7224 36.4392C46.5848 37.3019 47.9733 37.4064 48.9522 36.6823C49.4005 36.3507 49.8461 36.0155 50.2891 35.6769C51.1523 36.1413 52.0602 36.5175 52.9988 36.7999C53.0734 37.3592 53.152 37.9148 53.2329 38.4557C53.4131 39.6596 54.4688 40.5677 55.6886 40.5677H58.7451C59.9649 40.5677 61.0207 39.6599 61.2007 38.4555C61.283 37.9042 61.361 37.3523 61.4348 36.7997C62.3735 36.5175 63.2813 36.1412 64.1444 35.6766C64.5873 36.0154 65.033 36.3506 65.4812 36.6823C66.46 37.4065 67.8488 37.3019 68.7111 36.4394L70.8723 34.2784C71.7349 33.416 71.8396 32.0273 71.1154 31.0483C70.7838 30.6 70.4487 30.1545 70.11 29.7116C70.5743 28.8484 70.9506 27.9406 71.233 27.002C71.7855 26.9282 72.3374 26.8501 72.8886 26.7678C74.0927 26.5876 75.0008 25.532 75.0008 24.312V21.2557C75.0007 20.0357 74.0927 18.98 72.8888 18.7998ZM72.024 23.8866C71.5262 23.9588 71.0279 24.0274 70.5291 24.0925C69.5348 24.2222 68.7208 24.9279 68.4558 25.8902C68.2014 26.8128 67.8336 27.7004 67.3608 28.5327C66.8671 29.4012 66.9433 30.4761 67.5548 31.2714C67.8616 31.6702 68.1656 32.0712 68.4666 32.4744L66.9075 34.0337C66.5042 33.7326 66.103 33.4287 65.7041 33.1219C64.9092 32.5101 63.834 32.4345 62.9653 32.9276C62.1332 33.4003 61.2458 33.7681 60.3233 34.0227C59.3605 34.288 58.6547 35.102 58.5254 36.0961C58.4604 36.5949 58.3918 37.0932 58.3195 37.5911H56.1142C56.0421 37.0934 55.9735 36.5952 55.9083 36.0966C55.7786 35.1021 55.073 34.2881 54.1105 34.0229C53.1879 33.7684 52.3003 33.4006 51.4681 32.9279C50.5994 32.4343 49.5243 32.5102 48.7295 33.1219C48.3306 33.4288 47.9294 33.7327 47.526 34.0337L45.9669 32.4744C46.2679 32.0709 46.5719 31.6698 46.8789 31.2709C47.49 30.4758 47.5662 29.401 47.0726 28.5324C46.6 27.7002 46.2322 26.8126 45.9777 25.89C45.7126 24.9275 44.8987 24.2219 43.9043 24.0922C43.4016 24.0266 42.9004 23.9576 42.4093 23.8861V21.6812C42.9071 21.6089 43.4054 21.5403 43.9042 21.4753C44.8985 21.3455 45.7126 20.6398 45.9775 19.6775C46.232 18.7549 46.5998 17.8673 47.0725 17.035C47.5662 16.1665 47.49 15.0915 46.8788 14.2964C46.5719 13.8976 46.2679 13.4966 45.9669 13.0933L47.526 11.534C47.9292 11.8351 48.3303 12.1389 48.7291 12.4457C49.5237 13.0575 50.5988 13.1338 51.4681 12.6401C52.3003 12.1674 53.1877 11.7996 54.1102 11.545C55.073 11.2797 55.7787 10.4657 55.9081 9.47165C55.9737 8.96894 56.0429 8.46786 56.1141 7.97677H58.3194C58.3916 8.47443 58.4601 8.97259 58.5251 9.47124C58.6549 10.4657 59.3606 11.2797 60.323 11.5448C61.2457 11.7994 62.1332 12.1672 62.9655 12.64C63.8343 13.1337 64.9093 13.057 65.7039 12.4458C66.1029 12.139 66.5041 11.8351 66.9075 11.534L68.4666 13.0933C68.1656 13.4967 67.8616 13.8979 67.5547 14.2969C66.9434 15.0917 66.8674 16.1666 67.3607 17.0352C67.8333 17.8675 68.2011 18.755 68.4557 19.6777C68.7208 20.6402 69.5347 21.3458 70.529 21.4755C71.0317 21.5412 71.5329 21.6102 72.024 21.6816V23.8866Z" fill="#C7D3FB"/>
<path d="M57.215 16.4401C53.7171 16.4401 50.8712 19.2859 50.8712 22.7839C50.8712 26.2821 53.7169 29.1279 57.215 29.1279C60.7131 29.1279 63.5589 26.2821 63.5589 22.7839C63.5589 19.2859 60.7131 16.4401 57.215 16.4401ZM57.215 26.3078C55.2721 26.3078 53.6911 24.727 53.6911 22.7838C53.6911 20.8406 55.272 19.2599 57.215 19.2599C59.1581 19.2599 60.7388 20.8408 60.7389 22.7838C60.7389 24.727 59.1581 26.3078 57.215 26.3078Z" fill="#C7D3FB"/>
</svg>
