<svg width="215" height="72" viewBox="0 0 215 72" fill="none" xmlns="http://www.w3.org/2000/svg">
<g clip-path="url(#clip0_148_20931)">
<path d="M110.682 50.3076H110.729C110.863 50.3076 110.992 50.3603 111.086 50.4543C111.181 50.5482 111.235 50.6758 111.236 50.8091V59.6344C111.235 59.7677 111.181 59.8952 111.086 59.9892C110.992 60.0831 110.863 60.1358 110.729 60.1358H110.682C110.616 60.1363 110.55 60.1236 110.489 60.0986C110.428 60.0736 110.372 60.0368 110.325 59.9902C110.278 59.9435 110.24 59.8881 110.215 59.8271C110.189 59.766 110.176 59.7005 110.176 59.6344V50.8124C110.176 50.746 110.188 50.6802 110.214 50.6187C110.239 50.5573 110.276 50.5014 110.323 50.4545C110.371 50.4075 110.427 50.3704 110.488 50.3451C110.55 50.3199 110.616 50.3072 110.682 50.3076Z" fill="#010101"/>
<path d="M113.366 50.3076H120.922C120.988 50.3076 121.053 50.3207 121.114 50.3463C121.175 50.3718 121.23 50.4092 121.276 50.4562C121.322 50.5033 121.358 50.5591 121.382 50.6202C121.406 50.6814 121.417 50.7467 121.415 50.8124C121.415 50.8772 121.402 50.9414 121.377 51.0012C121.352 51.0611 121.316 51.1154 121.27 51.1611C121.223 51.2067 121.169 51.2429 121.109 51.2674C121.048 51.2919 120.984 51.3042 120.919 51.3038H117.642V59.6611C117.642 59.7941 117.589 59.9217 117.495 60.0157C117.4 60.1097 117.272 60.1626 117.139 60.1626H117.089C116.955 60.1626 116.827 60.1098 116.732 60.0159C116.637 59.922 116.583 59.7944 116.582 59.6611V51.3038H113.366C113.235 51.3038 113.109 51.252 113.017 51.1599C112.925 51.0677 112.873 50.9427 112.873 50.8124C112.871 50.7467 112.882 50.6814 112.906 50.6202C112.93 50.5591 112.966 50.5033 113.012 50.4562C113.058 50.4092 113.113 50.3718 113.174 50.3463C113.235 50.3207 113.3 50.3076 113.366 50.3076Z" fill="#010101"/>
<path d="M127.02 53.1157H127.134C127.249 53.1157 127.36 53.1615 127.442 53.243C127.524 53.3245 127.57 53.435 127.57 53.5503V56.2882L131.034 53.226C131.115 53.1554 131.219 53.1163 131.326 53.1157C131.414 53.1161 131.5 53.1431 131.573 53.1932C131.645 53.2433 131.701 53.3141 131.732 53.3963C131.763 53.4785 131.769 53.5682 131.748 53.6536C131.727 53.739 131.68 53.816 131.615 53.8746L128.66 56.4954L131.769 59.3971C131.833 59.4562 131.878 59.5334 131.898 59.6185C131.918 59.7037 131.911 59.7928 131.878 59.8739C131.846 59.9551 131.79 60.0246 131.717 60.0731C131.644 60.1217 131.558 60.1471 131.47 60.1459H131.417C131.306 60.1468 131.199 60.1049 131.118 60.0289L127.57 56.706V59.7147C127.569 59.8293 127.522 59.939 127.441 60.0198C127.359 60.1006 127.249 60.1459 127.134 60.1459H127.02C126.905 60.1459 126.794 60.1006 126.713 60.0198C126.631 59.939 126.585 59.8293 126.584 59.7147V53.5503C126.584 53.435 126.63 53.3245 126.711 53.243C126.793 53.1615 126.904 53.1157 127.02 53.1157Z" fill="#010101"/>
<path d="M136.488 60.1359C136.014 60.1409 135.544 60.0499 135.106 59.8684C134.689 59.6988 134.311 59.4478 133.993 59.1304C133.675 58.8129 133.424 58.4353 133.255 58.0198C132.892 57.1255 132.892 56.1261 133.255 55.2318C133.424 54.816 133.677 54.4385 133.996 54.1219C134.314 53.8055 134.691 53.5545 135.106 53.3831C135.993 53.0263 136.983 53.0263 137.87 53.3831C138.285 53.5553 138.664 53.8062 138.983 54.1219C139.301 54.4394 139.553 54.8167 139.724 55.2318C140.082 56.1269 140.082 57.1246 139.724 58.0198C139.458 58.6538 139.007 59.1939 138.431 59.5709C137.854 59.9479 137.178 60.1447 136.488 60.1359ZM136.488 59.2801C136.833 59.2819 137.176 59.2136 137.494 59.0795C137.797 58.9498 138.069 58.7598 138.296 58.5212C138.524 58.2794 138.703 57.9955 138.822 57.6855C139.073 57.0022 139.073 56.2527 138.822 55.5694C138.703 55.2583 138.524 54.9734 138.296 54.7303C138.069 54.4928 137.797 54.3039 137.494 54.1754C137.176 54.0413 136.833 53.973 136.488 53.9748C136.142 53.9723 135.8 54.0405 135.482 54.1754C135.179 54.3031 134.906 54.492 134.68 54.7303C134.451 54.9725 134.272 55.2577 134.154 55.5694C133.903 56.2527 133.903 57.0022 134.154 57.6855C134.272 57.9962 134.451 58.2803 134.68 58.5212C134.906 58.7605 135.179 58.9506 135.482 59.0795C135.8 59.2144 136.142 59.2826 136.488 59.2801Z" fill="#010101"/>
<path d="M148.958 53.1157H148.727C148.654 53.116 148.583 53.1335 148.519 53.1666C148.455 53.1998 148.4 53.2476 148.358 53.3062L145.819 56.8297C145.795 56.8621 145.764 56.8885 145.728 56.9068C145.692 56.925 145.653 56.9345 145.612 56.9345C145.572 56.9345 145.533 56.925 145.497 56.9068C145.461 56.8885 145.43 56.8621 145.406 56.8297L142.881 53.3062C142.838 53.2472 142.782 53.199 142.718 53.1659C142.653 53.1327 142.581 53.1155 142.508 53.1157H142.28C142.16 53.1157 142.044 53.1631 141.959 53.2477C141.873 53.3322 141.825 53.447 141.824 53.567V59.6845C141.824 59.7441 141.836 59.803 141.859 59.858C141.882 59.913 141.915 59.9629 141.958 60.0048C142 60.0468 142.051 60.08 142.106 60.1024C142.161 60.1249 142.22 60.1363 142.28 60.1358H142.361C142.42 60.1363 142.479 60.1249 142.535 60.1024C142.59 60.0799 142.64 60.0466 142.682 60.0046C142.724 59.9626 142.757 59.9127 142.78 59.8578C142.803 59.8028 142.814 59.7439 142.814 59.6845V54.7303L145.423 58.2471C145.446 58.2789 145.477 58.3047 145.512 58.3225C145.547 58.3403 145.586 58.3496 145.626 58.3496C145.665 58.3496 145.704 58.3403 145.74 58.3225C145.775 58.3047 145.805 58.2789 145.829 58.2471L148.438 54.7303V59.6845C148.438 59.7439 148.449 59.8028 148.472 59.8578C148.494 59.9127 148.528 59.9626 148.57 60.0046C148.612 60.0466 148.662 60.0799 148.717 60.1024C148.772 60.1249 148.831 60.1363 148.891 60.1358H148.971C149.031 60.1363 149.09 60.1249 149.146 60.1024C149.201 60.08 149.251 60.0468 149.294 60.0048C149.336 59.9629 149.37 59.913 149.393 59.858C149.416 59.803 149.428 59.7441 149.428 59.6845V53.567C149.427 53.5064 149.415 53.4465 149.391 53.3909C149.367 53.3352 149.332 53.2849 149.288 53.2428C149.244 53.2008 149.193 53.1679 149.136 53.1461C149.079 53.1242 149.019 53.1139 148.958 53.1157Z" fill="#010101"/>
<path d="M152.071 53.1157H157.377C157.497 53.1157 157.612 53.1632 157.698 53.2477C157.783 53.3322 157.832 53.447 157.833 53.567V59.6846C157.833 59.7441 157.821 59.8031 157.798 59.8581C157.775 59.913 157.741 59.9629 157.699 60.0049C157.656 60.0468 157.606 60.08 157.551 60.1025C157.496 60.125 157.436 60.1363 157.377 60.1359H157.303C157.243 60.1363 157.184 60.125 157.128 60.1025C157.073 60.08 157.023 60.0468 156.98 60.0049C156.938 59.9629 156.904 59.913 156.881 59.8581C156.858 59.8031 156.847 59.7441 156.847 59.6846V54.0016H152.607V59.6846C152.608 59.744 152.596 59.8029 152.574 59.8578C152.551 59.9128 152.518 59.9627 152.476 60.0047C152.433 60.0467 152.383 60.0799 152.328 60.1024C152.273 60.1249 152.214 60.1363 152.154 60.1359H152.074C152.014 60.1363 151.955 60.1249 151.9 60.1024C151.845 60.0799 151.795 60.0467 151.753 60.0047C151.711 59.9627 151.677 59.9128 151.655 59.8578C151.632 59.8029 151.621 59.744 151.621 59.6846V53.567C151.621 53.4479 151.668 53.3336 151.753 53.2491C151.837 53.1645 151.951 53.1166 152.071 53.1157Z" fill="#010101"/>
<path d="M161.804 60.1359C161.473 60.1407 161.143 60.0863 160.831 59.9754C160.561 59.8779 160.312 59.7305 160.097 59.5409C159.9 59.3624 159.744 59.1434 159.64 58.899C159.536 58.6457 159.483 58.374 159.486 58.1001C159.484 57.7277 159.592 57.3629 159.795 57.0504C160.028 56.7001 160.348 56.4157 160.724 56.2247C161.209 55.9782 161.731 55.8111 162.27 55.7299C162.981 55.619 163.704 55.601 164.42 55.6764H164.581V55.4926C164.589 55.2383 164.538 54.9856 164.433 54.7538C164.341 54.5673 164.207 54.4048 164.041 54.2791C163.87 54.154 163.674 54.0653 163.467 54.0183C163.24 53.9638 163.007 53.9368 162.773 53.9381C162.354 53.9409 161.936 53.9993 161.532 54.1119C161.194 54.2024 160.866 54.3256 160.553 54.4797C160.513 54.5012 160.468 54.5143 160.423 54.5182C160.377 54.5221 160.331 54.5167 160.288 54.5023C160.245 54.4879 160.205 54.4648 160.171 54.4345C160.137 54.4041 160.109 54.3672 160.09 54.3259C160.066 54.2863 160.05 54.242 160.043 54.1959C160.037 54.1498 160.041 54.103 160.054 54.0583C160.066 54.0136 160.089 53.9721 160.119 53.9365C160.149 53.9008 160.186 53.8718 160.227 53.8512C160.551 53.6724 160.887 53.5172 161.234 53.3865C161.762 53.1926 162.321 53.0974 162.884 53.1057C163.216 53.1057 163.547 53.1438 163.87 53.2194C164.173 53.2903 164.457 53.4235 164.705 53.6105C164.956 53.8022 165.155 54.0525 165.285 54.3393C165.441 54.7034 165.514 55.0971 165.5 55.4926V59.6746C165.5 59.7943 165.452 59.9091 165.367 59.9937C165.282 60.0783 165.167 60.1259 165.047 60.1259C164.988 60.1263 164.928 60.1149 164.873 60.0924C164.818 60.0699 164.768 60.0367 164.726 59.9947C164.684 59.9527 164.65 59.9028 164.628 59.8478C164.605 59.7929 164.594 59.734 164.594 59.6746V58.8422C164.487 59.0298 164.342 59.1935 164.168 59.3236C163.96 59.4834 163.735 59.6201 163.498 59.7314C163.24 59.8566 162.968 59.953 162.689 60.0189C162.4 60.0945 162.103 60.1338 161.804 60.1359ZM161.951 59.3069C162.24 59.3031 162.528 59.2627 162.807 59.1865C163.121 59.1041 163.414 58.9547 163.665 58.7486C163.946 58.5121 164.168 58.2148 164.316 57.8794C164.508 57.4334 164.598 56.9504 164.581 56.4654H164.42C163.838 56.4106 163.253 56.4173 162.672 56.4854C162.242 56.5345 161.822 56.6471 161.425 56.8197C161.129 56.9477 160.872 57.1491 160.677 57.4047C160.515 57.6261 160.428 57.893 160.429 58.1669C160.416 58.339 160.449 58.5113 160.526 58.666C160.603 58.8207 160.72 58.9519 160.865 59.0461C161.195 59.2325 161.572 59.3229 161.951 59.3069Z" fill="#010101"/>
<path d="M173.6 53.1157H173.68C173.801 53.1157 173.916 53.1632 174.002 53.2477C174.087 53.3322 174.136 53.447 174.136 53.567V59.6846C174.136 59.7441 174.125 59.8031 174.102 59.8581C174.079 59.913 174.045 59.9629 174.003 60.0049C173.96 60.0468 173.91 60.08 173.855 60.1025C173.799 60.125 173.74 60.1363 173.68 60.1359H173.6C173.48 60.1359 173.365 60.0883 173.28 60.0037C173.195 59.9191 173.147 59.8043 173.147 59.6846V56.9902H168.908V59.6846C168.908 59.744 168.897 59.8029 168.874 59.8578C168.851 59.9128 168.818 59.9627 168.776 60.0047C168.734 60.0467 168.684 60.0799 168.629 60.1024C168.573 60.1249 168.514 60.1363 168.455 60.1359H168.371C168.311 60.1363 168.252 60.125 168.197 60.1025C168.141 60.08 168.091 60.0468 168.049 60.0049C168.006 59.9629 167.973 59.913 167.95 59.8581C167.927 59.8031 167.915 59.7441 167.915 59.6846V53.567C167.916 53.447 167.964 53.3322 168.05 53.2477C168.135 53.1632 168.251 53.1157 168.371 53.1157H168.451C168.511 53.1157 168.57 53.1274 168.625 53.1501C168.68 53.1728 168.73 53.206 168.772 53.2479C168.814 53.2898 168.847 53.3396 168.87 53.3943C168.893 53.4491 168.904 53.5078 168.904 53.567V56.0943H173.144V53.567C173.145 53.447 173.193 53.3322 173.278 53.2477C173.364 53.1632 173.479 53.1157 173.6 53.1157Z" fill="#010101"/>
<path d="M176.793 53.1157H176.873C176.994 53.1157 177.109 53.1632 177.195 53.2477C177.28 53.3322 177.328 53.447 177.329 53.567V58.451L181.787 53.2762C181.828 53.2274 181.88 53.188 181.937 53.1603C181.995 53.1327 182.058 53.1175 182.122 53.1157H182.166C182.286 53.1166 182.4 53.1644 182.485 53.2489C182.57 53.3333 182.618 53.4476 182.619 53.567V59.6846C182.619 59.8043 182.571 59.9191 182.486 60.0037C182.401 60.0883 182.286 60.1359 182.166 60.1359H182.085C182.026 60.1363 181.966 60.125 181.911 60.1025C181.856 60.08 181.805 60.0468 181.763 60.0049C181.721 59.9629 181.687 59.913 181.664 59.8581C181.641 59.8031 181.629 59.7441 181.629 59.6846V54.8006L177.188 59.9788C177.147 60.027 177.095 60.066 177.038 60.0931C176.98 60.1202 176.917 60.1347 176.853 60.1359H176.809C176.689 60.1359 176.574 60.0883 176.489 60.0037C176.404 59.9191 176.357 59.8043 176.357 59.6846V53.567C176.357 53.4504 176.403 53.3386 176.484 53.2546C176.565 53.1706 176.676 53.1209 176.793 53.1157Z" fill="#010101"/>
<path d="M186.623 57.5518C186.314 57.521 186.014 57.4362 185.734 57.3011C185.483 57.1781 185.256 57.0117 185.064 56.8097C184.878 56.6166 184.731 56.3896 184.631 56.1411C184.532 55.8886 184.482 55.6198 184.483 55.3488C184.479 55.0336 184.547 54.7215 184.681 54.4362C184.81 54.1695 184.99 53.9309 185.211 53.7342C185.437 53.5347 185.699 53.3803 185.983 53.2796C186.275 53.1697 186.586 53.1141 186.898 53.1158H190.048C190.107 53.1158 190.166 53.1274 190.221 53.1501C190.276 53.1728 190.326 53.206 190.368 53.2479C190.41 53.2898 190.443 53.3396 190.466 53.3943C190.489 53.4491 190.5 53.5078 190.5 53.5671V59.6579C190.5 59.7847 190.45 59.9062 190.36 59.9959C190.27 60.0855 190.148 60.1359 190.021 60.1359C189.894 60.1359 189.772 60.0855 189.682 59.9959C189.592 59.9062 189.541 59.7847 189.541 59.6579V57.5819H187.747L185.734 59.9788C185.693 60.0271 185.641 60.066 185.584 60.0931C185.526 60.1202 185.463 60.1348 185.399 60.1359C185.314 60.1355 185.23 60.1108 185.159 60.0646C185.087 60.0184 185.03 59.9527 184.995 59.8753C184.96 59.7979 184.947 59.712 184.959 59.6278C184.972 59.5437 185.008 59.4648 185.064 59.4005L186.623 57.5518ZM189.534 56.7094V53.9883H186.892C186.519 53.9806 186.158 54.1186 185.885 54.3727C185.754 54.4993 185.649 54.6509 185.578 54.8186C185.507 54.9863 185.47 55.1667 185.47 55.3488C185.47 55.531 185.507 55.7113 185.578 55.879C185.649 56.0467 185.754 56.1984 185.885 56.325C186.158 56.5791 186.519 56.7171 186.892 56.7094H189.534Z" fill="#010101"/>
<path d="M36.2242 72C56.2296 72 72.4471 55.8822 72.4471 36C72.4471 16.1177 56.2296 0 36.2242 0C16.2188 0 0.0012207 16.1177 0.0012207 36C0.0012207 55.8822 16.2188 72 36.2242 72Z" fill="#025195"/>
<path d="M67.9026 28.7491C67.578 29.0541 67.1958 29.2915 66.7781 29.4475C66.3604 29.6034 65.9157 29.6748 65.47 29.6573C65.0244 29.6399 64.5867 29.534 64.1825 29.346C63.7784 29.1579 63.416 28.8913 63.1164 28.5619C62.8836 28.3324 62.5747 28.1957 62.2477 28.1775C61.2248 28.1775 60.1985 28.1574 59.1755 28.1541H55.5968C54.6711 28.1541 54.6074 28.221 54.5906 29.157V31.8313C54.5906 32.8208 54.5906 33.8115 54.5906 34.8032C54.5906 37.2736 52.9136 38.9518 50.4216 38.9818C48.53 39.0052 46.6383 38.9818 44.7467 38.9818H43.9048C43.8693 39.4414 43.8693 39.9029 43.9048 40.3625C43.9988 40.9675 44.4717 41.1079 45.0251 41.1079C47.8089 41.1079 50.5916 41.1079 53.3731 41.1079C53.5972 41.1084 53.8211 41.1207 54.0439 41.1447C56.12 41.3587 57.6092 42.5688 58.0452 44.5177C58.1048 44.7959 58.1374 45.0791 58.1425 45.3635C58.1626 45.8516 58.1425 46.3664 58.1928 46.8377C58.2197 47.1631 58.3529 47.4707 58.5718 47.7136C60.0039 49.0507 60.0978 51.1501 58.7496 52.5174C58.4404 52.8251 58.0729 53.0685 57.6686 53.2334C57.2642 53.3983 56.831 53.4815 56.394 53.478C55.9571 53.4746 55.5253 53.3847 55.1236 53.2134C54.7218 53.0422 54.3583 52.7931 54.054 52.4806C53.9024 52.3212 53.7665 52.1477 53.6481 51.9624C52.7761 50.6086 53.0243 48.8669 54.3189 47.6868C54.5048 47.4944 54.6226 47.2467 54.6543 46.9815C54.6862 46.572 54.6862 46.1607 54.6543 45.7513C54.6376 44.9256 54.3189 44.6147 53.5039 44.6147H45.2867C43.0295 44.6147 41.9025 43.9896 40.6649 42.0005C40.6381 42.2646 40.6079 42.4384 40.6079 42.6123C40.6079 46.2661 40.6079 49.9166 40.6079 53.567C40.6079 53.8245 40.6079 54.0852 40.6079 54.3459C40.6079 56.0642 42.0333 57.2175 43.6265 56.8431C44.1163 56.7301 44.5587 56.4679 44.8923 56.0929C45.2259 55.7179 45.434 55.2487 45.4879 54.7504C45.5466 54.2787 45.5466 53.8015 45.4879 53.3297C45.406 53.0526 45.2466 52.8044 45.0284 52.6143C44.8672 52.4546 44.7202 52.2812 44.5891 52.0962C44.2795 51.6811 44.0788 51.1956 44.005 50.6837C43.9312 50.1717 43.9867 49.6496 44.1665 49.1644C44.3562 48.6095 44.6925 48.1158 45.1399 47.7352C45.5874 47.3546 46.1294 47.1012 46.7091 47.0016C47.2888 46.9021 47.8847 46.9601 48.4341 47.1695C48.9835 47.3789 49.4662 47.732 49.8313 48.1916C49.9374 48.3273 50.0338 48.4703 50.1198 48.6195C50.4875 49.2523 50.6259 49.9919 50.5117 50.7143C50.3976 51.4367 50.0377 52.0981 49.4926 52.5876C49.3256 52.7189 49.1944 52.89 49.1112 53.0851C49.028 53.2803 48.9953 53.4931 49.0163 53.7041C49.064 54.4137 49.0087 55.1264 48.852 55.8202C48.6652 56.6472 48.2963 57.4225 47.772 58.09C47.0128 59.0762 45.9624 59.8002 44.7686 60.1601C43.5749 60.5199 42.298 60.4974 41.1177 60.0958C40.5049 59.8933 39.9302 59.5906 39.4172 59.1999C38.6922 58.6551 38.1032 57.9508 37.696 57.1419C37.2888 56.3331 37.0744 55.4415 37.0694 54.5365C37.0694 54.3794 37.0694 54.2256 37.0694 54.0685C37.0694 49.4519 37.0694 44.832 37.0694 40.212V39.4465H35.2348V40.3524C35.2348 44.9389 35.2348 49.5254 35.2348 54.1086V54.5499C35.2198 56.1082 34.5926 57.5986 33.4879 58.7014C32.3832 59.8043 30.8889 60.4317 29.3254 60.4492C27.762 60.4667 26.2539 59.8728 25.1246 58.795C23.9953 57.7172 23.3348 56.2412 23.2846 54.6836C23.2745 54.5322 23.2745 54.3803 23.2846 54.2289C23.3281 53.8944 23.2899 53.5543 23.1731 53.2376C23.0563 52.921 22.8644 52.6372 22.6138 52.4104C21.4835 51.3039 21.4969 49.4419 22.4629 48.225C22.564 48.0963 22.6762 47.9766 22.7983 47.8674C23.4273 47.2866 24.2586 46.9729 25.1158 46.9929C25.9731 47.0128 26.7887 47.3649 27.3899 47.9743C27.9283 48.5184 28.2571 49.2343 28.3184 49.9961C28.3798 50.7579 28.1697 51.5169 27.7253 52.1396C27.6121 52.2995 27.4853 52.4494 27.3463 52.5876C26.6755 53.2562 26.5816 54.7738 27.1417 55.7333C27.4053 56.1875 27.8083 56.5454 28.2914 56.7542C28.7744 56.963 29.3119 57.0118 29.8249 56.8933C30.3623 56.7771 30.844 56.4822 31.1909 56.0569C31.5377 55.6316 31.729 55.1013 31.7333 54.5532C31.7333 54.2189 31.7333 53.9147 31.7333 53.5971C31.7333 52.7714 31.7333 51.9424 31.7333 51.1167V42.1209C31.5991 42.2178 31.5354 42.2412 31.5086 42.2847C30.5024 43.9862 29.0031 44.6815 27.0478 44.6481C24.643 44.608 22.2415 44.6281 19.8367 44.6481H19.0217C18.0356 44.6481 17.7438 44.9423 17.7405 45.9251C17.7522 46.1411 17.7522 46.3576 17.7405 46.5736C17.707 46.8353 17.7419 47.1011 17.8418 47.3453C17.9417 47.5895 18.1032 47.8039 18.3107 47.9676C18.8436 48.4824 19.1799 49.1661 19.2619 49.9012C19.344 50.6364 19.1665 51.377 18.7601 51.9959C18.6162 52.2191 18.4462 52.4245 18.2536 52.6076C17.6145 53.1937 16.768 53.5027 15.9003 53.4666C15.0326 53.4306 14.2148 53.0524 13.6268 52.4154C13.0388 51.7784 12.7288 50.9346 12.765 50.0698C12.8012 49.205 13.1805 48.3899 13.8197 47.8038C13.9632 47.6945 14.0766 47.5507 14.1494 47.3858C14.2221 47.221 14.2517 47.0405 14.2356 46.8611C14.2071 46.3467 14.2071 45.8311 14.2356 45.3167C14.2356 45.2264 14.2356 45.1362 14.2624 45.0493C14.3741 44.0219 14.8474 43.0673 15.5984 42.3549C16.3494 41.6425 17.3294 41.2185 18.3643 41.1581C18.4817 41.1581 18.6024 41.1581 18.7232 41.1581C21.4064 41.138 24.0896 41.118 26.7459 41.1581C28.3927 41.1882 28.7147 40.9475 28.4732 39.0186H27.732C25.8403 39.0186 23.9487 39.0186 22.057 39.0186C19.5483 39.0186 17.8579 37.3104 17.8478 34.8099V31.8514C17.8478 30.9332 17.8478 30.0139 17.8478 29.0935C17.8478 28.2711 17.7539 28.1742 16.9657 28.1742C15.7382 28.1742 14.5072 28.1742 13.2763 28.1742C12.2232 28.1742 11.17 28.1742 10.1169 28.1942C9.8328 28.21 9.56433 28.3289 9.36224 28.5285C9.07576 28.8701 8.72251 29.1499 8.32401 29.351C7.9255 29.5521 7.49009 29.6702 7.04431 29.6981C6.59852 29.7261 6.1517 29.6632 5.73107 29.5135C5.31043 29.3637 4.92479 29.1302 4.59765 28.8271C4.27051 28.524 4.00871 28.1576 3.82822 27.7504C3.64772 27.3432 3.5523 26.9036 3.54778 26.4584C3.54325 26.0132 3.62971 25.5718 3.80189 25.161C3.97408 24.7502 4.22837 24.3787 4.54928 24.069C5.89088 22.7519 7.98376 22.8522 9.32199 24.2596C9.55925 24.488 9.87131 24.6234 10.2007 24.6407C11.7067 24.6607 13.2193 24.6607 14.7219 24.6407H17.1066C17.6762 24.6081 18.2462 24.6967 18.7789 24.9004C19.3116 25.1042 19.7947 25.4185 20.1962 25.8225C20.5977 26.2265 20.9085 26.7109 21.1079 27.2438C21.3073 27.7766 21.3907 28.3455 21.3527 28.9129C21.3527 30.8151 21.3527 32.7139 21.3527 34.616C21.3527 35.4016 21.4634 35.5052 22.265 35.5085C23.5686 35.5085 24.8733 35.5085 26.1791 35.5085C26.3636 35.5085 26.5447 35.4751 26.8298 35.445C26.4139 35.1709 26.0684 34.987 25.7732 34.743C25.2247 34.3143 24.7851 33.7628 24.4903 33.1333C24.1954 32.5037 24.0536 31.8137 24.0761 31.1193C24.0761 27.8454 24.0761 24.5738 24.0761 21.3044V18.0317C24.0761 16.8617 23.838 16.621 22.6775 16.6177C22.4595 16.6177 22.2415 16.6177 22.0269 16.6177C21.8034 16.5927 21.5776 16.5995 21.3561 16.6377C20.9279 16.7213 20.5377 16.9392 20.2425 17.2595C18.968 18.5365 16.8282 18.3693 15.6409 17.0288C15.0665 16.3818 14.77 15.5358 14.8152 14.673C14.8603 13.8102 15.2436 12.9996 15.8824 12.4156C16.2009 12.1276 16.5735 11.9052 16.9785 11.7612C17.3836 11.6172 17.8133 11.5544 18.2428 11.5765C18.6723 11.5985 19.0932 11.705 19.4813 11.8897C19.8694 12.0745 20.217 12.3338 20.5042 12.6529C20.6251 12.8151 20.7866 12.9428 20.9726 13.0232C21.1586 13.1036 21.3626 13.1338 21.564 13.1109C21.9765 13.0808 22.3891 13.1109 22.805 13.1109C23.8389 13.0821 24.8567 13.3716 25.7196 13.94C26.8901 14.749 27.5676 16.1162 27.571 17.8579V30.4841C27.571 30.7449 27.571 31.0023 27.571 31.263C27.5652 31.3889 27.5859 31.5146 27.6318 31.6321C27.6777 31.7495 27.7478 31.8561 27.8375 31.9449C27.9273 32.0337 28.0347 32.1028 28.1528 32.1477C28.271 32.1926 28.3972 32.2124 28.5235 32.2057C29.9121 32.2291 31.3006 32.2057 32.7529 32.2057V29.5314C32.2611 29.4563 31.7756 29.3445 31.3006 29.1971C30.3816 28.8227 29.7477 28.0806 29.7343 27.0777C29.6873 24.069 29.6102 21.0303 29.7343 18.0117C29.7343 17.7743 29.7544 17.5336 29.7678 17.2963C29.9188 14.2876 32.7059 11.7503 35.7279 11.5865C39.0516 11.4027 41.9562 13.5288 42.5968 16.6344C42.6881 17.0927 42.7408 17.5579 42.7544 18.025C42.7544 18.142 42.7544 18.2557 42.7544 18.3593C42.7712 20.9935 42.7544 23.6311 42.7544 26.2653C42.7544 28.3079 41.9193 29.2138 39.8633 29.4244C39.7863 29.4404 39.7101 29.4605 39.6352 29.4846V32.179C41.121 32.179 42.5934 32.2191 44.0591 32.1422C44.3275 32.1422 44.6192 31.6842 44.8071 31.38C44.9177 31.2062 44.844 30.9154 44.844 30.678C44.844 26.7668 44.844 22.8544 44.844 18.941C44.844 18.5766 44.844 18.2122 44.844 17.8445C44.844 16.0794 45.5148 14.7122 46.6954 13.9032C47.5554 13.3456 48.564 13.059 49.5898 13.0808C49.7642 13.0808 49.9252 13.0808 50.1131 13.0808C50.5019 13.1435 50.9003 13.1115 51.2741 12.9875C51.6478 12.8636 51.986 12.6513 52.2596 12.3688C53.5073 11.1118 55.6303 11.3392 56.8076 12.6663C57.37 13.3082 57.6606 14.1426 57.618 14.9938C57.5755 15.8449 57.2032 16.6464 56.5795 17.2294C56.2666 17.5241 55.8978 17.7536 55.4947 17.9043C55.0916 18.055 54.6624 18.124 54.2322 18.1072C53.802 18.0904 53.3796 17.9881 52.9896 17.8064C52.5996 17.6247 52.2499 17.3671 51.9611 17.0489C51.853 16.9079 51.714 16.7934 51.5547 16.714C51.3955 16.6347 51.2201 16.5926 51.0421 16.5909H50.9012C50.5122 16.6243 50.1198 16.5909 49.7273 16.5909C48.6306 16.5909 48.3858 16.8416 48.3858 17.9114V21.3111C48.3858 24.5939 48.3858 27.8778 48.3858 31.1627C48.4128 31.9802 48.2102 32.789 47.8007 33.4978C47.3912 34.2066 46.7911 34.7872 46.0682 35.1743L45.6154 35.435C45.8163 35.4692 46.019 35.4926 46.2224 35.5052C47.564 35.5052 48.9056 35.5052 50.264 35.5052C50.8845 35.5052 51.1159 35.2679 51.1092 34.6594C51.0891 32.7573 51.0924 30.8552 51.1092 28.9564C51.0692 28.3806 51.1538 27.8029 51.3574 27.2625C51.5609 26.7222 51.8785 26.2317 52.2888 25.8243C52.6991 25.417 53.1924 25.1023 53.7354 24.9015C54.2784 24.7008 54.8583 24.6186 55.4358 24.6607H57.7467C59.2392 24.6607 60.7284 24.6607 62.2176 24.6407C62.5665 24.6253 62.8979 24.4839 63.15 24.2429C63.4358 23.8911 63.7916 23.6021 64.195 23.394C64.5984 23.186 65.0406 23.0635 65.4938 23.0341C65.947 23.0048 66.4014 23.0693 66.8284 23.2236C67.2554 23.3779 67.6457 23.6186 67.9748 23.9306C68.3039 24.2426 68.5646 24.6192 68.7405 25.0365C68.9164 25.4539 69.0037 25.903 68.9969 26.3556C68.9901 26.8083 68.8894 27.2546 68.701 27.6665C68.5127 28.0785 68.2408 28.4471 67.9026 28.7491Z" stroke="#D0D5D7" stroke-width="1.57" stroke-miterlimit="10"/>
<path d="M42.7507 18.0317C43.4715 18.2976 44.175 18.608 44.857 18.9611" stroke="#D0D5D7" stroke-width="1.57" stroke-miterlimit="10"/>
<path d="M13.2761 28.1709C11.4643 33.8092 11.8083 39.9161 14.2421 45.3168" stroke="#D0D5D7" stroke-width="1.57" stroke-miterlimit="10"/>
<path d="M25.7361 13.9265C29.0086 12.3587 32.593 11.5447 36.224 11.5447C39.8549 11.5447 43.4393 12.3587 46.7119 13.9265" stroke="#D0D5D7" stroke-width="1.57" stroke-miterlimit="10"/>
<path d="M19.9001 44.6414C20.6335 45.9306 21.5185 47.128 22.5364 48.2083" stroke="#D0D5D7" stroke-width="1.57" stroke-miterlimit="10"/>
<path d="M27.7888 52.123C29.0694 52.7655 30.4199 53.2591 31.8136 53.5939" stroke="#D0D5D7" stroke-width="1.57" stroke-miterlimit="10"/>
<path d="M20.1921 25.851C21.2367 24.1398 22.5503 22.607 24.0828 21.3113" stroke="#D0D5D7" stroke-width="1.57" stroke-miterlimit="10"/>
<path d="M14.7219 24.6707C16.3248 21.5446 18.5949 18.8061 21.3729 16.6477" stroke="#D0D5D7" stroke-width="1.57" stroke-miterlimit="10"/>
<path d="M17.8479 31.8513C17.2314 34.9478 17.4114 38.1495 18.3711 41.158" stroke="#D0D5D7" stroke-width="1.57" stroke-miterlimit="10"/>
<path d="M18.7566 51.9893C20.1728 53.4685 21.7708 54.7635 23.5125 55.8437" stroke="#D0D5D7" stroke-width="1.57" stroke-miterlimit="10"/>
<path d="M49.905 48.2183C50.9273 47.1364 51.8147 45.9354 52.548 44.6414" stroke="#D0D5D7" stroke-width="1.57" stroke-miterlimit="10"/>
<path d="M48.9255 55.8471C50.6726 54.7701 52.2743 53.4748 53.6915 51.9927" stroke="#D0D5D7" stroke-width="1.57" stroke-miterlimit="10"/>
<path d="M40.6511 53.5939C42.0449 53.2591 43.3953 52.7655 44.6759 52.123" stroke="#D0D5D7" stroke-width="1.57" stroke-miterlimit="10"/>
<path d="M32.9636 59.2234C35.1295 59.5131 37.3246 59.5131 39.4905 59.2234" stroke="#D0D5D7" stroke-width="1.57" stroke-miterlimit="10"/>
<path d="M54.074 41.1747C55.0396 38.1617 55.2219 34.9537 54.6039 31.8513" stroke="#D0D5D7" stroke-width="1.57" stroke-miterlimit="10"/>
<path d="M51.0417 16.6042C53.8372 18.7712 56.1194 21.5253 57.7262 24.6707" stroke="#D0D5D7" stroke-width="1.57" stroke-miterlimit="10"/>
<path d="M52.2557 25.8476C51.2126 24.1384 49.9013 22.6068 48.3718 21.3113" stroke="#D0D5D7" stroke-width="1.57" stroke-miterlimit="10"/>
<path d="M27.5876 18.9644C28.282 18.6057 28.9977 18.2898 29.7308 18.0183" stroke="#D0D5D7" stroke-width="1.57" stroke-miterlimit="10"/>
<path d="M59.1759 28.1675C60.9961 33.8351 60.6375 39.9748 58.1697 45.3936" stroke="#D0D5D7" stroke-width="1.57" stroke-miterlimit="10"/>
<path d="M37.1468 54.092C36.8415 54.1088 36.5363 54.1154 36.2244 54.1154C35.9125 54.1154 35.6106 54.1154 35.3054 54.092" stroke="#D0D5D7" stroke-width="1.57" stroke-miterlimit="10"/>
<path d="M99.0039 43.2876C97.2131 43.285 95.4962 42.5761 94.228 41.3159C92.9599 40.0557 92.2436 38.3465 92.2356 36.5616V18.7438C92.2356 16.9547 92.9487 15.2388 94.218 13.9737C95.4873 12.7085 97.2088 11.9978 99.0039 11.9978C100.799 11.9978 102.521 12.7085 103.79 13.9737C105.059 15.2388 105.772 16.9547 105.772 18.7438V36.5616C105.769 38.3479 105.054 40.0596 103.785 41.3208C102.516 42.582 100.796 43.2894 99.0039 43.2876ZM99.0039 39.8611C99.4391 39.8616 99.8701 39.7766 100.272 39.611C100.674 39.4454 101.04 39.2025 101.348 38.8961C101.656 38.5897 101.901 38.2259 102.067 37.8253C102.234 37.4248 102.321 36.9954 102.321 36.5616V18.7438C102.321 17.867 101.972 17.0261 101.349 16.406C100.727 15.786 99.8837 15.4377 99.0039 15.4377C98.1242 15.4377 97.2805 15.786 96.6584 16.406C96.0363 17.0261 95.6868 17.867 95.6868 18.7438V36.5616C95.693 37.436 96.0447 38.2727 96.6656 38.8903C97.2865 39.5079 98.1267 39.8567 99.0039 39.8611Z" fill="#010101"/>
<path d="M119.44 43.2877H116.515C115.386 43.2991 114.275 42.997 113.309 42.4152C112.365 41.8509 111.577 41.0603 111.018 40.1152C110.464 39.1677 110.176 38.0894 110.183 36.9929V26.9742C110.218 25.3084 110.899 23.7209 112.082 22.5443C113.266 21.3678 114.86 20.6935 116.532 20.6627H119.456C119.689 20.6456 119.923 20.6832 120.139 20.7726C120.354 20.8621 120.546 21.0008 120.697 21.1775C120.954 21.5044 121.089 21.9095 121.08 22.3242V22.7053C121.039 23.0343 120.894 23.3415 120.664 23.5811C120.512 23.755 120.322 23.8917 120.109 23.9804C119.895 24.0691 119.664 24.1075 119.433 24.0926H116.508C115.741 24.0943 115.006 24.3983 114.464 24.9381C113.921 25.478 113.614 26.2099 113.611 26.9742V36.9762C113.609 37.3557 113.683 37.7318 113.828 38.0826C113.974 38.4334 114.187 38.7521 114.456 39.0203C114.726 39.2885 115.046 39.5009 115.398 39.6452C115.75 39.7896 116.128 39.8629 116.508 39.8612H119.433C119.805 39.8553 120.168 39.9729 120.466 40.1955C120.77 40.4246 120.986 40.75 121.08 41.1181C121.122 41.2683 121.145 41.4234 121.147 41.5794C121.144 41.7991 121.098 42.0161 121.011 42.218C120.924 42.42 120.798 42.6028 120.64 42.7562C120.489 42.9236 120.304 43.0574 120.097 43.149C119.89 43.2405 119.666 43.2878 119.44 43.2877Z" fill="#010101"/>
<path d="M134.865 43.2875H131.722C130.129 43.2869 128.587 42.7311 127.362 41.7163C126.985 41.4118 126.658 41.0509 126.393 40.6466C126.144 40.2688 125.997 40.0783 125.953 40.0783C125.307 39.0581 124.958 37.8785 124.947 36.6718V13.7059C124.937 13.4737 124.974 13.2417 125.056 13.0241C125.138 12.8065 125.263 12.6078 125.425 12.4398C125.586 12.2718 125.78 12.1382 125.994 12.0469C126.209 11.9555 126.439 11.9084 126.673 11.9084C126.906 11.9084 127.137 11.9555 127.351 12.0469C127.566 12.1382 127.759 12.2718 127.921 12.4398C128.082 12.6078 128.207 12.8065 128.289 13.0241C128.371 13.2417 128.409 13.4737 128.398 13.7059V20.7261H132.705C132.933 20.7238 133.159 20.7669 133.37 20.8528C133.581 20.9386 133.773 21.0655 133.935 21.2261C134.096 21.3867 134.224 21.5777 134.31 21.788C134.397 21.9983 134.441 22.2237 134.439 22.451C134.442 22.6747 134.398 22.8966 134.312 23.103C134.225 23.3094 134.097 23.4959 133.936 23.6511C133.776 23.8139 133.584 23.9424 133.372 24.0286C133.161 24.1149 132.933 24.157 132.705 24.1526H128.405V36.5214C128.397 36.9574 128.48 37.3903 128.648 37.793C128.816 38.1957 129.065 38.5594 129.381 38.8614C129.687 39.1714 130.053 39.4162 130.456 39.5811C130.86 39.746 131.293 39.8276 131.729 39.8209H134.871C135.328 39.8235 135.765 40.0066 136.086 40.33C136.408 40.6534 136.587 41.0907 136.585 41.5458C136.57 41.9602 136.426 42.3597 136.173 42.6891C136.024 42.8921 135.826 43.0537 135.597 43.1584C135.368 43.2632 135.116 43.3076 134.865 43.2875Z" fill="#010101"/>
<path d="M145.762 43.2876C144.928 43.2907 144.103 43.1297 143.332 42.8138C142.562 42.4979 141.861 42.0334 141.271 41.4469C140.681 40.8605 140.213 40.1636 139.894 39.3964C139.575 38.6291 139.412 37.8066 139.413 36.9762V26.9741C139.451 25.3205 140.137 23.7475 141.323 22.5914C142.51 21.4353 144.104 20.7881 145.763 20.7881C147.423 20.7881 149.016 21.4353 150.203 22.5914C151.39 23.7475 152.076 25.3205 152.114 26.9741V36.9762C152.13 37.8093 151.974 38.6368 151.655 39.407C151.336 40.1772 150.861 40.8735 150.259 41.4523C149.674 42.0468 148.974 42.5162 148.2 42.8318C147.427 43.1473 146.597 43.3024 145.762 43.2876ZM145.762 39.8611C146.141 39.8602 146.516 39.7849 146.866 39.6394C147.216 39.4939 147.533 39.2811 147.801 39.0132C148.068 38.7452 148.279 38.4274 148.423 38.0779C148.567 37.7284 148.641 37.354 148.639 36.9762V26.9741C148.653 26.5877 148.588 26.2025 148.448 25.8416C148.309 25.4807 148.098 25.1514 147.829 24.8734C147.559 24.5953 147.236 24.3742 146.879 24.2232C146.522 24.0722 146.138 23.9944 145.75 23.9944C145.362 23.9944 144.978 24.0722 144.621 24.2232C144.264 24.3742 143.941 24.5953 143.671 24.8734C143.401 25.1514 143.191 25.4807 143.051 25.8416C142.912 26.2025 142.847 26.5877 142.86 26.9741V36.9762C142.86 37.3557 142.935 37.7316 143.081 38.0823C143.226 38.4329 143.44 38.7514 143.71 39.0195C143.979 39.2875 144.299 39.4999 144.651 39.6443C145.004 39.7888 145.381 39.8624 145.762 39.8611Z" fill="#010101"/>
<path d="M162.857 43.2876H158.242C157.865 43.2893 157.497 43.1676 157.196 42.9412C156.895 42.7147 156.677 42.3961 156.574 42.0341C156.472 41.6721 156.492 41.2867 156.631 40.937C156.77 40.5874 157.02 40.2928 157.343 40.0984C157.615 39.9383 157.926 39.8561 158.242 39.8611H162.857C163.236 39.8602 163.611 39.7849 163.961 39.6394C164.311 39.4939 164.629 39.2811 164.896 39.0131C165.163 38.7452 165.375 38.4274 165.519 38.0779C165.663 37.7283 165.736 37.354 165.735 36.9762V34.0076C165.739 33.6295 165.667 33.2544 165.521 32.905C165.376 32.5556 165.161 32.2393 164.89 31.9751C164.628 31.7016 164.312 31.4849 163.962 31.3388C163.613 31.1927 163.236 31.1202 162.857 31.126H161.78C160.395 31.1022 159.073 30.5455 158.09 29.5723C157.108 28.599 156.541 27.2847 156.508 25.9044C156.503 25.1096 156.683 24.3245 157.034 23.6111C157.464 22.7346 158.13 21.9941 158.956 21.4716C159.798 20.933 160.78 20.6518 161.78 20.6627H165.165C165.624 20.6696 166.062 20.8547 166.387 21.1787C166.711 21.5026 166.896 21.9399 166.902 22.3976C166.904 22.6215 166.86 22.8435 166.773 23.0499C166.686 23.2563 166.558 23.4427 166.395 23.5977C166.235 23.7606 166.044 23.889 165.832 23.9753C165.62 24.0615 165.393 24.1037 165.165 24.0992H161.78C161.299 24.1027 160.838 24.2945 160.496 24.6333C160.155 24.9722 159.961 25.431 159.956 25.9111C159.953 26.148 159.999 26.3831 160.092 26.6013C160.185 26.8194 160.322 27.0159 160.496 27.178C160.663 27.3472 160.864 27.481 161.084 27.5711C161.305 27.6613 161.542 27.7061 161.78 27.7029H162.857C164.538 27.7029 166.15 28.3673 167.341 29.5504C168.531 30.7336 169.202 32.3389 169.206 34.0143V36.9828C169.215 38.0827 168.926 39.1647 168.371 40.1152C167.817 41.0642 167.03 41.8569 166.084 42.4184C165.11 43.0007 163.993 43.3016 162.857 43.2876Z" fill="#010101"/>
<path d="M179.469 43.2877C178.636 43.2907 177.81 43.1297 177.04 42.8138C176.269 42.4979 175.569 42.0334 174.979 41.447C174.389 40.8605 173.921 40.1636 173.602 39.3964C173.283 38.6292 173.119 37.8067 173.12 36.9762V26.9742C173.12 25.2958 173.789 23.6862 174.98 22.4995C176.17 21.3127 177.785 20.646 179.469 20.646C181.153 20.646 182.768 21.3127 183.959 22.4995C185.149 23.6862 185.818 25.2958 185.818 26.9742V36.9762C185.834 37.8101 185.676 38.6381 185.355 39.4084C185.034 40.1787 184.557 40.8745 183.953 41.4524C183.37 42.0452 182.671 42.5136 181.9 42.8291C181.13 43.1446 180.302 43.3006 179.469 43.2877ZM179.469 39.8611C179.848 39.8603 180.223 39.7849 180.573 39.6394C180.923 39.4939 181.241 39.2811 181.508 39.0132C181.775 38.7453 181.987 38.4274 182.131 38.0779C182.275 37.7284 182.348 37.354 182.347 36.9762V26.9742C182.36 26.5877 182.295 26.2026 182.156 25.8416C182.017 25.4807 181.806 25.1515 181.536 24.8734C181.267 24.5954 180.944 24.3743 180.587 24.2233C180.229 24.0722 179.845 23.9944 179.457 23.9944C179.07 23.9944 178.686 24.0722 178.328 24.2233C177.971 24.3743 177.648 24.5954 177.379 24.8734C177.109 25.1515 176.898 25.4807 176.759 25.8416C176.62 26.2026 176.555 26.5877 176.568 26.9742V36.9762C176.567 37.356 176.641 37.7323 176.786 38.0833C176.932 38.4344 177.145 38.7533 177.415 39.0215C177.685 39.2898 178.005 39.5021 178.358 39.6462C178.71 39.7903 179.088 39.8634 179.469 39.8611Z" fill="#010101"/>
<path d="M191.949 43.2875C191.721 43.2898 191.495 43.2467 191.284 43.1608C191.073 43.075 190.881 42.948 190.719 42.7875C190.558 42.6269 190.43 42.4359 190.344 42.2256C190.257 42.0153 190.213 41.7899 190.215 41.5626V18.61C190.227 17.4168 190.568 16.2499 191.201 15.237C191.821 14.2592 192.68 13.454 193.697 12.897C194.698 12.3303 195.829 12.033 196.98 12.0345H200.123C200.434 12.0286 200.74 12.1089 201.008 12.2665C201.276 12.4241 201.494 12.6528 201.639 12.927C201.772 13.1758 201.84 13.4541 201.837 13.736C201.839 13.9616 201.796 14.1854 201.71 14.3944C201.625 14.6033 201.499 14.7935 201.34 14.9538C201.18 15.1141 200.991 15.2414 200.782 15.3285C200.573 15.4155 200.349 15.4606 200.123 15.461H196.98C196.544 15.4539 196.11 15.5356 195.707 15.7012C195.303 15.8667 194.938 16.1126 194.632 16.4238C194.315 16.7247 194.064 17.0882 193.896 17.4911C193.727 17.8939 193.645 18.3274 193.653 18.7638V20.5523H197.96C198.419 20.5523 198.859 20.734 199.183 21.0575C199.508 21.381 199.69 21.8197 199.69 22.2772C199.69 22.7347 199.508 23.1735 199.183 23.4969C198.859 23.8204 198.419 24.0022 197.96 24.0022H193.663V41.5826C193.665 41.8082 193.622 42.032 193.537 42.241C193.451 42.4499 193.325 42.6401 193.166 42.8004C193.007 42.9607 192.817 43.088 192.609 43.1751C192.4 43.2621 192.176 43.3071 191.949 43.3076V43.2875Z" fill="#010101"/>
<path d="M213.287 43.2876H210.145C208.552 43.287 207.009 42.7312 205.784 41.7165C205.408 41.4119 205.081 41.0511 204.815 40.6467C204.567 40.269 204.419 40.0784 204.376 40.0784C203.729 39.0583 203.381 37.8786 203.37 36.672V13.7061C203.37 13.4804 203.414 13.257 203.501 13.0485C203.588 12.84 203.714 12.6506 203.875 12.4911C204.035 12.3315 204.225 12.2049 204.434 12.1186C204.643 12.0322 204.867 11.9878 205.094 11.9878C205.32 11.9878 205.544 12.0322 205.753 12.1186C205.962 12.2049 206.153 12.3315 206.313 12.4911C206.473 12.6506 206.6 12.84 206.686 13.0485C206.773 13.257 206.818 13.4804 206.818 13.7061V20.7262H211.134C211.362 20.7249 211.588 20.7686 211.798 20.8547C212.009 20.9409 212.201 21.0679 212.362 21.2283C212.523 21.3887 212.651 21.5793 212.738 21.7892C212.825 21.9991 212.869 22.2241 212.868 22.4512C212.871 22.6752 212.828 22.8974 212.74 23.1039C212.653 23.3104 212.524 23.4967 212.362 23.6513C212.202 23.8137 212.011 23.9419 211.8 24.0281C211.589 24.1143 211.362 24.1567 211.134 24.1527H206.824V36.5215C206.817 36.9578 206.9 37.3908 207.069 37.7934C207.237 38.1961 207.488 38.5598 207.804 38.8616C208.109 39.1715 208.475 39.4164 208.879 39.5813C209.282 39.7462 209.715 39.8277 210.151 39.821H213.294C213.751 39.8237 214.188 40.0068 214.509 40.3302C214.83 40.6536 215.01 41.0908 215.008 41.546C214.987 41.9554 214.841 42.3485 214.589 42.6725C214.443 42.8776 214.246 43.0418 214.019 43.1495C213.791 43.2572 213.539 43.3048 213.287 43.2876Z" fill="#010101"/>
</g>
<defs>
<clipPath id="clip0_148_20931">
<rect width="215" height="72" fill="white" transform="translate(0.0012207)"/>
</clipPath>
</defs>
</svg>
