<svg width="256" height="256" viewBox="0 0 256 256" fill="none" xmlns="http://www.w3.org/2000/svg">
<g clip-path="url(#clip0_349_28)">
<path d="M230.4 115.2H238.933V29.8667C238.933 28.7351 238.484 27.6498 237.684 26.8497C236.884 26.0495 235.798 25.6 234.667 25.6H192V34.1333H230.4V115.2ZM0.597867 226.108C0.782979 226.914 1.02957 227.703 1.33547 228.471C1.4688 228.796 1.67307 229.081 1.8272 229.394C2.14181 230.078 2.50228 230.741 2.90613 231.377C3.48894 232.232 4.14722 233.033 4.87307 233.771C4.92267 233.821 4.95413 233.881 5.00427 233.929C5.056 233.975 5.11253 234.011 5.16267 234.06C5.90016 234.786 6.70123 235.444 7.55627 236.027C8.1924 236.431 8.85506 236.792 9.53973 237.106C9.85227 237.261 10.1371 237.465 10.4624 237.598C11.2299 237.904 12.0198 238.15 12.8251 238.335C13.1125 238.409 13.3707 238.531 13.6789 238.588C14.7936 238.817 15.9296 238.931 17.0667 238.933H115.2V230.4H17.0667C16.4939 230.4 15.9211 230.344 15.36 230.229C15.1648 230.192 14.9813 230.11 14.7877 230.054C14.44 229.971 14.0982 229.865 13.7648 229.735C13.4709 229.602 13.1856 229.452 12.9104 229.285C12.7104 229.171 12.4837 229.081 12.304 228.958C11.3774 228.332 10.5796 227.534 9.95413 226.606C9.83147 226.414 9.74187 226.202 9.62507 226.002C9.45813 225.725 9.3104 225.442 9.17707 225.148C9.04668 224.814 8.9401 224.471 8.85813 224.123C8.80213 223.931 8.72107 223.748 8.6832 223.552C8.43294 222.312 8.46166 221.031 8.76728 219.804C9.07291 218.576 9.64778 217.432 10.4503 216.453C11.2527 215.475 12.2627 214.688 13.4071 214.148C14.5514 213.609 15.8015 213.33 17.0667 213.333H29.8667C30.9983 213.333 32.0835 212.884 32.8837 212.084C33.6838 211.284 34.1333 210.198 34.1333 209.067V34.1333H140.8V25.6H34.1333V4.26667C34.1333 3.13508 33.6838 2.04983 32.8837 1.24968C32.0835 0.449523 30.9983 0 29.8667 0L17.0667 0C7.6416 0 0 7.6416 0 17.0667V221.867C0 223.012 0.1168 224.156 0.3456 225.279C0.402133 225.563 0.5248 225.821 0.597867 226.108ZM8.53333 17.0667C8.53333 12.3541 12.3541 8.53333 17.0667 8.53333H25.6V204.8H17.0667C14.0695 204.795 11.1248 205.586 8.53333 207.092V17.0667Z" fill="url(#paint0_linear_349_28)"/>
<path d="M145.067 196.267C146.198 196.267 147.284 195.817 148.084 195.017C148.884 194.217 149.333 193.132 149.333 192C149.352 188.08 148.588 184.196 147.087 180.575C145.586 176.954 143.378 173.668 140.592 170.911C137.107 167.365 132.772 164.771 128 163.375V149.334H132.267C133.398 149.334 134.484 148.884 135.284 148.084C136.084 147.284 136.533 146.198 136.533 145.067V128C136.533 126.869 136.084 125.783 135.284 124.983C134.484 124.183 133.398 123.734 132.267 123.734H128V106.667H102.827C104.867 96.7399 113.6 89.6109 123.733 89.6002H128V76.8002H140.8V68.2669H128V55.4669C128 54.3353 127.55 53.25 126.75 52.4499C125.95 51.6497 124.865 51.2002 123.733 51.2002H51.2C50.0684 51.2002 48.9832 51.6497 48.183 52.4499C47.3829 53.25 46.9333 54.3353 46.9333 55.4669V209.067C46.9333 210.198 47.3829 211.284 48.183 212.084C48.9832 212.884 50.0684 213.334 51.2 213.334H72.5334V192.427C82.4603 194.467 89.5894 203.2 89.6 213.334H140.8V204.8H128V196.267H145.067ZM128 140.8H119.467V132.267H128V140.8ZM119.467 72.5335V81.4082C104.786 83.5271 93.8832 96.1005 93.8667 110.934C93.8667 112.065 94.3162 113.15 95.1164 113.951C95.9165 114.751 97.0018 115.2 98.1334 115.2H119.467V123.734H115.2C114.068 123.734 112.983 124.183 112.183 124.983C111.383 125.783 110.933 126.869 110.933 128V132.267H72.5334V128C72.5334 126.869 72.0838 125.783 71.2837 124.983C70.4835 124.183 69.3983 123.734 68.2667 123.734H55.4667V76.8002H68.2667C69.3983 76.8002 70.4835 76.3507 71.2837 75.5505C72.0838 74.7504 72.5334 73.6651 72.5334 72.5335V59.7335H119.467V72.5335ZM55.4667 132.267H64V140.8H55.4667V132.267ZM55.4667 59.7335H64V68.2669H55.4667V59.7335ZM55.4667 204.8V196.267H64V204.8H55.4667ZM96.8544 204.8C93.0731 192.163 81.4582 183.494 68.2667 183.467C67.1351 183.467 66.0499 183.916 65.2497 184.717C64.4495 185.517 64 186.602 64 187.734H55.4667V149.334H68.2667C69.3983 149.334 70.4835 148.884 71.2837 148.084C72.0838 147.284 72.5334 146.198 72.5334 145.067V140.8H110.933V145.067C110.933 146.198 111.383 147.284 112.183 148.084C112.983 148.884 114.068 149.334 115.2 149.334H119.467V166.784C119.467 168.883 120.992 170.671 123.062 171C127.432 171.695 131.461 173.777 134.554 176.94C137.53 179.875 139.557 183.635 140.373 187.734H123.733C122.602 187.734 121.517 188.183 120.716 188.983C119.916 189.783 119.467 190.869 119.467 192V204.8H96.8544ZM196.267 93.8669H209.067V136.534H217.6V72.5335C217.6 71.4019 217.151 70.3167 216.35 69.5165C215.55 68.7164 214.465 68.2669 213.333 68.2669H196.267C195.135 68.2669 194.05 68.7164 193.25 69.5165C192.45 70.3167 192 71.4019 192 72.5335V89.6002C192 90.7318 192.45 91.817 193.25 92.6172C194.05 93.4173 195.135 93.8669 196.267 93.8669ZM209.067 76.8002V85.3335H200.533V76.8002H209.067ZM253.367 115.526C252.587 115.202 251.729 115.118 250.901 115.282C250.074 115.447 249.313 115.853 248.716 116.45L116.45 248.717C115.853 249.314 115.447 250.074 115.282 250.902C115.118 251.729 115.202 252.587 115.525 253.366C115.848 254.146 116.395 254.812 117.097 255.281C117.798 255.75 118.623 256 119.467 256H251.734C252.865 256 253.951 255.551 254.751 254.751C255.551 253.95 256.001 252.865 256.001 251.734V119.467C256 118.623 255.75 117.798 255.281 117.097C254.813 116.395 254.146 115.849 253.367 115.526ZM247.467 247.467H129.766L247.467 129.767V247.467Z" fill="url(#paint1_linear_349_28)"/>
<path d="M179.525 227.767C179.849 228.546 180.395 229.212 181.097 229.681C181.798 230.15 182.623 230.4 183.467 230.4H226.133C227.265 230.4 228.35 229.95 229.15 229.15C229.951 228.35 230.4 227.265 230.4 226.133V183.467C230.4 181.742 229.36 180.186 227.766 179.525C226.173 178.865 224.337 179.231 223.117 180.45L180.45 223.117C179.853 223.714 179.447 224.474 179.282 225.302C179.117 226.129 179.202 226.987 179.525 227.767ZM221.867 193.767V221.867H193.766L221.867 193.767ZM162.744 155.798C163.515 157.081 164.902 157.865 166.4 157.865C167.898 157.865 169.285 157.081 170.056 155.798L182.856 134.465C183.256 133.801 183.467 133.041 183.467 132.267V17.0667C183.467 7.6416 175.825 0 166.4 0C156.975 0 149.333 7.6416 149.333 17.0667V132.267C149.333 133.042 149.544 133.8 149.944 134.465L162.744 155.798ZM166.4 145.307L161.136 136.533H171.665L166.4 145.307ZM157.867 128V34.1333H174.933V128H157.867ZM166.4 8.53333C171.113 8.53333 174.933 12.3541 174.933 17.0667V25.6H157.867V17.0667C157.867 12.3541 161.688 8.53333 166.4 8.53333Z" fill="url(#paint2_linear_349_28)"/>
</g>
<defs>
<linearGradient id="paint0_linear_349_28" x1="119.467" y1="0" x2="119.467" y2="238.933" gradientUnits="userSpaceOnUse">
<stop stop-color="#ECF1FF"/>
<stop offset="1" stop-color="#5B8FBC"/>
</linearGradient>
<linearGradient id="paint1_linear_349_28" x1="151.467" y1="51.2002" x2="151.467" y2="256" gradientUnits="userSpaceOnUse">
<stop stop-color="#ECF1FF"/>
<stop offset="1" stop-color="#5B8FBC"/>
</linearGradient>
<linearGradient id="paint2_linear_349_28" x1="189.867" y1="0" x2="189.867" y2="230.4" gradientUnits="userSpaceOnUse">
<stop stop-color="#ECF1FF"/>
<stop offset="1" stop-color="#5B8FBC"/>
</linearGradient>
<clipPath id="clip0_349_28">
<rect width="256" height="256" fill="white"/>
</clipPath>
</defs>
</svg>
