<svg width="24" height="24" viewBox="0 0 24 24" fill="none" xmlns="http://www.w3.org/2000/svg">
<path fill-rule="evenodd" clip-rule="evenodd" d="M1.53463 11.4641C7.52698 8.85334 11.5229 7.13213 13.5221 6.3006C19.2306 3.92627 20.4168 3.51379 21.1899 3.50014C21.36 3.49717 21.7402 3.53933 21.9865 3.73918C22.3518 4.03563 22.3539 4.67912 22.3133 5.105C22.004 8.35535 20.6654 16.243 19.9845 19.8834C19.6963 21.4238 19.1289 21.9403 18.5797 21.9908C17.386 22.1007 16.4796 21.2019 15.3234 20.4441C13.5143 19.2581 12.4922 18.5199 10.7361 17.3627C8.7066 16.0253 10.0222 15.2903 11.1788 14.089C11.4815 13.7746 16.7409 8.99073 16.8427 8.55673C16.8555 8.50245 16.8673 8.30011 16.7471 8.19332C16.6269 8.08652 16.4495 8.12298 16.3215 8.15204C16.1401 8.19323 13.2499 10.1035 7.65112 13.8829C6.83074 14.4462 6.08769 14.7207 5.42196 14.7063C4.68798 14.6905 3.27624 14.2913 2.2267 13.9502C0.939406 13.5317 -0.0837152 13.3104 0.00541237 12.5998C0.051823 12.2296 0.561536 11.8511 1.53463 11.4641Z" fill="#025195"/>
</svg>
