<svg width="102" height="77" viewBox="0 0 102 77" fill="none" xmlns="http://www.w3.org/2000/svg">
<path d="M99.3272 27.3906C98.8314 27.8583 98.2473 28.2223 97.6091 28.4615C96.971 28.7006 96.2915 28.81 95.6106 28.7833C94.9296 28.7565 94.2608 28.5942 93.6434 28.3058C93.0259 28.0174 92.4721 27.6087 92.0145 27.1036C91.6588 26.7517 91.1868 26.542 90.6872 26.5141C89.1243 26.5141 87.5562 26.4833 85.9932 26.4782H80.5253C79.111 26.4782 79.0136 26.5807 78.988 28.016V32.1169C78.988 33.6342 78.988 35.1532 78.988 36.6739C78.988 40.462 76.4257 43.0353 72.6182 43.0815C69.728 43.1173 66.8378 43.0815 63.9475 43.0815H62.6613C62.607 43.7861 62.607 44.4939 62.6613 45.1985C62.8048 46.1263 63.5273 46.3416 64.3729 46.3416C68.6262 46.3416 72.8778 46.3416 77.1278 46.3416C77.4702 46.3423 77.8123 46.3611 78.1527 46.398C81.3248 46.7261 83.6 48.5817 84.2662 51.5702C84.3573 51.9967 84.407 52.431 84.4148 52.8671C84.4456 53.6155 84.4148 54.4049 84.4917 55.1276C84.5329 55.6266 84.7363 56.0983 85.0708 56.4707C87.2589 58.5211 87.4024 61.7402 85.3424 63.8368C84.87 64.3086 84.3086 64.6818 83.6907 64.9347C83.0729 65.1876 82.411 65.3151 81.7434 65.3099C81.0759 65.3046 80.416 65.1667 79.8023 64.9042C79.1885 64.6416 78.633 64.2596 78.1681 63.7804C77.9365 63.5359 77.7289 63.2699 77.548 62.9859C76.2156 60.9098 76.5948 58.2391 78.5729 56.4297C78.8569 56.1345 79.0368 55.7548 79.0853 55.3481C79.1341 54.7202 79.1341 54.0895 79.0853 53.4617C79.0597 52.1955 78.5729 51.7188 77.3276 51.7188H64.7726C61.3238 51.7188 59.6019 50.7603 57.711 47.7103C57.67 48.1152 57.6239 48.3818 57.6239 48.6483C57.6239 54.2511 57.6239 59.8487 57.6239 65.4464C57.6239 65.8411 57.6239 66.2409 57.6239 66.6407C57.6239 69.2755 59.8018 71.044 62.2359 70.4699C62.9844 70.2966 63.6603 69.8945 64.17 69.3195C64.6796 68.7445 64.9977 68.025 65.08 67.261C65.1697 66.5376 65.1697 65.8058 65.08 65.0824C64.9549 64.6575 64.7114 64.277 64.378 63.9854C64.1317 63.7405 63.907 63.4747 63.7067 63.1909C63.2337 62.5544 62.927 61.81 62.8142 61.025C62.7015 60.24 62.7863 59.4393 63.061 58.6954C63.3509 57.8444 63.8647 57.0874 64.5484 56.5038C65.232 55.9202 66.0602 55.5316 66.9459 55.379C67.8316 55.2264 68.742 55.3153 69.5815 55.6364C70.4209 55.9574 71.1584 56.4989 71.7163 57.2037C71.8784 57.4118 72.0256 57.6311 72.157 57.8598C72.7189 58.8302 72.9304 59.9643 72.7559 61.072C72.5814 62.1798 72.0317 63.1939 71.1987 63.9444C70.9436 64.1458 70.7432 64.4082 70.616 64.7074C70.4889 65.0066 70.439 65.333 70.471 65.6565C70.544 66.7446 70.4594 67.8374 70.2199 68.9013C69.9345 70.1695 69.3709 71.3583 68.5698 72.3819C67.4099 73.8941 65.805 75.0043 63.9811 75.5561C62.1571 76.1078 60.2061 76.0734 58.4028 75.4575C57.4665 75.1471 56.5884 74.6828 55.8047 74.0837C54.697 73.2483 53.797 72.1684 53.1748 70.9281C52.5526 69.6878 52.225 68.3206 52.2175 66.9329C52.2175 66.692 52.2175 66.4562 52.2175 66.2153C52.2175 59.1362 52.2175 52.052 52.2175 44.9678V43.794H49.4144V45.1831C49.4144 52.2161 49.4144 59.249 49.4144 66.2768V66.9534C49.3914 69.3429 48.4332 71.6283 46.7453 73.3194C45.0574 75.0105 42.7742 75.9726 40.3855 75.9994C37.9967 76.0263 35.6925 75.1156 33.9671 73.4629C32.2416 71.8101 31.2324 69.5469 31.1558 67.1585C31.1404 66.9263 31.1404 66.6934 31.1558 66.4613C31.2223 65.9483 31.1638 65.4268 30.9854 64.9412C30.8069 64.4557 30.5137 64.0205 30.1308 63.6727C28.4039 61.976 28.4244 59.1208 29.9002 57.2549C30.0548 57.0575 30.2262 56.874 30.4127 56.7065C31.3738 55.8159 32.6439 55.3349 33.9537 55.3655C35.2634 55.3962 36.5097 55.936 37.4282 56.8705C38.2508 57.7048 38.7532 58.8026 38.8469 59.9707C38.9406 61.1388 38.6197 62.3026 37.9406 63.2575C37.7678 63.5028 37.574 63.7326 37.3615 63.9444C36.3366 64.9696 36.1932 67.2969 37.0489 68.768C37.4518 69.4646 38.0675 70.0133 38.8056 70.3335C39.5436 70.6537 40.3649 70.7285 41.1486 70.5468C41.9697 70.3687 42.7057 69.9164 43.2357 69.2642C43.7656 68.6121 44.0579 67.7989 44.0644 66.9585C44.0644 66.4459 44.0644 65.9795 44.0644 65.4925C44.0644 64.2264 44.0644 62.9551 44.0644 61.689V47.8948C43.8594 48.0435 43.7621 48.0793 43.7211 48.146C42.1837 50.7551 39.8931 51.8213 36.9055 51.7701C33.2312 51.7086 29.562 51.7393 25.8878 51.7701H24.6425C23.1359 51.7701 22.6901 52.2212 22.6849 53.7282C22.7029 54.0595 22.7029 54.3914 22.6849 54.7227C22.6338 55.1239 22.6871 55.5315 22.8397 55.906C22.9924 56.2805 23.2391 56.6092 23.5561 56.8602C24.3703 57.6496 24.8842 58.698 25.0096 59.8252C25.1349 60.9524 24.8637 62.0881 24.2428 63.0371C24.023 63.3794 23.7632 63.6943 23.469 63.9752C22.4925 64.8738 21.1991 65.3476 19.8733 65.2923C18.5476 65.2371 17.2981 64.6572 16.3997 63.6804C15.5013 62.7036 15.0277 61.4098 15.0829 60.0837C15.1382 58.7576 15.7179 57.5077 16.6944 56.6091C16.9137 56.4414 17.087 56.2209 17.1981 55.9681C17.3092 55.7153 17.3545 55.4385 17.3298 55.1635C17.2862 54.3747 17.2862 53.5841 17.3298 52.7953C17.3298 52.6569 17.3298 52.5185 17.3708 52.3852C17.5414 50.8099 18.2646 49.3461 19.412 48.2537C20.5595 47.1614 22.0568 46.5111 23.6381 46.4185C23.8174 46.4185 24.0019 46.4185 24.1864 46.4185C28.286 46.3877 32.3856 46.357 36.4443 46.4185C38.9604 46.4646 39.4523 46.0956 39.0834 43.1378H37.9509C35.0606 43.1378 32.1704 43.1378 29.2802 43.1378C25.447 43.1378 22.8643 40.5184 22.8489 36.6842V32.1476C22.8489 30.7397 22.8489 29.33 22.8489 27.9186C22.8489 26.6576 22.7054 26.509 21.5012 26.509C19.6256 26.509 17.7449 26.509 15.8642 26.509C14.2551 26.509 12.646 26.509 11.0369 26.5397C10.6028 26.5639 10.1927 26.7462 9.88389 27.0523C9.44618 27.5761 8.90645 28.0052 8.29758 28.3136C7.68871 28.6219 7.02345 28.803 6.34234 28.8458C5.66123 28.8887 4.97853 28.7923 4.33585 28.5627C3.69316 28.3331 3.10395 27.9749 2.60411 27.5101C2.10427 27.0453 1.70428 26.4836 1.4285 25.8592C1.15272 25.2347 1.00693 24.5607 1.00001 23.878C0.9931 23.1954 1.12521 22.5185 1.38828 21.8886C1.65135 21.2587 2.03989 20.689 2.53021 20.2142C4.58002 18.1945 7.77771 18.3483 9.8224 20.5064C10.1849 20.8567 10.6617 21.0642 11.165 21.0907C13.4659 21.1215 15.7771 21.1215 18.0729 21.0907H21.7164C22.5867 21.0408 23.4577 21.1766 24.2715 21.489C25.0854 21.8015 25.8235 22.2834 26.437 22.9029C27.0505 23.5224 27.5253 24.2653 27.83 25.0823C28.1346 25.8993 28.2621 26.7718 28.204 27.6418C28.204 30.5585 28.204 33.4701 28.204 36.3868C28.204 37.5915 28.3731 37.7504 29.5979 37.7555C31.5896 37.7555 33.5831 37.7555 35.5782 37.7555C35.8601 37.7555 36.1368 37.7042 36.5724 37.6581C35.9369 37.2378 35.4091 36.9558 34.9581 36.5816C34.12 35.9243 33.4484 35.0786 32.9979 34.1132C32.5474 33.1478 32.3306 32.0898 32.3651 31.025C32.3651 26.0049 32.3651 20.9882 32.3651 15.975V10.9566C32.3651 9.16245 32.0013 8.79337 30.2282 8.78825C29.8951 8.78825 29.562 8.78825 29.2341 8.78825C28.8927 8.75005 28.5476 8.76041 28.2092 8.819C27.5549 8.94721 26.9588 9.28128 26.5078 9.77245C24.5605 11.7306 21.2911 11.4743 19.477 9.41875C18.5994 8.42653 18.1463 7.12932 18.2153 5.80631C18.2844 4.4833 18.8699 3.24029 19.8459 2.34481C20.3327 1.90321 20.9019 1.5622 21.5208 1.34139C22.1397 1.12057 22.7961 1.02431 23.4524 1.05813C24.1086 1.09195 24.7517 1.25519 25.3447 1.53847C25.9376 1.82174 26.4688 2.21946 26.9075 2.70876C27.0923 2.95746 27.3391 3.15324 27.6233 3.27649C27.9075 3.39974 28.2191 3.44614 28.5269 3.41103C29.1572 3.3649 29.7875 3.41103 30.4229 3.41103C32.0027 3.36679 33.5577 3.81069 34.8762 4.68229C36.6646 5.92279 37.6998 8.01934 37.7049 10.69V30.0511C37.7049 30.4509 37.7049 30.8456 37.7049 31.2454C37.696 31.4385 37.7277 31.6313 37.7978 31.8113C37.868 31.9914 37.975 32.1548 38.1121 32.291C38.2492 32.4272 38.4133 32.5331 38.5939 32.602C38.7744 32.6709 38.9673 32.7012 39.1602 32.691C41.2818 32.7268 43.4033 32.691 45.6223 32.691V28.5901C44.8709 28.4749 44.1291 28.3036 43.4033 28.0775C41.9992 27.5034 41.0307 26.3654 41.0102 24.8276C40.9385 20.2142 40.8206 15.5546 41.0102 10.9258C41.0102 10.5619 41.0409 10.1928 41.0614 9.82883C41.292 5.2154 45.5505 1.32473 50.1677 1.07356C55.2461 0.791624 59.6839 4.05178 60.6627 8.81388C60.8022 9.51674 60.8828 10.23 60.9036 10.9463C60.9036 11.1257 60.9036 11.3 60.9036 11.4589C60.9292 15.4982 60.9036 19.5427 60.9036 23.582C60.9036 26.714 59.6276 28.1032 56.4862 28.4261C56.3685 28.4506 56.2522 28.4814 56.1378 28.5184V32.65C58.4079 32.65 60.6576 32.7115 62.897 32.5936C63.307 32.5936 63.7528 31.8913 64.0398 31.4248C64.2089 31.1583 64.0961 30.7123 64.0961 30.3484C64.0961 24.3509 64.0961 18.3517 64.0961 12.3508C64.0961 11.7921 64.0961 11.2334 64.0961 10.6695C64.0961 7.96295 65.121 5.8664 66.9249 4.6259C68.239 3.77082 69.78 3.33141 71.3473 3.3649C71.6138 3.3649 71.8598 3.3649 72.1467 3.3649C72.7409 3.46105 73.3495 3.41197 73.9206 3.22185C74.4917 3.03172 75.0084 2.70619 75.4264 2.27305C77.3328 0.345659 80.5766 0.694229 82.3753 2.72927C83.2346 3.71354 83.6786 4.993 83.6136 6.29818C83.5486 7.60335 82.9797 8.83235 82.0268 9.72631C81.5487 10.1782 80.9852 10.5301 80.3693 10.7612C79.7535 10.9923 79.0977 11.0981 78.4404 11.0723C77.7831 11.0466 77.1376 10.8897 76.5417 10.6111C75.9458 10.3324 75.4116 9.93747 74.9704 9.4495C74.8051 9.23334 74.5928 9.05772 74.3494 8.93603C74.1061 8.81433 73.8383 8.74977 73.5662 8.74724H73.351C72.7566 8.7985 72.157 8.74724 71.5574 8.74724C69.8817 8.74724 69.5076 9.13169 69.5076 10.772V15.9852C69.5076 21.019 69.5076 26.0545 69.5076 31.0916C69.549 32.3452 69.2393 33.5853 68.6137 34.6722C67.988 35.759 67.0712 36.6494 65.9666 37.2429L65.2748 37.6427C65.5818 37.6952 65.8914 37.7311 66.2023 37.7504C68.2521 37.7504 70.3019 37.7504 72.3774 37.7504C73.3254 37.7504 73.679 37.3864 73.6687 36.4535C73.638 33.5368 73.6431 30.62 73.6687 27.7085C73.6076 26.8255 73.7369 25.9397 74.0479 25.1111C74.3589 24.2825 74.8442 23.5304 75.4711 22.9057C76.098 22.2811 76.8517 21.7985 77.6813 21.4907C78.5109 21.1829 79.3969 21.057 80.2794 21.1215H83.8101C86.0906 21.1215 88.3658 21.1215 90.6411 21.0907C91.1743 21.0671 91.6806 20.8503 92.0657 20.4807C92.5024 19.9413 93.0461 19.4981 93.6624 19.1791C94.2787 18.8601 94.9544 18.6722 95.6469 18.6272C96.3394 18.5823 97.0336 18.6812 97.686 18.9178C98.3384 19.1544 98.9348 19.5235 99.4376 20.0019C99.9403 20.4804 100.339 21.0577 100.607 21.6977C100.876 22.3377 101.01 23.0264 100.999 23.7205C100.989 24.4145 100.835 25.0989 100.547 25.7306C100.259 26.3622 99.844 26.9274 99.3272 27.3906Z" stroke="#025195" stroke-width="1.57" stroke-miterlimit="10"/>
<path d="M60.898 10.9564C61.9993 11.3641 63.0741 11.8401 64.1162 12.3815" stroke="#025195" stroke-width="1.57" stroke-miterlimit="10"/>
<path d="M15.865 26.5039C13.0967 35.1496 13.6224 44.514 17.3409 52.7954" stroke="#025195" stroke-width="1.57" stroke-miterlimit="10"/>
<path d="M34.9011 4.66176C39.9012 2.25766 45.3778 1.0094 50.9255 1.0094C56.4732 1.0094 61.9498 2.25766 66.9498 4.66176" stroke="#025195" stroke-width="1.57" stroke-miterlimit="10"/>
<path d="M25.9851 51.7596C27.1056 53.7365 28.4577 55.5727 30.013 57.2291" stroke="#025195" stroke-width="1.57" stroke-miterlimit="10"/>
<path d="M38.0383 63.2321C39.9949 64.2172 42.0583 64.974 44.1877 65.4875" stroke="#025195" stroke-width="1.57" stroke-miterlimit="10"/>
<path d="M26.4302 22.9465C28.0262 20.3226 30.0332 17.9723 32.3747 15.9854" stroke="#025195" stroke-width="1.57" stroke-miterlimit="10"/>
<path d="M18.0717 21.1367C20.5207 16.3431 23.9892 12.144 28.2336 8.83423" stroke="#025195" stroke-width="1.57" stroke-miterlimit="10"/>
<path d="M22.8494 32.1475C21.9074 36.8957 22.1824 41.8051 23.6488 46.4184" stroke="#025195" stroke-width="1.57" stroke-miterlimit="10"/>
<path d="M24.2379 63.027C26.4017 65.2952 28.8432 67.281 31.5044 68.9373" stroke="#025195" stroke-width="1.57" stroke-miterlimit="10"/>
<path d="M71.829 57.2445C73.3909 55.5855 74.7468 53.7439 75.8672 51.7596" stroke="#025195" stroke-width="1.57" stroke-miterlimit="10"/>
<path d="M70.3325 68.9425C73.0018 67.2911 75.449 65.3049 77.6144 63.0322" stroke="#025195" stroke-width="1.57" stroke-miterlimit="10"/>
<path d="M57.6892 65.4875C59.8187 64.974 61.8821 64.2172 63.8386 63.2321" stroke="#025195" stroke-width="1.57" stroke-miterlimit="10"/>
<path d="M45.9444 74.1199C49.2537 74.5641 52.6074 74.5641 55.9167 74.1199" stroke="#025195" stroke-width="1.57" stroke-miterlimit="10"/>
<path d="M78.1987 46.444C79.674 41.8239 79.9526 36.9047 79.0083 32.1475" stroke="#025195" stroke-width="1.57" stroke-miterlimit="10"/>
<path d="M73.5657 8.7677C77.8368 12.0905 81.3238 16.3136 83.7788 21.1368" stroke="#025195" stroke-width="1.57" stroke-miterlimit="10"/>
<path d="M75.4203 22.9414C73.8265 20.3204 71.823 17.972 69.4861 15.9854" stroke="#025195" stroke-width="1.57" stroke-miterlimit="10"/>
<path d="M37.7307 12.3868C38.7916 11.8369 39.8852 11.3524 41.0053 10.9362" stroke="#025195" stroke-width="1.57" stroke-miterlimit="10"/>
<path d="M85.9933 26.4989C88.7744 35.1896 88.2265 44.6042 84.456 52.9134" stroke="#025195" stroke-width="1.57" stroke-miterlimit="10"/>
<path d="M52.3353 66.2512C51.8689 66.2766 51.4026 66.2868 50.926 66.2868C50.4494 66.2868 49.9882 66.2868 49.5219 66.2512" stroke="#025195" stroke-width="1.57" stroke-miterlimit="10"/>
</svg>
